STARTFONT 2.1
FONT -FontForge-Rajdhani-Book-R-Normal--32-320-72-72-P-196-ISO10646-1
SIZE 32 72 72
FONTBOUNDINGBOX 78 38 -13 -10
COMMENT "Generated by fontforge, http://fontforge.sourceforge.net"
COMMENT "Copyright (c) 2014 Indian Type Foundry (info@indiantypefoundry.com)"
STARTPROPERTIES 40
FOUNDRY "FontForge"
FAMILY_NAME "Rajdhani"
WEIGHT_NAME "Book"
SLANT "R"
SETWIDTH_NAME "Normal"
ADD_STYLE_NAME ""
PIXEL_SIZE 32
POINT_SIZE 320
RESOLUTION_X 72
RESOLUTION_Y 72
SPACING "P"
AVERAGE_WIDTH 196
CHARSET_REGISTRY "ISO10646"
CHARSET_ENCODING "1"
FONTNAME_REGISTRY ""
CHARSET_COLLECTIONS "ISO8859-2 ISO8859-9 ISO8859-4 ISO10646-1"
FONT_NAME "Rajdhani-Regular"
FACE_NAME "Rajdhani Regular"
COPYRIGHT "Copyright (c) 2014 Indian Type Foundry (info@indiantypefoundry.com)"
FONT_VERSION "1.201;PS 1.0;hotconv 1.0.78;makeotf.lib2.5.61930; ttfautohint (v1.1) -l 7 -r 28 -G 50 -x 13 -D latn -f deva -w G"
FONT_ASCENT 26
FONT_DESCENT 6
UNDERLINE_POSITION -3
UNDERLINE_THICKNESS 2
X_HEIGHT 15
CAP_HEIGHT 19
DEFAULT_CHAR 3
RAW_ASCENT 800
RAW_DESCENT 200
NORM_SPACE 9
RELATIVE_WEIGHT 40
RELATIVE_SETWIDTH 50
SUPERSCRIPT_X 0
SUPERSCRIPT_Y 11
SUPERSCRIPT_SIZE 19
SUBSCRIPT_X 0
SUBSCRIPT_Y 2
SUBSCRIPT_SIZE 19
AVG_LOWERCASE_WIDTH 145
AVG_UPPERCASE_WIDTH 166
ENDPROPERTIES
CHARS 1043
STARTCHAR NULL.dup1
ENCODING 0
SWIDTH 0 0
DWIDTH 0 0
BBX 1 1 0 0
BITMAP
00
ENDCHAR
STARTCHAR CR
ENCODING 13
SWIDTH 0 0
DWIDTH 0 0
BBX 1 1 0 0
BITMAP
00
ENDCHAR
STARTCHAR space
ENCODING 32
SWIDTH 267 0
DWIDTH 9 0
BBX 1 1 0 0
BITMAP
00
ENDCHAR
STARTCHAR exclam
ENCODING 33
SWIDTH 237 0
DWIDTH 8 0
BBX 2 20 3 0
BITMAP
C0
C0
C0
C0
C0
C0
C0
C0
C0
C0
C0
80
80
80
00
00
C0
C0
C0
C0
ENDCHAR
STARTCHAR quotedbl
ENCODING 34
SWIDTH 330 0
DWIDTH 11 0
BBX 7 7 2 13
BITMAP
C6
C6
C4
84
84
84
84
ENDCHAR
STARTCHAR numbersign
ENCODING 35
SWIDTH 677 0
DWIDTH 22 0
BBX 18 20 2 0
BITMAP
018100
010300
030200
030200
020600
3FFFC0
060400
040C00
040C00
0C0800
0C0800
081800
081000
FFFF00
103000
103000
302000
302000
206000
206000
ENDCHAR
STARTCHAR dollar
ENCODING 36
SWIDTH 504 0
DWIDTH 16 0
BBX 12 27 2 -3
BITMAP
0200
0200
0200
0200
3FC0
70E0
C030
C030
C030
C000
C000
C000
6000
3FC0
00E0
0030
0030
0030
C030
C030
C030
4030
70E0
3FC0
0200
0200
0200
ENDCHAR
STARTCHAR percent
ENCODING 37
SWIDTH 717 0
DWIDTH 23 0
BBX 19 20 2 0
BITMAP
7C0400
E60400
830C00
830800
831800
831000
833000
C22000
7E6000
004000
004000
0087C0
008860
019820
011820
031820
021820
061820
040CE0
0C07C0
ENDCHAR
STARTCHAR ampersand
ENCODING 38
SWIDTH 597 0
DWIDTH 19 0
BBX 15 20 2 0
BITMAP
0FC0
1CE0
3030
3030
3030
3030
3000
1000
1800
3C00
6600
C3FE
C180
C1C0
C0C0
C060
C030
4038
70EC
3FC6
ENDCHAR
STARTCHAR quotesingle
ENCODING 39
SWIDTH 186 0
DWIDTH 6 0
BBX 2 6 2 14
BITMAP
C0
C0
C0
C0
C0
80
ENDCHAR
STARTCHAR parenleft
ENCODING 40
SWIDTH 283 0
DWIDTH 9 0
BBX 5 23 2 -3
BITMAP
38
70
C0
80
80
80
80
80
80
80
80
80
80
80
80
80
80
80
80
80
C0
60
38
ENDCHAR
STARTCHAR parenright
ENCODING 41
SWIDTH 283 0
DWIDTH 9 0
BBX 5 23 2 -3
BITMAP
E0
70
10
18
18
18
18
18
18
18
18
18
18
18
18
18
18
18
18
18
18
30
E0
ENDCHAR
STARTCHAR asterisk
ENCODING 42
SWIDTH 406 0
DWIDTH 13 0
BBX 9 8 2 12
BITMAP
0800
0800
C980
7F00
0800
1400
2200
6300
ENDCHAR
STARTCHAR plus
ENCODING 43
SWIDTH 523 0
DWIDTH 17 0
BBX 13 12 2 4
BITMAP
0200
0200
0200
0200
0200
FFF8
0200
0200
0200
0200
0200
0200
ENDCHAR
STARTCHAR comma
ENCODING 44
SWIDTH 191 0
DWIDTH 6 0
BBX 2 8 2 -4
BITMAP
C0
C0
C0
C0
C0
80
80
80
ENDCHAR
STARTCHAR hyphen
ENCODING 45
SWIDTH 312 0
DWIDTH 10 0
BBX 8 1 1 10
BITMAP
FF
ENDCHAR
STARTCHAR period
ENCODING 46
SWIDTH 191 0
DWIDTH 6 0
BBX 2 4 2 0
BITMAP
C0
C0
C0
C0
ENDCHAR
STARTCHAR slash
ENCODING 47
SWIDTH 396 0
DWIDTH 13 0
BBX 9 20 2 0
BITMAP
0180
0100
0300
0300
0200
0600
0400
0C00
0C00
0800
1800
1800
1000
3000
3000
6000
6000
4000
C000
C000
ENDCHAR
STARTCHAR zero
ENCODING 48
SWIDTH 514 0
DWIDTH 16 0
BBX 12 20 2 0
BITMAP
3FC0
70E0
C030
C010
C010
C010
C010
C010
C010
C010
C010
C010
C010
C010
C010
C010
C010
C030
70E0
3FC0
ENDCHAR
STARTCHAR one
ENCODING 49
SWIDTH 317 0
DWIDTH 10 0
BBX 6 20 1 0
BITMAP
0C
3C
74
C4
04
04
04
04
04
04
04
04
04
04
04
04
04
04
04
04
ENDCHAR
STARTCHAR two
ENCODING 50
SWIDTH 478 0
DWIDTH 15 0
BBX 11 20 2 0
BITMAP
3F80
71C0
C060
C020
8020
8020
0020
0060
00C0
0180
0300
0E00
1800
3000
6000
C000
C000
C000
C000
FFE0
ENDCHAR
STARTCHAR three
ENCODING 51
SWIDTH 496 0
DWIDTH 16 0
BBX 12 20 2 0
BITMAP
3FC0
70E0
C020
C030
C030
8030
0030
0030
0060
0780
00E0
0020
0030
0030
C030
C030
C030
C020
70E0
3FC0
ENDCHAR
STARTCHAR four
ENCODING 52
SWIDTH 520 0
DWIDTH 17 0
BBX 15 20 1 0
BITMAP
0070
00F0
00F0
01B0
0130
0330
0630
0630
0C30
0830
1830
1030
3030
6030
4030
FFFE
0030
0030
0030
0030
ENDCHAR
STARTCHAR five
ENCODING 53
SWIDTH 482 0
DWIDTH 15 0
BBX 12 20 2 0
BITMAP
FFE0
C000
C000
C000
C000
C000
C000
FFC0
E0E0
C020
0030
0030
0030
0030
C030
C030
C030
C060
71E0
3F80
ENDCHAR
STARTCHAR six
ENCODING 54
SWIDTH 497 0
DWIDTH 16 0
BBX 12 20 2 0
BITMAP
3FE0
7000
C000
C000
8000
8000
8000
8000
FFC0
80E0
8030
8030
8030
8030
8030
8030
C030
C030
70E0
3FC0
ENDCHAR
STARTCHAR seven
ENCODING 55
SWIDTH 380 0
DWIDTH 12 0
BBX 11 20 1 0
BITMAP
FFE0
0040
00C0
00C0
0080
0180
0180
0300
0300
0200
0600
0600
0C00
0C00
0800
1800
1800
1000
3000
3000
ENDCHAR
STARTCHAR eight
ENCODING 56
SWIDTH 519 0
DWIDTH 17 0
BBX 12 20 2 0
BITMAP
3FC0
70F0
C030
C010
C010
C010
C010
C010
6030
3FC0
6070
C030
C010
C010
C010
C010
C010
C030
70F0
3FC0
ENDCHAR
STARTCHAR nine
ENCODING 57
SWIDTH 497 0
DWIDTH 16 0
BBX 12 20 2 0
BITMAP
3FC0
70E0
C020
C030
8030
8030
8030
8030
8030
C030
6030
7FF0
0030
0030
0030
0030
0030
0020
00E0
7FC0
ENDCHAR
STARTCHAR colon
ENCODING 58
SWIDTH 191 0
DWIDTH 6 0
BBX 2 16 2 0
BITMAP
C0
C0
C0
C0
00
00
00
00
00
00
00
00
C0
C0
C0
C0
ENDCHAR
STARTCHAR semicolon
ENCODING 59
SWIDTH 191 0
DWIDTH 6 0
BBX 2 19 2 -3
BITMAP
C0
C0
C0
C0
00
00
00
00
00
00
00
C0
C0
C0
C0
C0
80
80
80
ENDCHAR
STARTCHAR less
ENCODING 60
SWIDTH 513 0
DWIDTH 16 0
BBX 12 10 2 5
BITMAP
0030
01E0
0F00
3800
E000
E000
3C00
0780
00F0
0030
ENDCHAR
STARTCHAR equal
ENCODING 61
SWIDTH 531 0
DWIDTH 17 0
BBX 13 7 2 7
BITMAP
FFF8
0000
0000
0000
0000
0000
FFF8
ENDCHAR
STARTCHAR greater
ENCODING 62
SWIDTH 531 0
DWIDTH 17 0
BBX 13 10 2 5
BITMAP
E000
3C00
0700
01E0
0038
0078
01C0
0F00
7800
C000
ENDCHAR
STARTCHAR question
ENCODING 63
SWIDTH 473 0
DWIDTH 15 0
BBX 11 20 2 0
BITMAP
3F80
71C0
4060
C060
C060
C060
0060
00C0
0180
0300
0600
0600
0600
0600
0000
0000
0600
0600
0600
0600
ENDCHAR
STARTCHAR at
ENCODING 64
SWIDTH 753 0
DWIDTH 24 0
BBX 19 20 3 -2
BITMAP
0FFF00
1C01C0
700040
400040
C3FC60
870C60
840C60
8C0C60
8C0C60
8C0C60
8C0C60
8C0C60
8C0C40
840C40
861CC0
C3EF80
400000
600000
380000
0FFC00
ENDCHAR
STARTCHAR A
ENCODING 65
SWIDTH 533 0
DWIDTH 17 0
BBX 15 20 1 0
BITMAP
0380
0380
0280
06C0
06C0
0440
0C60
0C60
0820
1830
1830
1010
3018
3FF8
2008
600C
600C
4004
C006
C006
ENDCHAR
STARTCHAR B
ENCODING 66
SWIDTH 546 0
DWIDTH 17 0
BBX 12 20 3 0
BITMAP
FFC0
C0E0
8030
8030
8030
8030
8030
8030
8060
FFC0
8060
8030
8010
8010
8010
8010
8030
8030
C0E0
FFC0
ENDCHAR
STARTCHAR C
ENCODING 67
SWIDTH 542 0
DWIDTH 17 0
BBX 13 20 2 0
BITMAP
1FE0
7870
6018
C008
C008
C008
C000
C000
C000
C000
C000
C000
C000
C000
C008
C008
C008
6018
7870
3FE0
ENDCHAR
STARTCHAR D
ENCODING 68
SWIDTH 557 0
DWIDTH 18 0
BBX 12 20 3 0
BITMAP
FFC0
C0E0
8030
8010
8010
8010
8010
8010
8010
8010
8010
8010
8010
8010
8010
8010
8010
8030
C0F0
FFC0
ENDCHAR
STARTCHAR E
ENCODING 69
SWIDTH 481 0
DWIDTH 15 0
BBX 10 20 3 0
BITMAP
FFC0
C000
8000
8000
8000
8000
8000
8000
8000
FF80
8000
8000
8000
8000
8000
8000
8000
8000
C000
FFC0
ENDCHAR
STARTCHAR F
ENCODING 70
SWIDTH 459 0
DWIDTH 15 0
BBX 10 20 3 0
BITMAP
FFC0
C000
8000
8000
8000
8000
8000
8000
8000
8000
FF80
8000
8000
8000
8000
8000
8000
8000
8000
8000
ENDCHAR
STARTCHAR G
ENCODING 71
SWIDTH 539 0
DWIDTH 17 0
BBX 13 20 2 0
BITMAP
1FE0
7870
6018
C018
C018
C018
C000
C000
C000
C000
C1F8
C018
C018
C018
C018
C018
C018
6018
7870
3FE0
ENDCHAR
STARTCHAR H
ENCODING 72
SWIDTH 570 0
DWIDTH 18 0
BBX 13 20 3 0
BITMAP
8018
8018
8018
8018
8018
8018
8018
8018
8018
FFF8
8018
8018
8018
8018
8018
8018
8018
8018
8018
8018
ENDCHAR
STARTCHAR I
ENCODING 73
SWIDTH 230 0
DWIDTH 7 0
BBX 1 20 3 0
BITMAP
80
80
80
80
80
80
80
80
80
80
80
80
80
80
80
80
80
80
80
80
ENDCHAR
STARTCHAR J
ENCODING 74
SWIDTH 499 0
DWIDTH 16 0
BBX 12 20 1 0
BITMAP
0010
0010
0010
0010
0010
0010
0010
0010
0010
0010
0010
0010
0010
C010
C010
C010
C010
4030
70E0
3FC0
ENDCHAR
STARTCHAR K
ENCODING 75
SWIDTH 530 0
DWIDTH 17 0
BBX 13 20 3 0
BITMAP
8030
8060
80C0
80C0
8180
8300
8600
8600
8C00
9C00
B600
A200
C300
C180
80C0
80C0
8060
8030
8030
8018
ENDCHAR
STARTCHAR L
ENCODING 76
SWIDTH 451 0
DWIDTH 14 0
BBX 11 20 3 0
BITMAP
8000
8000
8000
8000
8000
8000
8000
8000
8000
8000
8000
8000
8000
8000
8000
8000
8000
8000
C000
FFE0
ENDCHAR
STARTCHAR M
ENCODING 77
SWIDTH 696 0
DWIDTH 22 0
BBX 17 20 3 0
BITMAP
C00380
E00380
E00780
B00580
B00D80
900D80
981980
881980
8C1180
843180
862180
866180
834180
83C180
81C180
818180
800180
800180
800180
800180
ENDCHAR
STARTCHAR N
ENCODING 78
SWIDTH 579 0
DWIDTH 19 0
BBX 13 20 3 0
BITMAP
8018
C018
E018
E018
B018
9018
9818
8C18
8C18
8618
8218
8318
8198
8098
80D8
8058
8078
8038
8018
8018
ENDCHAR
STARTCHAR O
ENCODING 79
SWIDTH 553 0
DWIDTH 18 0
BBX 13 20 2 0
BITMAP
1FE0
7870
6018
C008
C008
C008
C008
C008
C008
C008
C008
C008
C008
C008
C008
C008
C008
6018
7870
3FE0
ENDCHAR
STARTCHAR P
ENCODING 80
SWIDTH 524 0
DWIDTH 17 0
BBX 12 20 3 0
BITMAP
FFC0
C0E0
8030
8030
8030
8030
8030
8030
8030
8030
8060
FFC0
8000
8000
8000
8000
8000
8000
8000
8000
ENDCHAR
STARTCHAR Q
ENCODING 81
SWIDTH 556 0
DWIDTH 18 0
BBX 13 24 2 -4
BITMAP
1FE0
7870
6018
C008
C008
C008
C008
C008
C008
C008
C008
C008
C008
C008
C008
C008
C008
6018
7870
1FE0
0080
00C0
0060
0030
ENDCHAR
STARTCHAR R
ENCODING 82
SWIDTH 534 0
DWIDTH 17 0
BBX 12 20 3 0
BITMAP
FFC0
C0E0
8030
8030
8030
8030
8030
8030
8030
8060
FFC0
8180
8180
8080
80C0
8040
8060
8020
8030
8030
ENDCHAR
STARTCHAR S
ENCODING 83
SWIDTH 562 0
DWIDTH 18 0
BBX 12 20 3 0
BITMAP
3FC0
70E0
C030
8010
8010
8010
8000
C000
E000
3E00
07C0
0070
0030
0010
8010
8010
8010
C030
70E0
3FC0
ENDCHAR
STARTCHAR T
ENCODING 84
SWIDTH 420 0
DWIDTH 13 0
BBX 12 20 1 0
BITMAP
FFF0
0600
0600
0600
0600
0600
0600
0600
0600
0600
0600
0600
0600
0600
0600
0600
0600
0600
0600
0600
ENDCHAR
STARTCHAR U
ENCODING 85
SWIDTH 552 0
DWIDTH 18 0
BBX 12 20 3 0
BITMAP
8030
8030
8030
8030
8030
8030
8030
8030
8030
8030
8030
8030
8030
8030
8030
8030
8030
C030
F0E0
3FC0
ENDCHAR
STARTCHAR V
ENCODING 86
SWIDTH 500 0
DWIDTH 16 0
BBX 14 20 1 0
BITMAP
C00C
C00C
4008
6018
6018
6018
2010
3030
3030
1020
1860
1860
0840
0CC0
0CC0
0480
0480
0780
0380
0300
ENDCHAR
STARTCHAR W
ENCODING 87
SWIDTH 794 0
DWIDTH 25 0
BBX 23 20 1 0
BITMAP
C01802
C03806
403806
402C06
606C04
60640C
60440C
20460C
30C60C
30C208
308318
108318
118118
198110
190190
1901B0
0B00B0
0A00A0
0E00E0
0E00E0
ENDCHAR
STARTCHAR X
ENCODING 88
SWIDTH 504 0
DWIDTH 16 0
BBX 14 20 1 0
BITMAP
C00C
6018
3010
3030
1860
0860
0CC0
0480
0780
0300
0780
0680
0CC0
0840
1860
1030
3030
6018
6008
C00C
ENDCHAR
STARTCHAR Y
ENCODING 89
SWIDTH 493 0
DWIDTH 16 0
BBX 14 20 1 0
BITMAP
C00C
C018
6018
6030
3030
3060
1860
08C0
0CC0
0580
0780
0300
0300
0300
0300
0300
0300
0300
0300
0300
ENDCHAR
STARTCHAR Z
ENCODING 90
SWIDTH 482 0
DWIDTH 15 0
BBX 13 20 1 0
BITMAP
7FF8
0018
0030
0030
0060
00C0
00C0
0180
0180
0300
0600
0600
0C00
1800
1800
3000
3000
6000
C000
FFF8
ENDCHAR
STARTCHAR bracketleft
ENCODING 91
SWIDTH 287 0
DWIDTH 9 0
BBX 5 23 2 -3
BITMAP
F8
C0
80
80
80
80
80
80
80
80
80
80
80
80
80
80
80
80
80
80
80
80
F8
ENDCHAR
STARTCHAR backslash
ENCODING 92
SWIDTH 396 0
DWIDTH 13 0
BBX 9 20 2 0
BITMAP
C000
C000
4000
6000
6000
3000
3000
1000
1800
1800
0800
0C00
0C00
0400
0600
0200
0300
0300
0100
0180
ENDCHAR
STARTCHAR bracketright
ENCODING 93
SWIDTH 287 0
DWIDTH 9 0
BBX 5 23 2 -3
BITMAP
F8
18
18
18
18
18
18
18
18
18
18
18
18
18
18
18
18
18
18
18
18
18
F8
ENDCHAR
STARTCHAR asciicircum
ENCODING 94
SWIDTH 465 0
DWIDTH 15 0
BBX 11 9 2 11
BITMAP
0E00
0A00
1B00
3100
3180
6080
60C0
C040
C060
ENDCHAR
STARTCHAR underscore
ENCODING 95
SWIDTH 372 0
DWIDTH 12 0
BBX 12 1 0 -3
BITMAP
FFF0
ENDCHAR
STARTCHAR grave
ENCODING 96
SWIDTH 269 0
DWIDTH 9 0
BBX 4 4 2 18
BITMAP
C0
60
30
10
ENDCHAR
STARTCHAR a
ENCODING 97
SWIDTH 502 0
DWIDTH 16 0
BBX 12 16 2 0
BITMAP
3FF0
7030
C030
C030
C030
C030
C030
C030
C030
C030
C030
C030
C030
C070
71F0
3FB0
ENDCHAR
STARTCHAR b
ENCODING 98
SWIDTH 504 0
DWIDTH 16 0
BBX 12 22 2 0
BITMAP
C000
C000
C000
C000
C000
C000
DFC0
F8E0
E030
C030
C030
C030
C030
C030
C030
C030
C030
C030
C030
C030
C0E0
FFC0
ENDCHAR
STARTCHAR c
ENCODING 99
SWIDTH 394 0
DWIDTH 13 0
BBX 10 16 2 0
BITMAP
3FC0
7000
C000
C000
C000
C000
C000
C000
C000
C000
C000
C000
C000
C000
7000
3FC0
ENDCHAR
STARTCHAR d
ENCODING 100
SWIDTH 504 0
DWIDTH 16 0
BBX 12 22 2 0
BITMAP
0030
0030
0030
0030
0030
0030
3FB0
71F0
C070
C030
C030
C030
C030
C030
C030
C030
C030
C030
C030
C070
71F0
3FB0
ENDCHAR
STARTCHAR e
ENCODING 101
SWIDTH 492 0
DWIDTH 16 0
BBX 12 16 2 0
BITMAP
3FC0
70E0
C020
C030
C030
C030
C030
C030
FFF0
C000
C000
C000
C000
C000
7000
3FF0
ENDCHAR
STARTCHAR f
ENCODING 102
SWIDTH 303 0
DWIDTH 10 0
BBX 8 22 1 0
BITMAP
07
0E
18
18
10
10
FF
18
10
10
10
10
10
10
10
10
10
10
10
10
10
10
ENDCHAR
STARTCHAR g
ENCODING 103
SWIDTH 506 0
DWIDTH 16 0
BBX 12 20 2 -4
BITMAP
3FF0
7030
C030
C030
C030
C030
C030
C030
C030
C030
C030
C030
6070
3FB0
0030
0030
0030
0030
00E0
7FC0
ENDCHAR
STARTCHAR h
ENCODING 104
SWIDTH 507 0
DWIDTH 16 0
BBX 12 22 2 0
BITMAP
C000
C000
C000
C000
C000
C000
DFC0
F8E0
E030
C030
C030
C030
C030
C030
C030
C030
C030
C030
C030
C030
C030
C030
ENDCHAR
STARTCHAR i
ENCODING 105
SWIDTH 210 0
DWIDTH 7 0
BBX 1 22 3 0
BITMAP
80
80
80
80
00
00
80
80
80
80
80
80
80
80
80
80
80
80
80
80
80
80
ENDCHAR
STARTCHAR j
ENCODING 106
SWIDTH 210 0
DWIDTH 7 0
BBX 6 26 -2 -4
BITMAP
04
04
04
04
00
00
04
04
04
04
04
04
04
04
04
04
04
04
04
04
04
04
0C
0C
38
F0
ENDCHAR
STARTCHAR k
ENCODING 107
SWIDTH 431 0
DWIDTH 14 0
BBX 11 22 2 0
BITMAP
C000
C000
C000
C000
C000
C000
C060
C0C0
C180
C180
C300
C600
C600
CC00
CC00
C600
C300
C100
C180
C0C0
C060
C060
ENDCHAR
STARTCHAR l
ENCODING 108
SWIDTH 210 0
DWIDTH 7 0
BBX 1 22 3 0
BITMAP
80
80
80
80
80
80
80
80
80
80
80
80
80
80
80
80
80
80
80
80
80
80
ENDCHAR
STARTCHAR m
ENCODING 109
SWIDTH 769 0
DWIDTH 25 0
BBX 20 16 2 0
BITMAP
DF87C0
F9DCE0
E07030
C06010
C02010
C02010
C02010
C02010
C02010
C02010
C02010
C02010
C02010
C02010
C02010
C02010
ENDCHAR
STARTCHAR n
ENCODING 110
SWIDTH 507 0
DWIDTH 16 0
BBX 12 16 2 0
BITMAP
DFC0
F8E0
E030
C030
C030
C030
C030
C030
C030
C030
C030
C030
C030
C030
C030
C030
ENDCHAR
STARTCHAR o
ENCODING 111
SWIDTH 496 0
DWIDTH 16 0
BBX 12 16 2 0
BITMAP
3FC0
70E0
C020
C030
C030
C030
C030
C030
C030
C030
C030
C030
C030
C020
70E0
3FC0
ENDCHAR
STARTCHAR p
ENCODING 112
SWIDTH 504 0
DWIDTH 16 0
BBX 12 20 2 -4
BITMAP
DFC0
F8E0
E030
C030
C030
C030
C030
C030
C030
C030
C030
C030
C030
E030
F8E0
DFC0
C000
C000
C000
C000
ENDCHAR
STARTCHAR q
ENCODING 113
SWIDTH 502 0
DWIDTH 16 0
BBX 12 20 2 -4
BITMAP
3FF0
7030
C030
C030
C030
C030
C030
C030
C030
C030
C030
C030
C030
C070
71F0
3FB0
0030
0030
0030
0030
ENDCHAR
STARTCHAR r
ENCODING 114
SWIDTH 313 0
DWIDTH 10 0
BBX 7 16 2 0
BITMAP
CE
F8
E0
C0
C0
C0
C0
C0
C0
C0
C0
C0
C0
C0
C0
C0
ENDCHAR
STARTCHAR s
ENCODING 115
SWIDTH 431 0
DWIDTH 14 0
BBX 10 16 2 0
BITMAP
7F80
E000
C000
8000
8000
C000
7000
1E00
0780
00C0
00C0
00C0
00C0
00C0
0380
FF00
ENDCHAR
STARTCHAR t
ENCODING 116
SWIDTH 347 0
DWIDTH 11 0
BBX 9 19 1 0
BITMAP
3000
3000
3000
FF00
3000
3000
3000
3000
3000
3000
3000
3000
3000
3000
3000
3000
1800
1E00
0780
ENDCHAR
STARTCHAR u
ENCODING 117
SWIDTH 507 0
DWIDTH 16 0
BBX 12 16 2 0
BITMAP
C030
C030
C030
C030
C030
C030
C030
C030
C030
C030
C030
C030
C030
4030
71F0
3FB0
ENDCHAR
STARTCHAR v
ENCODING 118
SWIDTH 416 0
DWIDTH 13 0
BBX 12 16 1 0
BITMAP
8030
C020
C060
4060
6040
60C0
20C0
2080
3180
1180
1100
1900
1B00
0A00
0E00
0E00
ENDCHAR
STARTCHAR w
ENCODING 119
SWIDTH 683 0
DWIDTH 22 0
BBX 20 16 1 0
BITMAP
806030
C06030
C0E030
40F020
60B060
609060
619040
2118C0
3108C0
3108C0
130C80
120D80
1A0580
0E0500
0E0700
0C0700
ENDCHAR
STARTCHAR x
ENCODING 120
SWIDTH 413 0
DWIDTH 13 0
BBX 11 16 1 0
BITMAP
C060
6040
60C0
3180
3180
1B00
0A00
0E00
0E00
0B00
1900
3180
3080
60C0
4060
C060
ENDCHAR
STARTCHAR y
ENCODING 121
SWIDTH 459 0
DWIDTH 15 0
BBX 13 20 1 -4
BITMAP
C018
C010
4030
6030
6020
2060
3060
1040
18C0
18C0
0980
0D80
0D00
0700
0700
0200
0600
0400
3C00
7800
ENDCHAR
STARTCHAR z
ENCODING 122
SWIDTH 405 0
DWIDTH 13 0
BBX 11 16 1 0
BITMAP
FFE0
0060
00C0
0180
0180
0300
0600
0600
0C00
0800
1800
3000
3000
6000
C000
FFE0
ENDCHAR
STARTCHAR braceleft
ENCODING 123
SWIDTH 298 0
DWIDTH 10 0
BBX 7 23 1 -3
BITMAP
0E
1C
10
10
10
10
10
10
10
30
30
C0
60
30
10
10
10
10
10
10
10
18
0E
ENDCHAR
STARTCHAR bar
ENCODING 124
SWIDTH 207 0
DWIDTH 7 0
BBX 1 20 3 0
BITMAP
80
80
80
80
80
80
80
80
80
80
80
80
80
80
80
80
80
80
80
80
ENDCHAR
STARTCHAR braceright
ENCODING 125
SWIDTH 298 0
DWIDTH 10 0
BBX 7 23 1 -3
BITMAP
E0
70
10
10
10
10
10
10
10
10
18
0E
18
10
10
10
10
10
10
10
10
30
E0
ENDCHAR
STARTCHAR asciitilde
ENCODING 126
SWIDTH 523 0
DWIDTH 17 0
BBX 13 2 2 9
BITMAP
7E18
C7F0
ENDCHAR
STARTCHAR uni00A0
ENCODING 160
SWIDTH 267 0
DWIDTH 9 0
BBX 1 1 0 0
BITMAP
00
ENDCHAR
STARTCHAR exclamdown
ENCODING 161
SWIDTH 237 0
DWIDTH 8 0
BBX 2 20 3 0
BITMAP
C0
C0
C0
C0
00
00
80
80
80
C0
C0
C0
C0
C0
C0
C0
C0
C0
C0
C0
ENDCHAR
STARTCHAR cent
ENCODING 162
SWIDTH 414 0
DWIDTH 13 0
BBX 10 22 2 -3
BITMAP
0200
0200
0200
3FC0
7000
C000
C000
C000
C000
C000
C000
C000
C000
C000
C000
C000
C000
7000
3FC0
0200
0200
0200
ENDCHAR
STARTCHAR sterling
ENCODING 163
SWIDTH 528 0
DWIDTH 17 0
BBX 14 20 1 0
BITMAP
07E0
1E78
1818
100C
300C
3000
3000
3000
3000
3000
FFC0
3000
3000
3000
3000
3000
3000
3000
6000
FFFC
ENDCHAR
STARTCHAR yen
ENCODING 165
SWIDTH 499 0
DWIDTH 16 0
BBX 14 20 1 0
BITMAP
C00C
4008
6018
2010
3030
1020
1860
0840
0CC0
FCFC
0780
0300
0300
FFFC
0300
0300
0300
0300
0300
0300
ENDCHAR
STARTCHAR brokenbar
ENCODING 166
SWIDTH 201 0
DWIDTH 6 0
BBX 2 20 2 0
BITMAP
C0
C0
C0
C0
C0
C0
C0
C0
00
00
00
00
C0
C0
C0
C0
C0
C0
C0
C0
ENDCHAR
STARTCHAR section
ENCODING 167
SWIDTH 454 0
DWIDTH 15 0
BBX 11 20 2 0
BITMAP
3FC0
7000
C000
C000
C000
C000
F800
9F80
81C0
8040
C060
6060
3F60
03E0
0060
0060
0060
0040
01C0
FF80
ENDCHAR
STARTCHAR dieresis
ENCODING 168
SWIDTH 345 0
DWIDTH 11 0
BBX 7 4 2 18
BITMAP
C6
C6
C6
C6
ENDCHAR
STARTCHAR copyright
ENCODING 169
SWIDTH 723 0
DWIDTH 23 0
BBX 19 20 2 0
BITMAP
3FFF80
7001C0
400060
C00060
C1F020
C31820
C60C20
C40C20
C40420
C40020
C40020
C40020
C40C20
C60C20
C20820
C3F820
C00060
400060
7001C0
3FFF80
ENDCHAR
STARTCHAR guillemotleft
ENCODING 171
SWIDTH 431 0
DWIDTH 14 0
BBX 10 10 2 3
BITMAP
0840
1980
3300
6600
C400
C400
6600
3300
1880
0840
ENDCHAR
STARTCHAR registered
ENCODING 174
SWIDTH 439 0
DWIDTH 14 0
BBX 10 10 2 12
BITMAP
3F00
6180
9E40
9240
9240
9E40
9440
9240
C0C0
7F80
ENDCHAR
STARTCHAR macron
ENCODING 175
SWIDTH 358 0
DWIDTH 11 0
BBX 7 1 2 19
BITMAP
FE
ENDCHAR
STARTCHAR degree
ENCODING 176
SWIDTH 298 0
DWIDTH 10 0
BBX 5 6 2 16
BITMAP
78
D8
C8
C8
C8
78
ENDCHAR
STARTCHAR plusminus
ENCODING 177
SWIDTH 523 0
DWIDTH 17 0
BBX 13 12 2 4
BITMAP
0200
0200
0200
0200
FFF8
0200
0200
0200
0200
0000
0000
FFF8
ENDCHAR
STARTCHAR acute
ENCODING 180
SWIDTH 269 0
DWIDTH 9 0
BBX 4 4 2 18
BITMAP
30
60
60
C0
ENDCHAR
STARTCHAR paragraph
ENCODING 182
SWIDTH 513 0
DWIDTH 16 0
BBX 12 20 2 0
BITMAP
7FF0
F830
F830
F830
F830
F830
F830
F830
F830
7830
1830
1830
1830
1830
1830
1830
1830
1830
1830
1830
ENDCHAR
STARTCHAR periodcentered
ENCODING 183
SWIDTH 207 0
DWIDTH 7 0
BBX 2 4 2 8
BITMAP
C0
C0
C0
C0
ENDCHAR
STARTCHAR cedilla
ENCODING 184
SWIDTH 257 0
DWIDTH 8 0
BBX 4 6 2 -6
BITMAP
30
40
E0
10
10
F0
ENDCHAR
STARTCHAR guillemotright
ENCODING 187
SWIDTH 431 0
DWIDTH 14 0
BBX 10 10 2 3
BITMAP
8400
4600
2300
1180
08C0
08C0
1180
2300
4600
8400
ENDCHAR
STARTCHAR questiondown
ENCODING 191
SWIDTH 473 0
DWIDTH 15 0
BBX 11 20 2 0
BITMAP
0C00
0C00
0C00
0C00
0000
0000
0400
0400
0C00
0C00
1800
3000
6000
C000
C060
C060
C060
4060
71C0
3F80
ENDCHAR
STARTCHAR Agrave
ENCODING 192
SWIDTH 532 0
DWIDTH 17 0
BBX 15 27 1 0
BITMAP
0800
0C00
0600
0200
0300
0000
0000
0380
0380
0280
06C0
06C0
0440
0C60
0C60
0820
1830
1830
1010
3018
3FF8
2008
600C
600C
4004
C006
C006
ENDCHAR
STARTCHAR Aacute
ENCODING 193
SWIDTH 532 0
DWIDTH 17 0
BBX 15 27 1 0
BITMAP
0020
0060
00C0
0080
0180
0000
0000
0380
0380
0280
06C0
06C0
0440
0C60
0C60
0820
1830
1830
1010
3018
3FF8
2008
600C
600C
4004
C006
C006
ENDCHAR
STARTCHAR Acircumflex
ENCODING 194
SWIDTH 532 0
DWIDTH 17 0
BBX 15 27 1 0
BITMAP
0100
0280
0280
0440
0C60
0000
0000
0380
0380
0280
06C0
06C0
0440
0C60
0C60
0820
1830
1830
1010
3018
3FF8
2008
600C
600C
4004
C006
C006
ENDCHAR
STARTCHAR Atilde
ENCODING 195
SWIDTH 532 0
DWIDTH 17 0
BBX 15 26 1 0
BITMAP
08E0
0920
0920
0620
0000
0000
0380
0380
0280
06C0
06C0
0440
0C60
0C60
0820
1830
1830
1010
3018
3FF8
2008
600C
600C
4004
C006
C006
ENDCHAR
STARTCHAR Adieresis
ENCODING 196
SWIDTH 532 0
DWIDTH 17 0
BBX 15 26 1 0
BITMAP
0C60
0C60
0C60
0C60
0000
0000
0380
0380
0280
06C0
06C0
0440
0C60
0C60
0820
1830
1830
1010
3018
3FF8
2008
600C
600C
4004
C006
C006
ENDCHAR
STARTCHAR Aring
ENCODING 197
SWIDTH 532 0
DWIDTH 17 0
BBX 15 28 1 0
BITMAP
0780
06C0
0440
0440
0440
07C0
0000
0000
0380
0380
0280
06C0
06C0
0440
0C60
0C60
0820
1830
1830
1010
3018
3FF8
2008
600C
600C
4004
C006
C006
ENDCHAR
STARTCHAR AE
ENCODING 198
SWIDTH 773 0
DWIDTH 25 0
BBX 23 20 0 0
BITMAP
001FFE
003C00
002C00
006C00
004C00
00CC00
018C00
018C00
030C00
020FFC
060C00
040C00
0C0C00
0FFC00
180C00
300C00
300C00
600C00
400C00
C00FFE
ENDCHAR
STARTCHAR Ccedilla
ENCODING 199
SWIDTH 542 0
DWIDTH 17 0
BBX 13 26 2 -6
BITMAP
1FE0
7870
6018
C008
C008
C008
C000
C000
C000
C000
C000
C000
C000
C000
C008
C008
C008
6018
7870
3FE0
0300
0200
0780
0080
0080
0380
ENDCHAR
STARTCHAR Egrave
ENCODING 200
SWIDTH 481 0
DWIDTH 15 0
BBX 10 27 3 0
BITMAP
2000
3000
1800
0800
0C00
0000
0000
FFC0
C000
8000
8000
8000
8000
8000
8000
8000
FF80
8000
8000
8000
8000
8000
8000
8000
8000
C000
FFC0
ENDCHAR
STARTCHAR Eacute
ENCODING 201
SWIDTH 481 0
DWIDTH 15 0
BBX 10 27 3 0
BITMAP
0180
0300
0600
0400
0C00
0000
0000
FFC0
C000
8000
8000
8000
8000
8000
8000
8000
FF80
8000
8000
8000
8000
8000
8000
8000
8000
C000
FFC0
ENDCHAR
STARTCHAR Ecircumflex
ENCODING 202
SWIDTH 481 0
DWIDTH 15 0
BBX 10 27 3 0
BITMAP
0800
0C00
1200
1200
2100
0000
0000
FFC0
C000
8000
8000
8000
8000
8000
8000
8000
FF80
8000
8000
8000
8000
8000
8000
8000
8000
C000
FFC0
ENDCHAR
STARTCHAR Edieresis
ENCODING 203
SWIDTH 481 0
DWIDTH 15 0
BBX 10 26 3 0
BITMAP
2100
2100
2100
2100
0000
0000
FFC0
C000
8000
8000
8000
8000
8000
8000
8000
FF80
8000
8000
8000
8000
8000
8000
8000
8000
C000
FFC0
ENDCHAR
STARTCHAR Igrave
ENCODING 204
SWIDTH 230 0
DWIDTH 7 0
BBX 4 27 0 0
BITMAP
C0
C0
60
30
10
00
00
10
10
10
10
10
10
10
10
10
10
10
10
10
10
10
10
10
10
10
10
ENDCHAR
STARTCHAR Iacute
ENCODING 205
SWIDTH 231 0
DWIDTH 7 0
BBX 4 27 3 0
BITMAP
10
30
60
40
C0
00
00
80
80
80
80
80
80
80
80
80
80
80
80
80
80
80
80
80
80
80
80
ENDCHAR
STARTCHAR Icircumflex
ENCODING 206
SWIDTH 229 0
DWIDTH 7 0
BBX 6 27 1 0
BITMAP
20
70
58
C8
8C
00
00
20
20
20
20
20
20
20
20
20
20
20
20
20
20
20
20
20
20
20
20
ENDCHAR
STARTCHAR Idieresis
ENCODING 207
SWIDTH 230 0
DWIDTH 7 0
BBX 7 26 0 0
BITMAP
C6
C6
C6
C6
00
00
10
10
10
10
10
10
10
10
10
10
10
10
10
10
10
10
10
10
10
10
ENDCHAR
STARTCHAR Eth
ENCODING 208
SWIDTH 514 0
DWIDTH 16 0
BBX 15 20 1 0
BITMAP
3FF0
303C
200C
2004
2006
2006
2006
2006
2006
FF86
2006
2006
2006
2006
2006
2006
2004
200C
303C
3FF0
ENDCHAR
STARTCHAR Ntilde
ENCODING 209
SWIDTH 579 0
DWIDTH 19 0
BBX 13 26 3 0
BITMAP
1380
12C0
1640
1C40
0000
0000
8018
C018
E018
E018
B018
9018
9818
8C18
8C18
8618
8218
8318
8198
8098
80D8
8058
8078
8038
8018
8018
ENDCHAR
STARTCHAR Ograve
ENCODING 210
SWIDTH 553 0
DWIDTH 18 0
BBX 13 27 2 0
BITMAP
1800
0C00
0C00
0600
0300
0000
0000
1FE0
7870
6018
C008
C008
C008
C008
C008
C008
C008
C008
C008
C008
C008
C008
C008
C008
6018
7870
3FE0
ENDCHAR
STARTCHAR Oacute
ENCODING 211
SWIDTH 553 0
DWIDTH 18 0
BBX 13 27 2 0
BITMAP
0040
00C0
0180
0100
0300
0000
0000
1FE0
7870
6018
C008
C008
C008
C008
C008
C008
C008
C008
C008
C008
C008
C008
C008
C008
6018
7870
3FE0
ENDCHAR
STARTCHAR Ocircumflex
ENCODING 212
SWIDTH 553 0
DWIDTH 18 0
BBX 13 27 2 0
BITMAP
0200
0700
0580
0C80
08C0
0000
0000
1FE0
7870
6018
C008
C008
C008
C008
C008
C008
C008
C008
C008
C008
C008
C008
C008
C008
6018
7870
3FE0
ENDCHAR
STARTCHAR Otilde
ENCODING 213
SWIDTH 553 0
DWIDTH 18 0
BBX 13 26 2 0
BITMAP
11C0
1340
1A40
0E40
0000
0000
1FE0
7870
6018
C008
C008
C008
C008
C008
C008
C008
C008
C008
C008
C008
C008
C008
C008
6018
7870
3FE0
ENDCHAR
STARTCHAR Odieresis
ENCODING 214
SWIDTH 553 0
DWIDTH 18 0
BBX 13 26 2 0
BITMAP
1840
1840
1840
1840
0000
0000
1FE0
7870
6018
C008
C008
C008
C008
C008
C008
C008
C008
C008
C008
C008
C008
C008
C008
6018
7870
3FE0
ENDCHAR
STARTCHAR multiply
ENCODING 215
SWIDTH 493 0
DWIDTH 16 0
BBX 10 10 3 5
BITMAP
8080
C1C0
7300
3E00
1C00
1E00
3700
6380
C1C0
8080
ENDCHAR
STARTCHAR Oslash
ENCODING 216
SWIDTH 559 0
DWIDTH 18 0
BBX 15 20 1 0
BITMAP
0FF2
3C3A
300C
200C
601C
6014
6024
6064
60C4
6084
6104
6304
6604
6404
6804
7804
3004
300C
7C3C
CFF0
ENDCHAR
STARTCHAR Ugrave
ENCODING 217
SWIDTH 552 0
DWIDTH 18 0
BBX 12 27 3 0
BITMAP
3000
1800
0800
0C00
0600
0000
0000
8030
8030
8030
8030
8030
8030
8030
8030
8030
8030
8030
8030
8030
8030
8030
8030
8030
C030
F0E0
3FC0
ENDCHAR
STARTCHAR Uacute
ENCODING 218
SWIDTH 552 0
DWIDTH 18 0
BBX 12 27 3 0
BITMAP
0080
0180
0300
0200
0600
0000
0000
8030
8030
8030
8030
8030
8030
8030
8030
8030
8030
8030
8030
8030
8030
8030
8030
8030
C030
F0E0
3FC0
ENDCHAR
STARTCHAR Ucircumflex
ENCODING 219
SWIDTH 552 0
DWIDTH 18 0
BBX 12 27 3 0
BITMAP
0400
0E00
0B00
1900
1180
0000
0000
8030
8030
8030
8030
8030
8030
8030
8030
8030
8030
8030
8030
8030
8030
8030
8030
8030
C030
F0E0
3FC0
ENDCHAR
STARTCHAR Udieresis
ENCODING 220
SWIDTH 552 0
DWIDTH 18 0
BBX 12 26 3 0
BITMAP
3080
3080
3080
3080
0000
0000
8030
8030
8030
8030
8030
8030
8030
8030
8030
8030
8030
8030
8030
8030
8030
8030
8030
C030
F0E0
3FC0
ENDCHAR
STARTCHAR Yacute
ENCODING 221
SWIDTH 493 0
DWIDTH 16 0
BBX 14 27 1 0
BITMAP
0060
00C0
0180
0180
0300
0000
0000
C00C
C018
6018
6030
3030
3060
1860
08C0
0CC0
0580
0780
0300
0300
0300
0300
0300
0300
0300
0300
0300
ENDCHAR
STARTCHAR Thorn
ENCODING 222
SWIDTH 501 0
DWIDTH 16 0
BBX 10 20 4 0
BITMAP
8000
8000
8000
8000
FF00
C380
8080
80C0
80C0
80C0
80C0
80C0
80C0
80C0
8180
FF00
8000
8000
8000
8000
ENDCHAR
STARTCHAR germandbls
ENCODING 223
SWIDTH 540 0
DWIDTH 17 0
BBX 12 20 3 0
BITMAP
3FC0
F0E0
C020
8030
8030
8030
8030
8020
8060
8780
80E0
8030
8030
8030
8030
8030
8030
8030
80E0
8FC0
ENDCHAR
STARTCHAR agrave
ENCODING 224
SWIDTH 502 0
DWIDTH 16 0
BBX 12 22 2 0
BITMAP
1C00
0C00
0600
0300
0000
0000
3FF0
7030
C030
C030
C030
C030
C030
C030
C030
C030
C030
C030
C030
C070
71F0
3FB0
ENDCHAR
STARTCHAR aacute
ENCODING 225
SWIDTH 502 0
DWIDTH 16 0
BBX 12 22 2 0
BITMAP
00C0
0180
0300
0200
0000
0000
3FF0
7030
C030
C030
C030
C030
C030
C030
C030
C030
C030
C030
C030
C070
71F0
3FB0
ENDCHAR
STARTCHAR acircumflex
ENCODING 226
SWIDTH 502 0
DWIDTH 16 0
BBX 12 22 2 0
BITMAP
0700
0500
0980
1880
0000
0000
3FF0
7030
C030
C030
C030
C030
C030
C030
C030
C030
C030
C030
C030
C070
71F0
3FB0
ENDCHAR
STARTCHAR atilde
ENCODING 227
SWIDTH 504 0
DWIDTH 16 0
BBX 12 22 2 0
BITMAP
11C0
13C0
1240
0C40
0000
0000
3FF0
7030
C030
C030
C030
C030
C030
C030
C030
C030
C030
C030
C030
C070
71F0
3FB0
ENDCHAR
STARTCHAR adieresis
ENCODING 228
SWIDTH 502 0
DWIDTH 16 0
BBX 12 22 2 0
BITMAP
18C0
18C0
18C0
18C0
0000
0000
3FF0
7030
C030
C030
C030
C030
C030
C030
C030
C030
C030
C030
C030
C070
71F0
3FB0
ENDCHAR
STARTCHAR aring
ENCODING 229
SWIDTH 502 0
DWIDTH 16 0
BBX 12 23 2 0
BITMAP
0F00
0980
0880
0880
0880
0F00
0000
3FF0
7030
C030
C030
C030
C030
C030
C030
C030
C030
C030
C030
C030
C070
71F0
3FB0
ENDCHAR
STARTCHAR ae
ENCODING 230
SWIDTH 795 0
DWIDTH 25 0
BBX 21 16 2 0
BITMAP
3F8FE0
01FC70
007018
003008
003008
003008
3FF008
603008
C03FF8
C03000
C03000
C03000
C03000
C07000
71DC00
3F8FF8
ENDCHAR
STARTCHAR ccedilla
ENCODING 231
SWIDTH 394 0
DWIDTH 13 0
BBX 10 22 2 -6
BITMAP
3FC0
7000
C000
C000
C000
C000
C000
C000
C000
C000
C000
C000
C000
C000
7000
3FC0
0600
0C00
0700
0100
0100
0F00
ENDCHAR
STARTCHAR egrave
ENCODING 232
SWIDTH 492 0
DWIDTH 16 0
BBX 12 22 2 0
BITMAP
3800
0800
0C00
0600
0000
0000
3FC0
70E0
C020
C030
C030
C030
C030
C030
FFF0
C000
C000
C000
C000
C000
7000
3FF0
ENDCHAR
STARTCHAR eacute
ENCODING 233
SWIDTH 492 0
DWIDTH 16 0
BBX 12 22 2 0
BITMAP
0180
0300
0200
0400
0000
0000
3FC0
70E0
C020
C030
C030
C030
C030
C030
FFF0
C000
C000
C000
C000
C000
7000
3FF0
ENDCHAR
STARTCHAR ecircumflex
ENCODING 234
SWIDTH 492 0
DWIDTH 16 0
BBX 12 22 2 0
BITMAP
0600
0F00
0900
1080
0000
0000
3FC0
70E0
C020
C030
C030
C030
C030
C030
FFF0
C000
C000
C000
C000
C000
7000
3FF0
ENDCHAR
STARTCHAR edieresis
ENCODING 235
SWIDTH 492 0
DWIDTH 16 0
BBX 12 22 2 0
BITMAP
1080
1080
1080
1080
0000
0000
3FC0
70E0
C020
C030
C030
C030
C030
C030
FFF0
C000
C000
C000
C000
C000
7000
3FF0
ENDCHAR
STARTCHAR igrave
ENCODING 236
SWIDTH 210 0
DWIDTH 7 0
BBX 4 22 0 0
BITMAP
C0
60
60
30
00
00
10
10
10
10
10
10
10
10
10
10
10
10
10
10
10
10
ENDCHAR
STARTCHAR iacute
ENCODING 237
SWIDTH 208 0
DWIDTH 7 0
BBX 4 22 3 0
BITMAP
30
60
40
80
00
00
80
80
80
80
80
80
80
80
80
80
80
80
80
80
80
80
ENDCHAR
STARTCHAR icircumflex
ENCODING 238
SWIDTH 210 0
DWIDTH 7 0
BBX 6 22 0 0
BITMAP
30
28
4C
C4
00
00
10
10
10
10
10
10
10
10
10
10
10
10
10
10
10
10
ENDCHAR
STARTCHAR idieresis
ENCODING 239
SWIDTH 210 0
DWIDTH 7 0
BBX 7 22 0 0
BITMAP
C6
C6
C6
C6
00
00
10
10
10
10
10
10
10
10
10
10
10
10
10
10
10
10
ENDCHAR
STARTCHAR eth
ENCODING 240
SWIDTH 488 0
DWIDTH 16 0
BBX 12 22 2 0
BITMAP
3040
18C0
0F00
0600
0F00
1980
30C0
0060
0060
3FA0
70F0
C070
C030
C030
C030
C030
C030
C030
C030
C060
71E0
3F80
ENDCHAR
STARTCHAR ntilde
ENCODING 241
SWIDTH 507 0
DWIDTH 16 0
BBX 12 22 2 0
BITMAP
1380
1280
1640
1C40
0000
0000
DFC0
F8E0
E030
C030
C030
C030
C030
C030
C030
C030
C030
C030
C030
C030
C030
C030
ENDCHAR
STARTCHAR ograve
ENCODING 242
SWIDTH 496 0
DWIDTH 16 0
BBX 12 22 2 0
BITMAP
3800
1800
0C00
0600
0000
0000
3FC0
70E0
C020
C030
C030
C030
C030
C030
C030
C030
C030
C030
C030
C020
70E0
3FC0
ENDCHAR
STARTCHAR oacute
ENCODING 243
SWIDTH 496 0
DWIDTH 16 0
BBX 12 22 2 0
BITMAP
01C0
0180
0300
0600
0000
0000
3FC0
70E0
C020
C030
C030
C030
C030
C030
C030
C030
C030
C030
C030
C020
70E0
3FC0
ENDCHAR
STARTCHAR ocircumflex
ENCODING 244
SWIDTH 496 0
DWIDTH 16 0
BBX 12 22 2 0
BITMAP
0600
0F00
0900
1180
0000
0000
3FC0
70E0
C020
C030
C030
C030
C030
C030
C030
C030
C030
C030
C030
C020
70E0
3FC0
ENDCHAR
STARTCHAR otilde
ENCODING 245
SWIDTH 496 0
DWIDTH 16 0
BBX 12 22 2 0
BITMAP
2380
2280
3480
1C80
0000
0000
3FC0
70E0
C020
C030
C030
C030
C030
C030
C030
C030
C030
C030
C030
C020
70E0
3FC0
ENDCHAR
STARTCHAR odieresis
ENCODING 246
SWIDTH 496 0
DWIDTH 16 0
BBX 12 22 2 0
BITMAP
1080
1080
1080
1080
0000
0000
3FC0
70E0
C020
C030
C030
C030
C030
C030
C030
C030
C030
C030
C030
C020
70E0
3FC0
ENDCHAR
STARTCHAR divide
ENCODING 247
SWIDTH 510 0
DWIDTH 16 0
BBX 12 12 2 4
BITMAP
0600
0600
0200
0000
0000
FFF0
0000
0000
0000
0600
0600
0600
ENDCHAR
STARTCHAR oslash
ENCODING 248
SWIDTH 521 0
DWIDTH 17 0
BBX 15 16 1 0
BITMAP
0FE0
3C76
301C
2018
6038
6068
60C8
6188
6308
6608
6C08
7808
3018
7018
FC70
0FE0
ENDCHAR
STARTCHAR ugrave
ENCODING 249
SWIDTH 507 0
DWIDTH 16 0
BBX 12 22 2 0
BITMAP
3800
1800
0C00
0600
0000
0000
C030
C030
C030
C030
C030
C030
C030
C030
C030
C030
C030
C030
C030
4030
71F0
3FB0
ENDCHAR
STARTCHAR uacute
ENCODING 250
SWIDTH 507 0
DWIDTH 16 0
BBX 12 22 2 0
BITMAP
01C0
0180
0300
0600
0000
0000
C030
C030
C030
C030
C030
C030
C030
C030
C030
C030
C030
C030
C030
4030
71F0
3FB0
ENDCHAR
STARTCHAR ucircumflex
ENCODING 251
SWIDTH 507 0
DWIDTH 16 0
BBX 12 22 2 0
BITMAP
0600
0F00
0900
1880
0000
0000
C030
C030
C030
C030
C030
C030
C030
C030
C030
C030
C030
C030
C030
4030
71F0
3FB0
ENDCHAR
STARTCHAR udieresis
ENCODING 252
SWIDTH 507 0
DWIDTH 16 0
BBX 12 22 2 0
BITMAP
1080
1080
1080
1080
0000
0000
C030
C030
C030
C030
C030
C030
C030
C030
C030
C030
C030
C030
C030
4030
71F0
3FB0
ENDCHAR
STARTCHAR yacute
ENCODING 253
SWIDTH 459 0
DWIDTH 15 0
BBX 13 26 1 -4
BITMAP
00C0
0180
0100
0200
0000
0000
C018
C010
4030
6030
6020
2060
3060
1040
18C0
18C0
0980
0D80
0D00
0700
0700
0200
0600
0400
3C00
7800
ENDCHAR
STARTCHAR thorn
ENCODING 254
SWIDTH 508 0
DWIDTH 16 0
BBX 11 26 3 -4
BITMAP
8000
8000
8000
8000
8000
8000
BF80
F1C0
C060
8060
8020
8020
8020
8020
8020
8020
8020
8020
8060
C060
F1C0
BF80
8000
8000
8000
8000
ENDCHAR
STARTCHAR ydieresis
ENCODING 255
SWIDTH 459 0
DWIDTH 15 0
BBX 13 26 1 -4
BITMAP
18C0
18C0
18C0
18C0
0000
0000
C018
C010
4030
6030
6020
2060
3060
1040
18C0
18C0
0980
0D80
0D00
0700
0700
0200
0600
0400
3C00
7800
ENDCHAR
STARTCHAR Amacron
ENCODING 256
SWIDTH 532 0
DWIDTH 17 0
BBX 15 25 1 0
BITMAP
0FE0
0000
0000
0000
0000
0380
0380
0280
06C0
06C0
0440
0C60
0C60
0820
1830
1830
1010
3018
3FF8
2008
600C
600C
4004
C006
C006
ENDCHAR
STARTCHAR amacron
ENCODING 257
SWIDTH 502 0
DWIDTH 16 0
BBX 12 20 2 0
BITMAP
1FC0
0000
0000
0000
3FF0
7030
C030
C030
C030
C030
C030
C030
C030
C030
C030
C030
C030
C070
71F0
3FB0
ENDCHAR
STARTCHAR Abreve
ENCODING 258
SWIDTH 532 0
DWIDTH 17 0
BBX 15 27 1 0
BITMAP
0820
0C20
0C60
0440
0780
0000
0000
0380
0380
0280
06C0
06C0
0440
0C60
0C60
0820
1830
1830
1010
3018
3FF8
2008
600C
600C
4004
C006
C006
ENDCHAR
STARTCHAR abreve
ENCODING 259
SWIDTH 502 0
DWIDTH 16 0
BBX 12 22 2 0
BITMAP
1840
1840
0880
0780
0000
0000
3FF0
7030
C030
C030
C030
C030
C030
C030
C030
C030
C030
C030
C030
C070
71F0
3FB0
ENDCHAR
STARTCHAR Aogonek
ENCODING 260
SWIDTH 532 0
DWIDTH 17 0
BBX 15 23 1 -3
BITMAP
0380
0380
0280
06C0
06C0
0440
0C60
0C60
0820
1830
1830
1010
3018
3FF8
2008
600C
600C
4004
C006
C006
000C
0008
001C
ENDCHAR
STARTCHAR aogonek
ENCODING 261
SWIDTH 502 0
DWIDTH 16 0
BBX 12 19 2 -3
BITMAP
3FF0
7030
C030
C030
C030
C030
C030
C030
C030
C030
C030
C030
C030
C070
71F0
3FB0
0040
0080
00E0
ENDCHAR
STARTCHAR Cacute
ENCODING 262
SWIDTH 542 0
DWIDTH 17 0
BBX 13 27 2 0
BITMAP
0040
00C0
0180
0100
0300
0000
0000
1FE0
7870
6018
C008
C008
C008
C000
C000
C000
C000
C000
C000
C000
C000
C008
C008
C008
6018
7870
3FE0
ENDCHAR
STARTCHAR cacute
ENCODING 263
SWIDTH 394 0
DWIDTH 13 0
BBX 10 22 2 0
BITMAP
0380
0300
0600
0400
0000
0000
3FC0
7000
C000
C000
C000
C000
C000
C000
C000
C000
C000
C000
C000
C000
7000
3FC0
ENDCHAR
STARTCHAR Cdotaccent
ENCODING 266
SWIDTH 542 0
DWIDTH 17 0
BBX 13 26 2 0
BITMAP
0300
0300
0300
0300
0000
0000
1FE0
7870
6018
C008
C008
C008
C000
C000
C000
C000
C000
C000
C000
C000
C008
C008
C008
6018
7870
3FE0
ENDCHAR
STARTCHAR cdotaccent
ENCODING 267
SWIDTH 394 0
DWIDTH 13 0
BBX 10 22 2 0
BITMAP
0400
0400
0400
0400
0000
0000
3FC0
7000
C000
C000
C000
C000
C000
C000
C000
C000
C000
C000
C000
C000
7000
3FC0
ENDCHAR
STARTCHAR Ccaron
ENCODING 268
SWIDTH 542 0
DWIDTH 17 0
BBX 13 27 2 0
BITMAP
0840
0CC0
0480
0780
0300
0000
0000
1FE0
7870
6018
C008
C008
C008
C000
C000
C000
C000
C000
C000
C000
C000
C008
C008
C008
6018
7870
3FE0
ENDCHAR
STARTCHAR ccaron
ENCODING 269
SWIDTH 394 0
DWIDTH 13 0
BBX 10 22 2 0
BITMAP
3180
1B00
0A00
0E00
0000
0000
3FC0
7000
C000
C000
C000
C000
C000
C000
C000
C000
C000
C000
C000
C000
7000
3FC0
ENDCHAR
STARTCHAR Dcaron
ENCODING 270
SWIDTH 557 0
DWIDTH 18 0
BBX 12 27 3 0
BITMAP
1080
1100
0900
0A00
0600
0000
0000
FFC0
C0E0
8030
8010
8010
8010
8010
8010
8010
8010
8010
8010
8010
8010
8010
8010
8010
8030
C0F0
FFC0
ENDCHAR
STARTCHAR dcaron
ENCODING 271
SWIDTH 534 0
DWIDTH 17 0
BBX 15 22 2 0
BITMAP
0032
0032
0032
0032
0032
0032
3FB4
6070
C030
C030
C030
C030
C030
C030
C030
C030
C030
C030
C030
C070
71F0
3FB0
ENDCHAR
STARTCHAR Dcroat
ENCODING 272
SWIDTH 514 0
DWIDTH 16 0
BBX 15 20 1 0
BITMAP
3FF0
303C
200C
2004
2006
2006
2006
2006
FF86
3006
2006
2006
2006
2006
2006
2006
2004
200C
303C
3FF0
ENDCHAR
STARTCHAR dcroat
ENCODING 273
SWIDTH 539 0
DWIDTH 17 0
BBX 14 22 2 0
BITMAP
0030
0030
0030
0FFC
0030
0030
0030
0030
3FB0
60F0
C030
C030
C030
C030
C030
C030
C030
C030
C030
C070
71F0
3FB0
ENDCHAR
STARTCHAR Emacron
ENCODING 274
SWIDTH 481 0
DWIDTH 15 0
BBX 10 25 3 0
BITMAP
7F80
0000
0000
0000
0000
FFC0
C000
8000
8000
8000
8000
8000
8000
8000
FF80
8000
8000
8000
8000
8000
8000
8000
8000
C000
FFC0
ENDCHAR
STARTCHAR emacron
ENCODING 275
SWIDTH 492 0
DWIDTH 16 0
BBX 12 20 2 0
BITMAP
3FC0
0000
0000
0000
3FC0
70E0
C020
C030
C030
C030
C030
C030
FFF0
C000
C000
C000
C000
C000
7000
3FF0
ENDCHAR
STARTCHAR Ebreve
ENCODING 276
SWIDTH 481 0
DWIDTH 15 0
BBX 10 27 3 0
BITMAP
2100
2100
2100
2300
1E00
0000
0000
FFC0
C000
8000
8000
8000
8000
8000
8000
8000
FF80
8000
8000
8000
8000
8000
8000
8000
8000
C000
FFC0
ENDCHAR
STARTCHAR ebreve
ENCODING 277
SWIDTH 492 0
DWIDTH 16 0
BBX 12 22 2 0
BITMAP
1080
1080
1180
0F00
0000
0000
3FC0
70E0
C020
C030
C030
C030
C030
C030
FFF0
C000
C000
C000
C000
C000
7000
3FF0
ENDCHAR
STARTCHAR Edotaccent
ENCODING 278
SWIDTH 496 0
DWIDTH 16 0
BBX 10 26 3 0
BITMAP
0C00
0C00
0C00
0C00
0000
0000
FFC0
C000
8000
8000
8000
8000
8000
8000
8000
FF80
8000
8000
8000
8000
8000
8000
8000
8000
C000
FFC0
ENDCHAR
STARTCHAR edotaccent
ENCODING 279
SWIDTH 492 0
DWIDTH 16 0
BBX 12 22 2 0
BITMAP
0600
0600
0600
0600
0000
0000
3FC0
70E0
C020
C030
C030
C030
C030
C030
FFF0
C000
C000
C000
C000
C000
7000
3FF0
ENDCHAR
STARTCHAR Eogonek
ENCODING 280
SWIDTH 481 0
DWIDTH 15 0
BBX 10 23 3 -3
BITMAP
FFC0
C000
8000
8000
8000
8000
8000
8000
8000
FF80
8000
8000
8000
8000
8000
8000
8000
8000
C000
FFC0
0100
0200
0780
ENDCHAR
STARTCHAR eogonek
ENCODING 281
SWIDTH 492 0
DWIDTH 16 0
BBX 12 19 2 -3
BITMAP
3FC0
70E0
C020
C030
C030
C030
C030
C030
FFF0
C000
C000
C000
C000
C000
7000
3FF0
0080
0100
01C0
ENDCHAR
STARTCHAR Ecaron
ENCODING 282
SWIDTH 481 0
DWIDTH 15 0
BBX 10 27 3 0
BITMAP
2100
3300
1200
1E00
0C00
0000
0000
FFC0
C000
8000
8000
8000
8000
8000
8000
8000
FF80
8000
8000
8000
8000
8000
8000
8000
8000
C000
FFC0
ENDCHAR
STARTCHAR ecaron
ENCODING 283
SWIDTH 492 0
DWIDTH 16 0
BBX 12 22 2 0
BITMAP
1080
0900
0F00
0600
0000
0000
3FC0
70E0
C020
C030
C030
C030
C030
C030
FFF0
C000
C000
C000
C000
C000
7000
3FF0
ENDCHAR
STARTCHAR Gcircumflex
ENCODING 284
SWIDTH 539 0
DWIDTH 17 0
BBX 13 27 2 0
BITMAP
0200
0700
0580
0C80
08C0
0000
0000
1FE0
7870
6018
C018
C018
C018
C000
C000
C000
C000
C1F8
C018
C018
C018
C018
C018
C018
6018
7870
3FE0
ENDCHAR
STARTCHAR gcircumflex
ENCODING 285
SWIDTH 506 0
DWIDTH 16 0
BBX 12 26 2 -4
BITMAP
0700
0500
0C80
18C0
0000
0000
3FF0
7030
C030
C030
C030
C030
C030
C030
C030
C030
C030
C030
6070
3FB0
0030
0030
0030
0030
00E0
7FC0
ENDCHAR
STARTCHAR Gbreve
ENCODING 286
SWIDTH 539 0
DWIDTH 17 0
BBX 13 27 2 0
BITMAP
0840
1840
0840
0880
0780
0000
0000
1FE0
7870
6018
C018
C018
C018
C000
C000
C000
C000
C1F8
C018
C018
C018
C018
C018
C018
6018
7870
3FE0
ENDCHAR
STARTCHAR gbreve
ENCODING 287
SWIDTH 506 0
DWIDTH 16 0
BBX 12 26 2 -4
BITMAP
0840
0840
08C0
0780
0000
0000
3FF0
7030
C030
C030
C030
C030
C030
C030
C030
C030
C030
C030
6070
3FB0
0030
0030
0030
0030
00E0
7FC0
ENDCHAR
STARTCHAR Gdotaccent
ENCODING 288
SWIDTH 539 0
DWIDTH 17 0
BBX 13 26 2 0
BITMAP
0200
0200
0200
0200
0000
0000
1FE0
7870
6018
C018
C018
C018
C000
C000
C000
C000
C1F8
C018
C018
C018
C018
C018
C018
6018
7870
3FE0
ENDCHAR
STARTCHAR gdotaccent
ENCODING 289
SWIDTH 506 0
DWIDTH 16 0
BBX 12 26 2 -4
BITMAP
0300
0300
0300
0300
0000
0000
3FF0
7030
C030
C030
C030
C030
C030
C030
C030
C030
C030
C030
6070
3FB0
0030
0030
0030
0030
00E0
7FC0
ENDCHAR
STARTCHAR uni0122
ENCODING 290
SWIDTH 539 0
DWIDTH 17 0
BBX 13 27 2 -7
BITMAP
1FE0
7870
6018
C018
C018
C018
C000
C000
C000
C000
C1F8
C018
C018
C018
C018
C018
C018
6018
7870
3FE0
0000
0300
0300
0300
0300
0200
0200
ENDCHAR
STARTCHAR uni0123
ENCODING 291
SWIDTH 506 0
DWIDTH 16 0
BBX 12 29 2 -4
BITMAP
0100
0100
0300
0300
0300
0300
0000
0000
0000
3FF0
7030
C030
C030
C030
C030
C030
C030
C030
C030
C030
C030
6070
3FB0
0030
0030
0030
0030
00E0
7FC0
ENDCHAR
STARTCHAR hcircumflex
ENCODING 293
SWIDTH 507 0
DWIDTH 16 0
BBX 12 24 2 0
BITMAP
0300
0500
CC80
C8C0
C000
C000
C000
C000
DFC0
F8E0
E030
C030
C030
C030
C030
C030
C030
C030
C030
C030
C030
C030
C030
C030
ENDCHAR
STARTCHAR Hbar
ENCODING 294
SWIDTH 523 0
DWIDTH 17 0
BBX 17 20 1 0
BITMAP
200600
200600
200600
200600
FFFF80
300600
200600
200600
200600
3FFE00
300600
200600
200600
200600
200600
200600
200600
200600
200600
200600
ENDCHAR
STARTCHAR hbar
ENCODING 295
SWIDTH 544 0
DWIDTH 17 0
BBX 14 22 1 0
BITMAP
3000
3000
3000
FFC0
3000
3000
3000
3000
37F0
3C18
380C
300C
3004
3004
3004
3004
3004
3004
3004
3004
3004
3004
ENDCHAR
STARTCHAR Itilde
ENCODING 296
SWIDTH 230 0
DWIDTH 7 0
BBX 7 26 0 0
BITMAP
8E
9A
92
72
00
00
10
10
10
10
10
10
10
10
10
10
10
10
10
10
10
10
10
10
10
10
ENDCHAR
STARTCHAR itilde
ENCODING 297
SWIDTH 210 0
DWIDTH 7 0
BBX 7 22 0 0
BITMAP
8C
9E
92
E2
00
00
10
10
10
10
10
10
10
10
10
10
10
10
10
10
10
10
ENDCHAR
STARTCHAR Imacron
ENCODING 298
SWIDTH 230 0
DWIDTH 7 0
BBX 7 25 0 0
BITMAP
FE
00
00
00
00
10
10
10
10
10
10
10
10
10
10
10
10
10
10
10
10
10
10
10
10
ENDCHAR
STARTCHAR imacron
ENCODING 299
SWIDTH 208 0
DWIDTH 7 0
BBX 7 20 0 0
BITMAP
FE
00
00
00
10
10
10
10
10
10
10
10
10
10
10
10
10
10
10
10
ENDCHAR
STARTCHAR Ibreve
ENCODING 300
SWIDTH 231 0
DWIDTH 7 0
BBX 6 27 1 0
BITMAP
84
84
8C
88
78
00
00
20
20
20
20
20
20
20
20
20
20
20
20
20
20
20
20
20
20
20
20
ENDCHAR
STARTCHAR ibreve
ENCODING 301
SWIDTH 211 0
DWIDTH 7 0
BBX 7 22 0 0
BITMAP
86
86
44
78
00
00
10
10
10
10
10
10
10
10
10
10
10
10
10
10
10
10
ENDCHAR
STARTCHAR Iogonek
ENCODING 302
SWIDTH 230 0
DWIDTH 7 0
BBX 3 23 1 -3
BITMAP
20
20
20
20
20
20
20
20
20
20
20
20
20
20
20
20
20
20
20
20
40
40
E0
ENDCHAR
STARTCHAR iogonek
ENCODING 303
SWIDTH 210 0
DWIDTH 7 0
BBX 3 25 1 -3
BITMAP
20
20
20
20
00
00
20
20
20
20
20
20
20
20
20
20
20
20
20
20
20
20
40
80
E0
ENDCHAR
STARTCHAR Idotaccent
ENCODING 304
SWIDTH 230 0
DWIDTH 7 0
BBX 1 25 3 0
BITMAP
80
80
80
80
00
80
80
80
80
80
80
80
80
80
80
80
80
80
80
80
80
80
80
80
80
ENDCHAR
STARTCHAR dotlessi
ENCODING 305
SWIDTH 212 0
DWIDTH 7 0
BBX 1 16 3 0
BITMAP
80
80
80
80
80
80
80
80
80
80
80
80
80
80
80
80
ENDCHAR
STARTCHAR IJ
ENCODING 306
SWIDTH 721 0
DWIDTH 23 0
BBX 18 20 3 0
BITMAP
C000C0
C000C0
C000C0
C000C0
C000C0
C000C0
C000C0
C000C0
C000C0
C000C0
C000C0
C000C0
C000C0
C600C0
C600C0
C600C0
C600C0
C30180
C3C780
C0FF00
ENDCHAR
STARTCHAR ij
ENCODING 307
SWIDTH 419 0
DWIDTH 13 0
BBX 8 26 3 -4
BITMAP
83
83
83
83
00
00
83
83
83
83
83
83
83
83
83
83
83
83
83
83
83
83
03
03
0E
3C
ENDCHAR
STARTCHAR Jcircumflex
ENCODING 308
SWIDTH 494 0
DWIDTH 16 0
BBX 15 27 1 0
BITMAP
0010
0028
0028
0044
00C6
0000
0000
0010
0010
0010
0010
0010
0010
0010
0010
0010
0010
0010
0010
0010
C010
C010
C010
C010
4030
70E0
3FC0
ENDCHAR
STARTCHAR jcircumflex
ENCODING 309
SWIDTH 209 0
DWIDTH 7 0
BBX 8 26 -2 -4
BITMAP
0C
0A
13
31
00
00
04
04
04
04
04
04
04
04
04
04
04
04
04
04
04
04
0C
0C
38
F0
ENDCHAR
STARTCHAR uni0136
ENCODING 310
SWIDTH 530 0
DWIDTH 17 0
BBX 13 28 3 -8
BITMAP
8030
8060
80C0
80C0
8180
8300
8600
8600
8C00
9C00
B600
A200
C300
C180
80C0
80C0
8060
8030
8030
8018
0000
0200
0200
0200
0200
0200
0400
0400
ENDCHAR
STARTCHAR uni0137
ENCODING 311
SWIDTH 431 0
DWIDTH 14 0
BBX 11 29 2 -7
BITMAP
C000
C000
C000
C000
C000
C000
C060
C0C0
C180
C180
C300
C600
C600
CC00
CC00
C600
C300
C100
C180
C0C0
C060
C060
0000
0400
0400
0400
0400
0400
0400
ENDCHAR
STARTCHAR Lacute
ENCODING 313
SWIDTH 451 0
DWIDTH 14 0
BBX 11 27 3 0
BITMAP
1000
3000
6000
4000
C000
0000
0000
8000
8000
8000
8000
8000
8000
8000
8000
8000
8000
8000
8000
8000
8000
8000
8000
8000
8000
C000
FFE0
ENDCHAR
STARTCHAR lacute
ENCODING 314
SWIDTH 207 0
DWIDTH 7 0
BBX 4 28 3 0
BITMAP
30
60
60
C0
80
00
80
80
80
80
80
80
80
80
80
80
80
80
80
80
80
80
80
80
80
80
80
80
ENDCHAR
STARTCHAR uni013B
ENCODING 315
SWIDTH 451 0
DWIDTH 14 0
BBX 11 27 3 -7
BITMAP
8000
8000
8000
8000
8000
8000
8000
8000
8000
8000
8000
8000
8000
8000
8000
8000
8000
8000
C000
FFE0
0000
0C00
0C00
0C00
0C00
0800
0800
ENDCHAR
STARTCHAR uni013C
ENCODING 316
SWIDTH 211 0
DWIDTH 7 0
BBX 1 29 3 -7
BITMAP
80
80
80
80
80
80
80
80
80
80
80
80
80
80
80
80
80
80
80
80
80
80
00
80
80
80
80
80
80
ENDCHAR
STARTCHAR Lcaron
ENCODING 317
SWIDTH 451 0
DWIDTH 14 0
BBX 11 20 3 0
BITMAP
8180
8180
8180
8100
8100
8100
8100
8000
8000
8000
8000
8000
8000
8000
8000
8000
8000
8000
C000
FFE0
ENDCHAR
STARTCHAR lcaron
ENCODING 318
SWIDTH 274 0
DWIDTH 9 0
BBX 5 22 3 0
BITMAP
88
88
88
88
88
88
90
80
80
80
80
80
80
80
80
80
80
80
80
80
80
80
ENDCHAR
STARTCHAR Ldot
ENCODING 319
SWIDTH 500 0
DWIDTH 16 0
BBX 11 20 3 0
BITMAP
8000
8000
8000
8000
8000
8000
8000
8000
8300
8300
8300
8300
8000
8000
8000
8000
8000
8000
C000
FFE0
ENDCHAR
STARTCHAR ldot
ENCODING 320
SWIDTH 314 0
DWIDTH 10 0
BBX 6 22 3 0
BITMAP
80
80
80
80
80
80
80
80
80
80
8C
8C
8C
8C
80
80
80
80
80
80
80
80
ENDCHAR
STARTCHAR Lslash
ENCODING 321
SWIDTH 504 0
DWIDTH 16 0
BBX 14 20 0 0
BITMAP
1800
1800
1800
1800
1900
1B00
1C00
3800
F800
9800
1800
1800
1800
1800
1800
1800
1800
1800
1800
1FFC
ENDCHAR
STARTCHAR lslash
ENCODING 322
SWIDTH 296 0
DWIDTH 9 0
BBX 8 22 1 0
BITMAP
18
18
18
18
18
18
19
1F
1C
78
D8
98
18
18
18
18
18
18
18
18
18
18
ENDCHAR
STARTCHAR Nacute
ENCODING 323
SWIDTH 579 0
DWIDTH 19 0
BBX 13 27 3 0
BITMAP
0040
00C0
0180
0100
0200
0000
0000
8018
C018
E018
E018
B018
9018
9818
8C18
8C18
8618
8218
8318
8198
8098
80D8
8058
8078
8038
8018
8018
ENDCHAR
STARTCHAR nacute
ENCODING 324
SWIDTH 507 0
DWIDTH 16 0
BBX 12 22 2 0
BITMAP
00C0
0180
0300
0200
0000
0000
DFC0
F8E0
E030
C030
C030
C030
C030
C030
C030
C030
C030
C030
C030
C030
C030
C030
ENDCHAR
STARTCHAR uni0145
ENCODING 325
SWIDTH 579 0
DWIDTH 19 0
BBX 13 27 3 -7
BITMAP
8018
C018
E018
E018
B018
9018
9818
8C18
8C18
8618
8218
8318
8198
8098
80D8
8058
8078
8038
8018
8018
0000
0200
0200
0200
0200
0400
0400
ENDCHAR
STARTCHAR uni0146
ENCODING 326
SWIDTH 505 0
DWIDTH 16 0
BBX 12 23 2 -7
BITMAP
DFC0
F8E0
E030
C030
C030
C030
C030
C030
C030
C030
C030
C030
C030
C030
C030
C030
0000
0600
0600
0600
0600
0400
0400
ENDCHAR
STARTCHAR Ncaron
ENCODING 327
SWIDTH 579 0
DWIDTH 19 0
BBX 13 27 3 0
BITMAP
1080
0880
0D80
0500
0600
0000
0000
8018
C018
E018
E018
B018
9018
9818
8C18
8C18
8618
8218
8318
8198
8098
80D8
8058
8078
8038
8018
8018
ENDCHAR
STARTCHAR ncaron
ENCODING 328
SWIDTH 507 0
DWIDTH 16 0
BBX 12 22 2 0
BITMAP
1880
0980
0500
0600
0000
0000
DFC0
F8E0
E030
C030
C030
C030
C030
C030
C030
C030
C030
C030
C030
C030
C030
C030
ENDCHAR
STARTCHAR Eng
ENCODING 330
SWIDTH 519 0
DWIDTH 17 0
BBX 13 24 3 -4
BITMAP
C018
C018
E018
A018
B018
9818
9818
8C18
8418
8618
8318
8318
8198
8098
80D8
8058
8078
8038
8018
8018
0018
0018
0070
01E0
ENDCHAR
STARTCHAR eng
ENCODING 331
SWIDTH 507 0
DWIDTH 16 0
BBX 12 20 2 -4
BITMAP
DFC0
F8E0
E030
C030
C030
C030
C030
C030
C030
C030
C030
C030
C030
C030
C030
C030
0030
0030
00E0
03C0
ENDCHAR
STARTCHAR Omacron
ENCODING 332
SWIDTH 553 0
DWIDTH 18 0
BBX 13 25 2 0
BITMAP
1FC0
0000
0000
0000
0000
1FE0
7870
6018
C008
C008
C008
C008
C008
C008
C008
C008
C008
C008
C008
C008
C008
C008
6018
7870
3FE0
ENDCHAR
STARTCHAR omacron
ENCODING 333
SWIDTH 496 0
DWIDTH 16 0
BBX 12 20 2 0
BITMAP
3FC0
0000
0000
0000
3FC0
70E0
C020
C030
C030
C030
C030
C030
C030
C030
C030
C030
C030
C020
70E0
3FC0
ENDCHAR
STARTCHAR Obreve
ENCODING 334
SWIDTH 553 0
DWIDTH 18 0
BBX 13 27 2 0
BITMAP
0840
0840
0840
08C0
0780
0000
0000
1FE0
7870
6018
C008
C008
C008
C008
C008
C008
C008
C008
C008
C008
C008
C008
C008
C008
6018
7870
3FE0
ENDCHAR
STARTCHAR obreve
ENCODING 335
SWIDTH 496 0
DWIDTH 16 0
BBX 12 22 2 0
BITMAP
1080
1080
1180
0F00
0000
0000
3FC0
70E0
C020
C030
C030
C030
C030
C030
C030
C030
C030
C030
C030
C020
70E0
3FC0
ENDCHAR
STARTCHAR Ohungarumlaut
ENCODING 336
SWIDTH 553 0
DWIDTH 18 0
BBX 13 26 2 0
BITMAP
0330
0220
0440
0CC0
0000
0000
1FE0
7870
6018
C008
C008
C008
C008
C008
C008
C008
C008
C008
C008
C008
C008
C008
C008
6018
7870
3FE0
ENDCHAR
STARTCHAR ohungarumlaut
ENCODING 337
SWIDTH 496 0
DWIDTH 16 0
BBX 12 22 2 0
BITMAP
0660
0440
0CC0
1980
0000
0000
3FC0
70E0
C020
C030
C030
C030
C030
C030
C030
C030
C030
C030
C030
C020
70E0
3FC0
ENDCHAR
STARTCHAR OE
ENCODING 338
SWIDTH 775 0
DWIDTH 25 0
BBX 20 20 2 0
BITMAP
1FFFF0
783000
602000
C02000
C02000
C02000
C02000
C02000
C02000
C03FE0
C03000
C02000
C02000
C02000
C02000
C02000
C02000
602000
783000
1FFFF0
ENDCHAR
STARTCHAR oe
ENCODING 339
SWIDTH 812 0
DWIDTH 26 0
BBX 22 16 2 0
BITMAP
3F87F0
70FC38
C0300C
C0300C
C0300C
C0300C
C0300C
C0300C
C03FFC
C03000
C03000
C03000
C03000
C03000
70FC00
3FCFFC
ENDCHAR
STARTCHAR Racute
ENCODING 340
SWIDTH 534 0
DWIDTH 17 0
BBX 12 27 3 0
BITMAP
0180
0300
0600
0600
0C00
0000
0000
FFC0
C0E0
8030
8030
8030
8030
8030
8030
8030
8060
FFC0
8180
8180
8080
80C0
8040
8060
8020
8030
8030
ENDCHAR
STARTCHAR racute
ENCODING 341
SWIDTH 313 0
DWIDTH 10 0
BBX 7 22 2 0
BITMAP
0E
08
18
30
00
00
CE
F8
E0
C0
C0
C0
C0
C0
C0
C0
C0
C0
C0
C0
C0
C0
ENDCHAR
STARTCHAR uni0156
ENCODING 342
SWIDTH 534 0
DWIDTH 17 0
BBX 12 27 3 -7
BITMAP
FFC0
C0E0
8030
8030
8030
8030
8030
8030
8030
8060
FFC0
8180
8180
8080
80C0
8040
8060
8020
8030
8030
0000
0400
0400
0400
0400
0400
0400
ENDCHAR
STARTCHAR uni0157
ENCODING 343
SWIDTH 313 0
DWIDTH 10 0
BBX 7 23 2 -7
BITMAP
CE
F8
E0
C0
C0
C0
C0
C0
C0
C0
C0
C0
C0
C0
C0
C0
00
C0
C0
C0
C0
80
80
ENDCHAR
STARTCHAR Rcaron
ENCODING 344
SWIDTH 534 0
DWIDTH 17 0
BBX 12 27 3 0
BITMAP
2100
3300
1200
1E00
0C00
0000
0000
FFC0
C0E0
8030
8030
8030
8030
8030
8030
8030
8060
FFC0
8180
8180
8080
80C0
8040
8060
8020
8030
8030
ENDCHAR
STARTCHAR rcaron
ENCODING 345
SWIDTH 313 0
DWIDTH 10 0
BBX 7 22 2 0
BITMAP
C6
64
28
38
00
00
CE
F8
E0
C0
C0
C0
C0
C0
C0
C0
C0
C0
C0
C0
C0
C0
ENDCHAR
STARTCHAR Sacute
ENCODING 346
SWIDTH 562 0
DWIDTH 18 0
BBX 12 27 3 0
BITMAP
0080
0180
0300
0200
0600
0000
0000
3FC0
70E0
C030
8010
8010
8010
8000
C000
E000
3E00
07C0
0070
0030
0010
8010
8010
8010
C030
70E0
3FC0
ENDCHAR
STARTCHAR sacute
ENCODING 347
SWIDTH 427 0
DWIDTH 14 0
BBX 10 22 2 0
BITMAP
0300
0600
0C00
0800
0000
0000
7F80
E000
C000
8000
8000
C000
7000
1E00
0780
00C0
00C0
00C0
00C0
00C0
0380
FF00
ENDCHAR
STARTCHAR Scircumflex
ENCODING 348
SWIDTH 562 0
DWIDTH 18 0
BBX 12 27 3 0
BITMAP
0400
0600
0900
0900
1080
0000
0000
3FC0
70E0
C030
8010
8010
8010
8000
C000
E000
3E00
07C0
0070
0030
0010
8010
8010
8010
C030
70E0
3FC0
ENDCHAR
STARTCHAR scircumflex
ENCODING 349
SWIDTH 427 0
DWIDTH 14 0
BBX 10 22 2 0
BITMAP
0C00
1400
3200
2300
0000
0000
7F80
E000
C000
8000
8000
C000
7000
1E00
0780
00C0
00C0
00C0
00C0
00C0
0380
FF00
ENDCHAR
STARTCHAR uni015E
ENCODING 350
SWIDTH 562 0
DWIDTH 18 0
BBX 12 26 3 -6
BITMAP
3FC0
70E0
C030
8010
8010
8010
8000
C000
E000
3E00
07C0
0070
0030
0010
8010
8010
8010
C030
70E0
3FC0
0200
0700
0100
0180
0100
0700
ENDCHAR
STARTCHAR uni015F
ENCODING 351
SWIDTH 427 0
DWIDTH 14 0
BBX 10 22 2 -6
BITMAP
7F80
E000
C000
8000
8000
C000
7000
1C00
0780
00C0
00C0
00C0
00C0
00C0
03C0
FF00
0800
1E00
0600
0200
0200
1E00
ENDCHAR
STARTCHAR Scaron
ENCODING 352
SWIDTH 562 0
DWIDTH 18 0
BBX 12 27 3 0
BITMAP
1080
1980
0900
0F00
0600
0000
0000
3FC0
70E0
C030
8010
8010
8010
8000
C000
E000
3E00
07C0
0070
0030
0010
8010
8010
8010
C030
70E0
3FC0
ENDCHAR
STARTCHAR scaron
ENCODING 353
SWIDTH 427 0
DWIDTH 14 0
BBX 10 22 2 0
BITMAP
2300
3200
1400
0C00
0000
0000
7F80
E000
C000
8000
8000
C000
7000
1E00
0780
00C0
00C0
00C0
00C0
00C0
0380
FF00
ENDCHAR
STARTCHAR uni0162
ENCODING 354
SWIDTH 420 0
DWIDTH 13 0
BBX 12 28 1 -8
BITMAP
FFF0
0600
0600
0600
0600
0600
0600
0600
0600
0600
0600
0600
0600
0600
0600
0600
0600
0600
0600
0600
0000
0600
0600
0600
0400
0400
0400
0400
ENDCHAR
STARTCHAR uni0163
ENCODING 355
SWIDTH 347 0
DWIDTH 11 0
BBX 9 27 1 -8
BITMAP
3000
3000
3000
FF00
3000
3000
3000
3000
3000
3000
3000
3000
3000
3000
3000
3000
1800
1E00
0780
0000
0400
0400
0400
0400
0400
0400
0400
ENDCHAR
STARTCHAR Tcaron
ENCODING 356
SWIDTH 420 0
DWIDTH 13 0
BBX 12 27 1 0
BITMAP
1080
1100
0900
0A00
0600
0000
0000
FFF0
0600
0600
0600
0600
0600
0600
0600
0600
0600
0600
0600
0600
0600
0600
0600
0600
0600
0600
0600
ENDCHAR
STARTCHAR tcaron
ENCODING 357
SWIDTH 396 0
DWIDTH 13 0
BBX 11 20 1 0
BITMAP
0020
3020
3020
3020
FF20
3020
3020
3000
3000
3000
3000
3000
3000
3000
3000
3000
3000
1800
1E00
0780
ENDCHAR
STARTCHAR Tbar
ENCODING 358
SWIDTH 501 0
DWIDTH 16 0
BBX 12 20 1 0
BITMAP
FFF0
0600
0600
0600
0600
0600
0600
0600
0600
7FE0
0600
0600
0600
0600
0600
0600
0600
0600
0600
0600
ENDCHAR
STARTCHAR tbar
ENCODING 359
SWIDTH 350 0
DWIDTH 11 0
BBX 9 19 1 0
BITMAP
3000
3000
3000
FF80
3000
3000
3000
3000
3000
FF80
3000
3000
3000
3000
3000
3000
1800
1E00
0780
ENDCHAR
STARTCHAR Utilde
ENCODING 360
SWIDTH 552 0
DWIDTH 18 0
BBX 12 26 3 0
BITMAP
2380
2680
3480
1C80
0000
0000
8030
8030
8030
8030
8030
8030
8030
8030
8030
8030
8030
8030
8030
8030
8030
8030
8030
C030
F0E0
3FC0
ENDCHAR
STARTCHAR utilde
ENCODING 361
SWIDTH 507 0
DWIDTH 16 0
BBX 12 22 2 0
BITMAP
1380
1280
1480
1C80
0000
0000
C030
C030
C030
C030
C030
C030
C030
C030
C030
C030
C030
C030
C030
4030
71F0
3FB0
ENDCHAR
STARTCHAR Umacron
ENCODING 362
SWIDTH 552 0
DWIDTH 18 0
BBX 12 25 3 0
BITMAP
3F80
0000
0000
0000
0000
8030
8030
8030
8030
8030
8030
8030
8030
8030
8030
8030
8030
8030
8030
8030
8030
8030
C030
F0E0
3FC0
ENDCHAR
STARTCHAR umacron
ENCODING 363
SWIDTH 507 0
DWIDTH 16 0
BBX 12 20 2 0
BITMAP
3FC0
0000
0000
0000
C030
C030
C030
C030
C030
C030
C030
C030
C030
C030
C030
C030
C030
4030
71F0
3FB0
ENDCHAR
STARTCHAR Ubreve
ENCODING 364
SWIDTH 552 0
DWIDTH 18 0
BBX 12 27 3 0
BITMAP
1080
1080
1080
1180
0F00
0000
0000
8030
8030
8030
8030
8030
8030
8030
8030
8030
8030
8030
8030
8030
8030
8030
8030
8030
C030
F0E0
3FC0
ENDCHAR
STARTCHAR ubreve
ENCODING 365
SWIDTH 507 0
DWIDTH 16 0
BBX 12 22 2 0
BITMAP
1080
1080
1880
0F00
0000
0000
C030
C030
C030
C030
C030
C030
C030
C030
C030
C030
C030
C030
C030
4030
71F0
3FB0
ENDCHAR
STARTCHAR Uring
ENCODING 366
SWIDTH 552 0
DWIDTH 18 0
BBX 12 28 3 0
BITMAP
0F00
1900
1100
1100
1900
0F00
0000
0000
8030
8030
8030
8030
8030
8030
8030
8030
8030
8030
8030
8030
8030
8030
8030
8030
8030
C030
F0E0
3FC0
ENDCHAR
STARTCHAR uring
ENCODING 367
SWIDTH 507 0
DWIDTH 16 0
BBX 12 23 2 0
BITMAP
1F00
1100
1100
1100
1100
1F00
0000
C030
C030
C030
C030
C030
C030
C030
C030
C030
C030
C030
C030
C030
4030
71F0
3FB0
ENDCHAR
STARTCHAR Uhungarumlaut
ENCODING 368
SWIDTH 552 0
DWIDTH 18 0
BBX 12 26 3 0
BITMAP
0660
0CC0
0880
1900
0000
0000
8030
8030
8030
8030
8030
8030
8030
8030
8030
8030
8030
8030
8030
8030
8030
8030
8030
C030
F0E0
3FC0
ENDCHAR
STARTCHAR uhungarumlaut
ENCODING 369
SWIDTH 507 0
DWIDTH 16 0
BBX 12 22 2 0
BITMAP
0660
0440
0CC0
1980
0000
0000
C030
C030
C030
C030
C030
C030
C030
C030
C030
C030
C030
C030
C030
4030
71F0
3FB0
ENDCHAR
STARTCHAR Uogonek
ENCODING 370
SWIDTH 552 0
DWIDTH 18 0
BBX 12 23 3 -3
BITMAP
8030
8030
8030
8030
8030
8030
8030
8030
8030
8030
8030
8030
8030
8030
8030
8030
8030
C030
F0E0
3FC0
0600
0400
0E00
ENDCHAR
STARTCHAR uogonek
ENCODING 371
SWIDTH 503 0
DWIDTH 16 0
BBX 12 19 2 -3
BITMAP
C030
C030
C030
C030
C030
C030
C030
C030
C030
C030
C030
C030
C030
4030
71F0
3FB0
0040
0040
00E0
ENDCHAR
STARTCHAR Wcircumflex
ENCODING 372
SWIDTH 795 0
DWIDTH 25 0
BBX 23 27 1 0
BITMAP
001000
003800
002C00
006400
004600
000000
000000
C01802
C03806
403806
402C06
606C04
60640C
60440C
20460C
30C60C
30C208
308318
108318
118118
198110
190190
1901B0
0B00B0
0A00A0
0E00E0
0E00E0
ENDCHAR
STARTCHAR wcircumflex
ENCODING 373
SWIDTH 682 0
DWIDTH 22 0
BBX 20 22 1 0
BITMAP
006000
00F000
009000
011800
000000
000000
806030
C06030
C0E030
40F020
60B060
609060
619040
2118C0
3108C0
3108C0
130C80
120D80
1A0580
0E0500
0E0700
0C0700
ENDCHAR
STARTCHAR Ycircumflex
ENCODING 374
SWIDTH 493 0
DWIDTH 16 0
BBX 14 27 1 0
BITMAP
0200
0700
0580
0C80
08C0
0000
0000
C00C
C018
6018
6030
3030
3060
1860
08C0
0CC0
0580
0780
0300
0300
0300
0300
0300
0300
0300
0300
0300
ENDCHAR
STARTCHAR ycircumflex
ENCODING 375
SWIDTH 459 0
DWIDTH 15 0
BBX 13 26 1 -4
BITMAP
0700
0500
0C80
18C0
0000
0000
C018
C010
4030
6030
6020
2060
3060
1040
18C0
18C0
0980
0D80
0D00
0700
0700
0200
0600
0400
3C00
7800
ENDCHAR
STARTCHAR Ydieresis
ENCODING 376
SWIDTH 493 0
DWIDTH 16 0
BBX 14 26 1 0
BITMAP
1840
1840
1840
1840
0000
0000
C00C
C018
6018
6030
3030
3060
1860
08C0
0CC0
0580
0780
0300
0300
0300
0300
0300
0300
0300
0300
0300
ENDCHAR
STARTCHAR Zacute
ENCODING 377
SWIDTH 482 0
DWIDTH 15 0
BBX 13 27 1 0
BITMAP
0060
00C0
00C0
0180
0300
0000
0000
7FF8
0018
0030
0030
0060
00C0
00C0
0180
0180
0300
0600
0600
0C00
1800
1800
3000
3000
6000
C000
FFF8
ENDCHAR
STARTCHAR zacute
ENCODING 378
SWIDTH 405 0
DWIDTH 13 0
BBX 11 22 1 0
BITMAP
01C0
0180
0300
0600
0000
0000
FFE0
0060
00C0
0180
0180
0300
0600
0600
0C00
0800
1800
3000
3000
6000
C000
FFE0
ENDCHAR
STARTCHAR Zdotaccent
ENCODING 379
SWIDTH 482 0
DWIDTH 15 0
BBX 13 26 1 0
BITMAP
0100
0100
0100
0100
0000
0000
7FF8
0018
0030
0030
0060
00C0
00C0
0180
0180
0300
0600
0600
0C00
1800
1800
3000
3000
6000
C000
FFF8
ENDCHAR
STARTCHAR zdotaccent
ENCODING 380
SWIDTH 405 0
DWIDTH 13 0
BBX 11 22 1 0
BITMAP
0600
0600
0600
0600
0000
0000
FFE0
0060
00C0
0180
0180
0300
0600
0600
0C00
0800
1800
3000
3000
6000
C000
FFE0
ENDCHAR
STARTCHAR Zcaron
ENCODING 381
SWIDTH 482 0
DWIDTH 15 0
BBX 13 27 1 0
BITMAP
0840
0440
0480
0280
0300
0000
0000
7FF8
0018
0030
0030
0060
00C0
00C0
0180
0180
0300
0600
0600
0C00
1800
1800
3000
3000
6000
C000
FFF8
ENDCHAR
STARTCHAR zcaron
ENCODING 382
SWIDTH 405 0
DWIDTH 13 0
BBX 11 22 1 0
BITMAP
1880
0900
0D00
0600
0000
0000
FFE0
0060
00C0
0180
0180
0300
0600
0600
0C00
0800
1800
3000
3000
6000
C000
FFE0
ENDCHAR
STARTCHAR florin
ENCODING 402
SWIDTH 494 0
DWIDTH 16 0
BBX 14 26 1 -4
BITMAP
001C
0070
0040
00C0
00C0
0080
0180
0180
0180
1FF0
0300
0300
0300
0300
0200
0600
0600
0600
0400
0400
0C00
0C00
0C00
1800
7800
E000
ENDCHAR
STARTCHAR AEacute
ENCODING 508
SWIDTH 773 0
DWIDTH 25 0
BBX 23 27 0 0
BITMAP
000080
000180
000300
000600
000400
000000
000000
001FFE
003C00
002C00
006C00
004C00
00CC00
018C00
018C00
030C00
020FFC
060C00
040C00
0C0C00
0FFC00
180C00
300C00
300C00
600C00
400C00
C00FFE
ENDCHAR
STARTCHAR aeacute
ENCODING 509
SWIDTH 795 0
DWIDTH 25 0
BBX 21 22 2 0
BITMAP
000E00
000C00
001800
003000
000000
000000
3F8FE0
01FC70
007018
003008
003008
003008
3FF008
603008
C03FF8
C03000
C03000
C03000
C03000
C07000
71DC00
3F8FF8
ENDCHAR
STARTCHAR Oslashacute
ENCODING 510
SWIDTH 558 0
DWIDTH 18 0
BBX 15 27 1 0
BITMAP
0020
0060
00C0
0080
0180
0000
0000
0FF2
3C3A
300C
200C
601C
6014
6024
6064
60C4
6084
6104
6304
6604
6404
6804
7804
3004
300C
7C3C
CFF0
ENDCHAR
STARTCHAR oslashacute
ENCODING 511
SWIDTH 521 0
DWIDTH 17 0
BBX 15 22 1 0
BITMAP
0060
00C0
0080
0100
0000
0000
0FE0
3C76
301C
2018
6038
6068
60C8
6188
6308
6608
6C08
7808
3018
7018
FC70
0FE0
ENDCHAR
STARTCHAR uni0218
ENCODING 536
SWIDTH 562 0
DWIDTH 18 0
BBX 12 27 3 -7
BITMAP
3FC0
70E0
C030
8010
8010
8010
8000
C000
E000
3E00
07C0
0070
0030
0010
8010
8010
8010
C030
70E0
3FC0
0000
0600
0600
0600
0600
0400
0400
ENDCHAR
STARTCHAR uni0219
ENCODING 537
SWIDTH 427 0
DWIDTH 14 0
BBX 10 24 2 -8
BITMAP
7F80
E000
C000
8000
8000
C000
7000
1E00
0780
00C0
00C0
00C0
00C0
00C0
0380
FF00
0000
0C00
0C00
0C00
0C00
0800
0800
0800
ENDCHAR
STARTCHAR circumflex
ENCODING 710
SWIDTH 326 0
DWIDTH 10 0
BBX 6 4 2 18
BITMAP
30
68
4C
C4
ENDCHAR
STARTCHAR caron
ENCODING 711
SWIDTH 326 0
DWIDTH 10 0
BBX 6 4 2 18
BITMAP
C4
4C
68
30
ENDCHAR
STARTCHAR uni02C9
ENCODING 713
SWIDTH 358 0
DWIDTH 11 0
BBX 7 1 2 19
BITMAP
FE
ENDCHAR
STARTCHAR breve
ENCODING 728
SWIDTH 332 0
DWIDTH 11 0
BBX 7 4 2 18
BITMAP
86
84
C4
78
ENDCHAR
STARTCHAR dotaccent
ENCODING 729
SWIDTH 183 0
DWIDTH 6 0
BBX 2 4 2 18
BITMAP
C0
C0
C0
C0
ENDCHAR
STARTCHAR ring
ENCODING 730
SWIDTH 297 0
DWIDTH 10 0
BBX 5 5 2 17
BITMAP
F0
88
88
88
F8
ENDCHAR
STARTCHAR ogonek
ENCODING 731
SWIDTH 243 0
DWIDTH 8 0
BBX 3 4 2 -3
BITMAP
20
40
40
E0
ENDCHAR
STARTCHAR tilde
ENCODING 732
SWIDTH 369 0
DWIDTH 12 0
BBX 7 4 2 18
BITMAP
8C
9E
92
F2
ENDCHAR
STARTCHAR hungarumlaut
ENCODING 733
SWIDTH 377 0
DWIDTH 12 0
BBX 8 4 2 18
BITMAP
33
66
44
C8
ENDCHAR
STARTCHAR Mu
ENCODING 924
SWIDTH 527 0
DWIDTH 17 0
BBX 11 20 3 -4
BITMAP
8020
8020
8020
8020
8020
8020
8020
8020
8020
8020
8020
8020
8020
C060
E0E0
BFA0
8000
8000
8000
8000
ENDCHAR
STARTCHAR Pi
ENCODING 928
SWIDTH 605 0
DWIDTH 19 0
BBX 17 20 1 0
BITMAP
FFFF80
080C00
080C00
080C00
080C00
080C00
080C00
080C00
080C00
080C00
080C00
080C00
080C00
080C00
080C00
080C00
080C00
080C00
080C00
080C00
ENDCHAR
STARTCHAR Sigma
ENCODING 931
SWIDTH 481 0
DWIDTH 15 0
BBX 12 20 2 0
BITMAP
FFF0
C000
6000
6000
3000
1000
1800
0C00
0C00
0600
0600
0600
0C00
1800
1800
3000
6000
6000
C000
FFF0
ENDCHAR
STARTCHAR uni0901
ENCODING 2305
SWIDTH 0 0
DWIDTH 0 0
BBX 10 6 -9 22
BITMAP
0400
4040
C040
C040
60C0
3F80
ENDCHAR
STARTCHAR uni0902
ENCODING 2306
SWIDTH 0 0
DWIDTH 0 0
BBX 2 1 -5 24
BITMAP
C0
ENDCHAR
STARTCHAR uni0903
ENCODING 2307
SWIDTH 247 0
DWIDTH 8 0
BBX 2 12 3 2
BITMAP
C0
C0
00
00
00
00
00
00
00
00
C0
C0
ENDCHAR
STARTCHAR uni0905
ENCODING 2309
SWIDTH 598 0
DWIDTH 19 0
BBX 19 20 1 0
BITMAP
7E03E0
070200
018200
018200
008200
008200
018200
018200
030200
3E0200
030200
01FE00
008200
008200
008200
018200
030200
FF0200
000200
000200
ENDCHAR
STARTCHAR uni0906
ENCODING 2310
SWIDTH 828 0
DWIDTH 27 0
BBX 26 20 1 0
BITMAP
7E03FFC0
07020600
01820600
01820600
00820600
00820600
01820600
01820600
03020600
3E020600
03020600
01FE0600
01820600
00820600
01820600
01820600
03020600
FE020600
00020600
00020600
ENDCHAR
STARTCHAR uni0907
ENCODING 2311
SWIDTH 478 0
DWIDTH 15 0
BBX 16 21 0 -1
BITMAP
FFFF
0018
0010
0010
0010
0FF0
1C00
3000
3000
3000
1800
1FF0
0038
0008
3008
3008
3008
3818
3FF0
3000
3000
ENDCHAR
STARTCHAR uni0908
ENCODING 2312
SWIDTH 478 0
DWIDTH 15 0
BBX 16 29 0 -1
BITMAP
003E
0070
00C0
00C0
00C0
00C0
00C0
00C0
FFFF
0018
0010
0010
0010
0FF0
1C00
3000
3000
3000
1800
1FF0
0038
0008
3008
3008
3008
3818
3FF0
3000
3000
ENDCHAR
STARTCHAR uni0909
ENCODING 2313
SWIDTH 471 0
DWIDTH 15 0
BBX 16 20 0 0
BITMAP
FFFF
0060
0010
0018
0018
0018
0018
0018
0030
03E0
0030
0018
0018
2018
2018
2018
2018
3018
3830
1FE0
ENDCHAR
STARTCHAR uni090A
ENCODING 2314
SWIDTH 661 0
DWIDTH 21 0
BBX 22 20 0 0
BITMAP
FFFFFC
006000
001000
001800
001800
001800
001800
001800
003000
03E000
003FC0
001060
001830
201810
201810
201810
201830
301870
3831E0
1FE000
ENDCHAR
STARTCHAR uni090B
ENCODING 2315
SWIDTH 753 0
DWIDTH 24 0
BBX 25 20 0 0
BITMAP
FFFFFF80
00180000
00180000
00180000
00180000
00180000
0FD83C00
18387C00
3018CC00
30198C00
301B0C00
301E0C00
20187C00
0038E000
0078C000
00D8C000
0398C000
0618C000
0C18C000
38187C00
ENDCHAR
STARTCHAR uni090C
ENCODING 2316
SWIDTH 676 0
DWIDTH 22 0
BBX 22 26 0 -6
BITMAP
FFFFFC
000060
000060
000060
000060
000060
0F8F60
18D8E0
307060
302060
302060
302060
302060
300060
300060
300060
180060
0F8060
0003E0
000300
000600
000600
000600
000604
00030C
0003F8
ENDCHAR
STARTCHAR uni090D
ENCODING 2317
SWIDTH 521 0
DWIDTH 17 0
BBX 17 27 0 1
BITMAP
080C00
080C00
0C1800
07F800
000000
000000
000000
000000
FFFF80
180600
100600
100600
100600
100600
100600
100600
100400
100C00
107800
100000
100000
100000
100000
180000
180000
0C0000
07FC00
ENDCHAR
STARTCHAR uni090E
ENCODING 2318
SWIDTH 522 0
DWIDTH 17 0
BBX 17 27 0 1
BITMAP
030000
030000
010000
01C000
007000
001C00
000C00
000600
FFFF80
180600
100600
100600
100600
100600
100600
100600
100400
100C00
107800
100000
100000
100000
100000
180000
180000
0C0000
07FC00
ENDCHAR
STARTCHAR uni090F
ENCODING 2319
SWIDTH 526 0
DWIDTH 17 0
BBX 17 19 0 1
BITMAP
FFFF80
180600
100600
100600
100600
100600
100600
100600
100400
100C00
107800
100000
100000
100000
100000
180000
180000
0C0000
07FC00
ENDCHAR
STARTCHAR uni0910
ENCODING 2320
SWIDTH 526 0
DWIDTH 17 0
BBX 17 27 0 1
BITMAP
00C000
00C000
006000
003000
003000
001800
000C00
000400
FFFF80
180600
100600
100600
100600
100600
100600
100600
100400
100C00
107800
100000
100000
100000
100000
180000
180000
0C0000
07FC00
ENDCHAR
STARTCHAR uni0911
ENCODING 2321
SWIDTH 829 0
DWIDTH 27 0
BBX 26 27 1 0
BITMAP
00020200
00060200
00060200
00030600
0001FC00
00000000
00000000
7E03FFC0
07020600
01820600
01820600
00820600
00820600
01820600
01820600
03020600
3E020600
03020600
01FE0600
00820600
00820600
00820600
01820600
03020600
FF020600
00020600
00020600
ENDCHAR
STARTCHAR uni0912
ENCODING 2322
SWIDTH 828 0
DWIDTH 27 0
BBX 26 28 1 0
BITMAP
00030000
00030000
00010000
0001C000
00007000
00001800
00000C00
00000600
7E03FFC0
07020600
01820600
01820600
00820600
00820600
01820600
01820600
03020600
3E020600
03020600
01FE0600
00820600
00820600
00820600
01820600
03020600
FF020600
00020600
00020600
ENDCHAR
STARTCHAR uni0913
ENCODING 2323
SWIDTH 829 0
DWIDTH 27 0
BBX 26 28 1 0
BITMAP
0000C000
0000C000
00006000
00003000
00003000
00001800
00000C00
00000400
7E03FFC0
07020600
01820600
01820600
00820600
00820600
01820600
01820600
03020600
3E020600
03020600
01FE0600
00820600
00820600
00820600
01820600
03020600
FF020600
00020600
00020600
ENDCHAR
STARTCHAR uni0914
ENCODING 2324
SWIDTH 829 0
DWIDTH 27 0
BBX 26 28 1 0
BITMAP
00018600
0000C600
00006600
00006600
00003600
00001600
00000E00
00000600
7E03FFC0
07020600
01820600
01820600
00820600
00820600
01820600
01820600
03020600
3E020600
03020600
01FE0600
00820600
00820600
00820600
01820600
03020600
FF020600
00020600
00020600
ENDCHAR
STARTCHAR uni0915
ENCODING 2325
SWIDTH 725 0
DWIDTH 23 0
BBX 24 20 0 0
BITMAP
FFFFFF
001800
001000
001000
001000
0F17E0
181C30
301818
301008
201008
201008
201008
201008
301008
303018
183038
0FD1F0
001000
001000
001000
ENDCHAR
STARTCHAR uni0916
ENCODING 2326
SWIDTH 696 0
DWIDTH 22 0
BBX 23 20 0 0
BITMAP
FFFFFE
030030
010020
010020
010020
010E20
011820
013020
033020
033020
7E3020
603020
303060
181860
180FA0
0C0020
060020
020020
030020
018020
ENDCHAR
STARTCHAR uni0917
ENCODING 2327
SWIDTH 494 0
DWIDTH 16 0
BBX 16 20 0 0
BITMAP
FFFF
0C18
0C18
0C18
0C18
0C18
0C18
0C18
0C18
0C18
0C18
1818
7018
0018
0018
0018
0018
0018
0018
0018
ENDCHAR
STARTCHAR uni0918
ENCODING 2328
SWIDTH 559 0
DWIDTH 18 0
BBX 18 20 0 0
BITMAP
FFFFC0
1C0600
100600
300600
300600
300600
300600
180600
0F8600
180600
300600
300600
300600
300600
300600
180E00
0FFE00
000600
000600
000600
ENDCHAR
STARTCHAR uni0919
ENCODING 2329
SWIDTH 505 0
DWIDTH 16 0
BBX 17 20 0 0
BITMAP
FFFF80
001000
001000
001000
001000
0FF000
1C0000
300000
300000
300600
180000
1FF000
003800
001800
000800
300800
300800
301800
181800
1FF000
ENDCHAR
STARTCHAR uni091A
ENCODING 2330
SWIDTH 563 0
DWIDTH 18 0
BBX 19 20 0 0
BITMAP
FFFFE0
000600
000200
000200
000200
000200
7FC200
060200
080200
180200
180200
180200
180600
080600
0C0E00
07FA00
000200
000200
000200
000200
ENDCHAR
STARTCHAR uni091B
ENCODING 2331
SWIDTH 581 0
DWIDTH 19 0
BBX 19 18 0 2
BITMAP
FFFFE0
1C0300
100200
300200
300200
300200
301E00
100700
180300
0F0100
180100
100100
300100
300100
300100
100300
180700
0FFE00
ENDCHAR
STARTCHAR uni091C
ENCODING 2332
SWIDTH 547 0
DWIDTH 18 0
BBX 18 20 0 0
BITMAP
FFFFC0
000600
000600
000600
000600
000600
000600
3FFE00
030600
018600
018600
018600
018600
018600
018600
030600
7E0600
000600
000600
000600
ENDCHAR
STARTCHAR uni091D
ENCODING 2333
SWIDTH 664 0
DWIDTH 21 0
BBX 22 21 0 -1
BITMAP
FFFFFC
002040
002040
002040
002040
0FE040
1C0040
300040
300040
300040
180040
1FFFC0
007040
001040
301040
301040
383040
3FE040
300040
300040
300000
ENDCHAR
STARTCHAR uni091E
ENCODING 2334
SWIDTH 592 0
DWIDTH 19 0
BBX 19 20 0 0
BITMAP
FFFFE0
000300
000300
000300
000300
3F0300
038300
018300
008300
008300
00FF00
008300
008300
008300
008300
018300
7F0300
000300
000300
000300
ENDCHAR
STARTCHAR uni091F
ENCODING 2335
SWIDTH 485 0
DWIDTH 16 0
BBX 16 18 0 2
BITMAP
FFFF
0030
0010
0010
0010
0010
0FF0
1800
3000
3000
3000
3000
3004
300C
300C
300C
1818
0FF0
ENDCHAR
STARTCHAR uni0920
ENCODING 2336
SWIDTH 512 0
DWIDTH 16 0
BBX 17 18 0 2
BITMAP
FFFF80
001800
001800
001800
001000
003000
0FE000
181800
300C00
300C00
300C00
300C00
300C00
300C00
300C00
300C00
181800
0FF000
ENDCHAR
STARTCHAR uni0921
ENCODING 2337
SWIDTH 475 0
DWIDTH 15 0
BBX 16 20 0 0
BITMAP
FFFF
0010
0010
0010
0010
0FF0
1800
1000
3000
3000
3000
1800
0FF0
0038
0008
0008
3008
3018
1818
1FF0
ENDCHAR
STARTCHAR uni0922
ENCODING 2338
SWIDTH 485 0
DWIDTH 16 0
BBX 16 18 0 2
BITMAP
FFFF
0018
0010
0010
0010
0010
0FF0
1800
3000
3000
3000
3078
30CC
308C
3084
300C
180C
0FF8
ENDCHAR
STARTCHAR uni0923
ENCODING 2339
SWIDTH 681 0
DWIDTH 22 0
BBX 22 20 0 0
BITMAP
FFFFFC
303060
103060
103060
103060
103060
103060
103060
103060
103060
103060
103060
186060
0FC060
000060
000060
000060
000060
000060
000060
ENDCHAR
STARTCHAR uni0924
ENCODING 2340
SWIDTH 496 0
DWIDTH 16 0
BBX 16 20 0 0
BITMAP
FFFF
0018
0018
0018
0018
0018
0018
0FF8
1818
3018
3018
3018
3018
3018
3018
3018
3018
3018
1818
0F18
ENDCHAR
STARTCHAR uni0925
ENCODING 2341
SWIDTH 593 0
DWIDTH 19 0
BBX 17 20 2 0
BITMAP
3E0780
730C00
410C00
418C00
418C00
018C00
010C00
030C00
FE0C00
800C00
800C00
800C00
C00C00
C00C00
601C00
3FFC00
000C00
000C00
000C00
000400
ENDCHAR
STARTCHAR uni0926
ENCODING 2342
SWIDTH 489 0
DWIDTH 16 0
BBX 16 20 0 0
BITMAP
FFFF
0018
0018
0018
0018
0FF8
1C00
1000
3000
3000
3000
3000
3008
3008
3008
1818
0FE8
0008
0008
0008
ENDCHAR
STARTCHAR uni0927
ENCODING 2343
SWIDTH 560 0
DWIDTH 18 0
BBX 18 20 0 0
BITMAP
FE3FC0
180600
100600
300600
300600
300600
300600
180600
0F8600
180600
100600
300600
300600
300600
300600
180E00
0FFE00
000600
000600
000600
ENDCHAR
STARTCHAR uni0928
ENCODING 2344
SWIDTH 473 0
DWIDTH 15 0
BBX 16 20 0 0
BITMAP
FFFF
0030
0010
0010
0010
0010
0010
0010
1FF0
3010
6010
6010
2010
2010
0010
0010
0010
0010
0010
0010
ENDCHAR
STARTCHAR uni0928093C
ENCODING 2345
SWIDTH 473 0
DWIDTH 15 0
BBX 16 20 0 0
BITMAP
FFFF
0030
0010
0010
0010
0010
0010
0010
1FF0
3010
6010
6010
2010
2010
0010
0010
0010
0010
0010
0410
ENDCHAR
STARTCHAR uni092A
ENCODING 2346
SWIDTH 503 0
DWIDTH 16 0
BBX 17 20 0 0
BITMAP
FFFF80
301800
100800
100800
100800
100800
100800
100800
100800
100800
100800
101800
183800
0FE800
000800
000800
000800
000800
000800
000800
ENDCHAR
STARTCHAR uni092B
ENCODING 2347
SWIDTH 739 0
DWIDTH 24 0
BBX 24 20 0 0
BITMAP
FFFFFF
301800
101800
101800
101800
101BF0
101C38
101808
10180C
10180C
10180C
18180C
18380C
0FF80C
001808
001818
0019F0
001800
001800
001800
ENDCHAR
STARTCHAR uni092C
ENCODING 2348
SWIDTH 491 0
DWIDTH 16 0
BBX 16 20 0 0
BITMAP
FFFF
0018
0018
0018
0018
0F98
1818
3818
3C18
3618
3318
3198
3058
3038
3018
1838
0FF8
0018
0018
0018
ENDCHAR
STARTCHAR uni092D
ENCODING 2349
SWIDTH 491 0
DWIDTH 16 0
BBX 16 20 0 0
BITMAP
C0FF
7018
3018
1018
1018
1018
1018
1018
1018
1FF8
1018
1018
1018
1018
0018
0018
0018
0018
0018
0018
ENDCHAR
STARTCHAR uni092E
ENCODING 2350
SWIDTH 490 0
DWIDTH 16 0
BBX 16 20 0 0
BITMAP
FFFF
3018
1018
1018
1018
1018
1018
1018
1018
1FF8
1018
1018
1018
1018
0018
0018
0018
0018
0018
0018
ENDCHAR
STARTCHAR uni092F
ENCODING 2351
SWIDTH 564 0
DWIDTH 18 0
BBX 19 20 0 0
BITMAP
FFFFE0
060600
010200
010200
010200
010200
030200
3E0200
300200
300200
300200
300200
300600
100600
180E00
0FFA00
000200
000200
000200
000200
ENDCHAR
STARTCHAR uni0930
ENCODING 2352
SWIDTH 337 0
DWIDTH 11 0
BBX 11 20 0 0
BITMAP
FFE0
0300
0100
0100
0100
0100
0100
0100
0300
0300
7E00
6000
3000
1800
1800
0C00
0600
0200
0300
0180
ENDCHAR
STARTCHAR uni0930093C
ENCODING 2353
SWIDTH 347 0
DWIDTH 11 0
BBX 12 21 0 -1
BITMAP
FFF0
0180
0100
0100
0100
0100
0100
0100
0100
0300
7E00
2000
3000
1800
0800
0C00
0600
0200
0300
0180
4000
ENDCHAR
STARTCHAR uni0932
ENCODING 2354
SWIDTH 676 0
DWIDTH 22 0
BBX 22 20 0 0
BITMAP
FFFFFC
000060
000060
000060
000060
000060
0F8F60
18D8E0
307060
302060
302060
302060
302060
300060
300060
300060
180060
0F8060
000060
000060
ENDCHAR
STARTCHAR uni0933
ENCODING 2355
SWIDTH 672 0
DWIDTH 22 0
BBX 22 18 0 2
BITMAP
FFFFFC
000300
000200
000200
000200
000200
0F8F80
18D8C0
303060
303020
302020
302020
302020
302020
302020
303060
187860
0FCFC0
ENDCHAR
STARTCHAR uni0933093C
ENCODING 2356
SWIDTH 672 0
DWIDTH 22 0
BBX 22 21 0 -1
BITMAP
FFFFFC
000300
000200
000200
000200
000200
0F8F80
18D8C0
303060
303020
302020
302020
302020
302020
302020
303060
187860
0FCFC0
000000
000000
020000
ENDCHAR
STARTCHAR uni0935
ENCODING 2357
SWIDTH 484 0
DWIDTH 15 0
BBX 16 20 0 0
BITMAP
FFFF
0018
0018
0018
0018
0F98
1818
3018
3018
3018
3018
3018
3018
3018
3018
1838
0FD8
0018
0018
0018
ENDCHAR
STARTCHAR uni0936
ENCODING 2358
SWIDTH 614 0
DWIDTH 20 0
BBX 19 20 1 0
BITMAP
1F03E0
318300
20C300
60C300
60C300
60C300
00C300
00C300
00C300
018300
FF0300
400300
600300
300300
180300
180300
0C0300
060300
020300
030300
ENDCHAR
STARTCHAR uni0937
ENCODING 2359
SWIDTH 505 0
DWIDTH 16 0
BBX 17 20 0 0
BITMAP
FFFF80
300800
180800
1C0800
160800
130800
118800
10C800
104800
102800
101800
101800
183800
0FE800
000800
000800
000800
000800
000800
000800
ENDCHAR
STARTCHAR uni0938
ENCODING 2360
SWIDTH 575 0
DWIDTH 18 0
BBX 19 20 0 0
BITMAP
FFFFE0
030300
030200
030200
030200
030200
030200
020200
020200
060200
7FFE00
600200
300200
100200
180200
0C0200
0C0200
060200
020200
030200
ENDCHAR
STARTCHAR uni0939
ENCODING 2361
SWIDTH 481 0
DWIDTH 15 0
BBX 16 21 0 -1
BITMAP
FFFF
0018
0018
0018
0018
0FF8
1800
1000
1000
1000
1800
0FF0
1C38
1018
3008
3008
3000
3000
1000
1800
0FF8
ENDCHAR
STARTCHAR uni093C
ENCODING 2364
SWIDTH 0 0
DWIDTH 0 0
BBX 2 1 -5 -2
BITMAP
C0
ENDCHAR
STARTCHAR uni093D
ENCODING 2365
SWIDTH 529 0
DWIDTH 17 0
BBX 11 20 3 0
BITMAP
3FC0
7000
6000
6000
6000
6000
6000
3800
1C00
0700
03C0
00E0
0060
0020
0020
0020
8020
C060
7060
1FC0
ENDCHAR
STARTCHAR uni093E
ENCODING 2366
SWIDTH 231 0
DWIDTH 7 0
BBX 8 20 0 0
BITMAP
FF
18
10
10
10
10
10
10
10
10
10
10
10
10
10
10
10
10
10
10
ENDCHAR
STARTCHAR uni093F
ENCODING 2367
SWIDTH 231 0
DWIDTH 7 0
BBX 20 28 0 0
BITMAP
07FFC0
0C00E0
180030
180030
100030
100010
100000
100000
FF0000
180000
100000
100000
100000
100000
100000
100000
100000
100000
100000
100000
100000
100000
100000
100000
100000
100000
100000
100000
ENDCHAR
STARTCHAR uni0940
ENCODING 2368
SWIDTH 231 0
DWIDTH 7 0
BBX 13 28 -5 0
BITMAP
3F00
7380
4080
C080
C080
C080
0080
0080
07F8
00C0
0080
0080
0080
0080
0080
0080
0080
0080
0080
0080
0080
0080
0080
0080
0080
0080
0080
0080
ENDCHAR
STARTCHAR uni0941
ENCODING 2369
SWIDTH 0 0
DWIDTH 0 0
BBX 12 8 -11 -8
BITMAP
01E0
0030
C030
C030
6030
2030
3860
0FC0
ENDCHAR
STARTCHAR uni0942
ENCODING 2370
SWIDTH 0 0
DWIDTH 0 0
BBX 11 8 -8 -8
BITMAP
7E00
C380
8080
80C0
8040
8060
C020
7800
ENDCHAR
STARTCHAR uni0943
ENCODING 2371
SWIDTH 0 0
DWIDTH 0 0
BBX 10 8 -9 -8
BITMAP
3C00
6000
C000
C000
C000
40C0
6380
3F00
ENDCHAR
STARTCHAR uni0945
ENCODING 2373
SWIDTH 0 0
DWIDTH 0 0
BBX 10 4 -9 22
BITMAP
C040
4040
60C0
3F80
ENDCHAR
STARTCHAR uni0946
ENCODING 2374
SWIDTH 0 0
DWIDTH 0 0
BBX 9 9 -11 19
BITMAP
8000
8000
C000
6000
3800
0E00
0300
0300
0380
ENDCHAR
STARTCHAR uni0947
ENCODING 2375
SWIDTH 0 0
DWIDTH 0 0
BBX 8 9 -10 19
BITMAP
C0
60
60
30
18
18
0C
06
03
ENDCHAR
STARTCHAR uni0948
ENCODING 2376
SWIDTH 0 0
DWIDTH 0 0
BBX 8 9 -10 19
BITMAP
C2
42
62
32
32
1A
0E
06
07
ENDCHAR
STARTCHAR uni0949
ENCODING 2377
SWIDTH 231 0
DWIDTH 7 0
BBX 10 27 -1 0
BITMAP
8080
80C0
80C0
C180
7F00
0000
0000
7F80
0C00
0800
0800
0800
0800
0800
0800
0800
0800
0800
0800
0800
0800
0800
0800
0800
0800
0800
0800
ENDCHAR
STARTCHAR uni094A
ENCODING 2378
SWIDTH 231 0
DWIDTH 7 0
BBX 12 28 -4 0
BITMAP
C000
C000
C000
7000
1C00
0E00
0300
0100
0FF0
0180
0100
0100
0100
0100
0100
0100
0100
0100
0100
0100
0100
0100
0100
0100
0100
0100
0100
0100
ENDCHAR
STARTCHAR uni094B
ENCODING 2379
SWIDTH 231 0
DWIDTH 7 0
BBX 10 28 -2 0
BITMAP
8000
C000
6000
2000
3000
1800
0800
0400
3FC0
0600
0400
0400
0400
0400
0400
0400
0400
0400
0400
0400
0400
0400
0400
0400
0400
0400
0400
0400
ENDCHAR
STARTCHAR uni094C
ENCODING 2380
SWIDTH 231 0
DWIDTH 7 0
BBX 11 28 -3 0
BITMAP
C200
6200
2200
3200
1A00
0A00
0600
0200
1FE0
0300
0200
0200
0200
0200
0200
0200
0200
0200
0200
0200
0200
0200
0200
0200
0200
0200
0200
0200
ENDCHAR
STARTCHAR uni094D
ENCODING 2381
SWIDTH 0 0
DWIDTH 0 0
BBX 4 5 -4 -7
BITMAP
80
C0
60
20
30
ENDCHAR
STARTCHAR uni0950
ENCODING 2384
SWIDTH 847 0
DWIDTH 27 0
BBX 23 24 2 1
BITMAP
000300
000000
000000
000004
00000C
3F03F8
038000
00C000
00C000
004000
004000
00C3F8
01801C
1F0004
018004
008006
00FE06
004206
804206
804206
80C206
C0C304
61830C
3F01F8
ENDCHAR
STARTCHAR uni0951
ENCODING 2385
SWIDTH 0 0
DWIDTH 0 0
BBX 1 6 -4 22
BITMAP
80
80
80
80
80
80
ENDCHAR
STARTCHAR uni0952
ENCODING 2386
SWIDTH 0 0
DWIDTH 0 0
BBX 10 1 -13 -3
BITMAP
FFC0
ENDCHAR
STARTCHAR uni0953
ENCODING 2387
SWIDTH 0 0
DWIDTH 0 0
BBX 5 6 -8 22
BITMAP
C0
40
60
30
10
18
ENDCHAR
STARTCHAR uni0954
ENCODING 2388
SWIDTH 0 0
DWIDTH 0 0
BBX 5 6 -4 22
BITMAP
18
30
20
60
C0
80
ENDCHAR
STARTCHAR uni0915093C
ENCODING 2392
SWIDTH 725 0
DWIDTH 23 0
BBX 24 21 0 -1
BITMAP
FFFFFF
001800
001000
001000
001000
0F17E0
181C30
301818
301008
201008
201008
201008
201008
301008
303018
183038
0FD1F0
001000
001000
001000
040000
ENDCHAR
STARTCHAR uni0916093C
ENCODING 2393
SWIDTH 696 0
DWIDTH 22 0
BBX 23 21 0 -1
BITMAP
FFFFFE
030030
010020
010020
010020
010E20
011820
013020
033020
033020
7E3020
603020
303060
101860
180FA0
0C0020
060020
060020
030020
018020
600000
ENDCHAR
STARTCHAR uni0917093C
ENCODING 2394
SWIDTH 494 0
DWIDTH 16 0
BBX 16 21 0 -1
BITMAP
FFFF
0C18
0C18
0C18
0C18
0C18
0C18
0C18
0C18
0C18
0C18
1818
7018
0018
0018
0018
0018
0018
0018
0018
1800
ENDCHAR
STARTCHAR uni091C093C
ENCODING 2395
SWIDTH 547 0
DWIDTH 18 0
BBX 18 21 0 -1
BITMAP
FFFFC0
000600
000600
000600
000600
000600
000600
3FFE00
030600
018600
018600
018600
018600
018600
018600
030600
7E0600
000600
000600
000600
100000
ENDCHAR
STARTCHAR uni0921093C
ENCODING 2396
SWIDTH 475 0
DWIDTH 15 0
BBX 16 24 0 -4
BITMAP
FFFF
0010
0010
0010
0010
0FF0
1800
1000
3000
3000
3000
1800
0FF0
0038
0008
0008
3008
3018
1818
1FF0
0000
0000
0000
0180
ENDCHAR
STARTCHAR uni0922093C
ENCODING 2397
SWIDTH 485 0
DWIDTH 16 0
BBX 16 23 0 -3
BITMAP
FFFF
0018
0010
0010
0010
0010
0FF0
1800
3000
3000
3000
3078
30CC
308C
3084
300C
180C
0FF8
0000
0000
0000
0000
0180
ENDCHAR
STARTCHAR uni092B093C
ENCODING 2398
SWIDTH 739 0
DWIDTH 24 0
BBX 24 21 0 -1
BITMAP
FFFFFF
301800
101800
101800
101800
101BF0
101E38
101808
10180C
10180C
10180C
18180C
18380C
0FF80C
001808
001818
0019F0
001800
001800
001800
0C0000
ENDCHAR
STARTCHAR uni092F093C
ENCODING 2399
SWIDTH 564 0
DWIDTH 18 0
BBX 19 21 0 -1
BITMAP
FFFFE0
060600
010200
010200
010200
010200
030200
3E0200
300200
300200
300200
300200
300600
100600
180E00
0FFA00
000200
000200
000200
000200
180000
ENDCHAR
STARTCHAR uni0960
ENCODING 2400
SWIDTH 753 0
DWIDTH 24 0
BBX 25 24 0 -4
BITMAP
FFFFFF80
00180000
00180000
00180000
00180000
00180000
0FD83C00
18387C00
3018CC00
30198C00
301B0C00
301E7C00
2018E000
0038C000
0078C000
00D8C000
0398C000
06187C00
0C18E000
1818C000
2000C000
0000C000
0000C000
00007E00
ENDCHAR
STARTCHAR uni0961
ENCODING 2401
SWIDTH 676 0
DWIDTH 22 0
BBX 22 27 0 -7
BITMAP
FFFFFC
000060
000060
000060
000060
000060
0F8F60
18D8E0
307060
302060
302060
302060
302060
300060
3003E0
300700
180600
0F8600
000600
000600
0003E0
000300
000600
000600
000600
000600
0003F0
ENDCHAR
STARTCHAR uni0964
ENCODING 2404
SWIDTH 286 0
DWIDTH 9 0
BBX 1 20 5 0
BITMAP
80
80
80
80
80
80
80
80
80
80
80
80
80
80
80
80
80
80
80
80
ENDCHAR
STARTCHAR uni0965
ENCODING 2405
SWIDTH 518 0
DWIDTH 17 0
BBX 9 20 5 0
BITMAP
8180
8180
8180
8180
8180
8180
8180
8180
8180
8180
8180
8180
8180
8180
8180
8180
8180
8180
8180
8180
ENDCHAR
STARTCHAR uni0966
ENCODING 2406
SWIDTH 519 0
DWIDTH 17 0
BBX 12 20 2 0
BITMAP
3FC0
6070
C030
C010
C010
C010
C010
C010
C010
C010
C010
C010
C010
C010
C010
C010
C010
C030
6030
3FE0
ENDCHAR
STARTCHAR uni0967
ENCODING 2407
SWIDTH 288 0
DWIDTH 9 0
BBX 7 21 0 0
BITMAP
04
0E
3E
66
86
06
06
06
06
06
06
06
06
06
06
06
06
06
06
06
06
ENDCHAR
STARTCHAR uni0968
ENCODING 2408
SWIDTH 453 0
DWIDTH 15 0
BBX 11 20 2 0
BITMAP
3F80
E0C0
C060
8020
8020
8020
0060
0060
00C0
0180
0300
0E00
1800
3000
6000
C000
8000
8000
8000
FFE0
ENDCHAR
STARTCHAR uni0969
ENCODING 2409
SWIDTH 489 0
DWIDTH 16 0
BBX 11 20 2 0
BITMAP
3FC0
E0E0
C060
8020
8020
8020
0020
0020
0060
0780
00C0
0060
0020
0020
8020
8020
8020
C060
E060
7FC0
ENDCHAR
STARTCHAR uni096A
ENCODING 2410
SWIDTH 453 0
DWIDTH 15 0
BBX 14 20 1 0
BITMAP
00E0
01E0
01E0
0360
0260
0660
0C60
0C60
1860
1060
3060
2060
6060
C060
8060
FFFC
0060
0060
0060
0060
ENDCHAR
STARTCHAR uni096B
ENCODING 2411
SWIDTH 480 0
DWIDTH 15 0
BBX 12 20 2 0
BITMAP
FFE0
C000
C000
C000
C000
C000
C000
DFC0
E0E0
C020
0030
0030
0030
0030
C030
C030
C030
C020
6060
3FC0
ENDCHAR
STARTCHAR uni096C
ENCODING 2412
SWIDTH 495 0
DWIDTH 16 0
BBX 12 20 2 0
BITMAP
3FE0
6000
C000
C000
C000
C000
C000
C000
DFC0
F060
C030
C030
C010
C010
C010
C010
C010
C030
6060
3FC0
ENDCHAR
STARTCHAR uni096D
ENCODING 2413
SWIDTH 380 0
DWIDTH 12 0
BBX 11 20 1 0
BITMAP
FFE0
0040
00C0
00C0
0080
0180
0180
0300
0300
0200
0600
0600
0400
0C00
0C00
1800
1800
1000
3000
3000
ENDCHAR
STARTCHAR uni096E
ENCODING 2414
SWIDTH 523 0
DWIDTH 17 0
BBX 13 20 2 0
BITMAP
3FE0
6070
C010
C010
C018
C018
C010
C010
6030
3FC0
7060
4030
C010
C010
C018
C018
C010
C010
6030
3FE0
ENDCHAR
STARTCHAR uni096F
ENCODING 2415
SWIDTH 493 0
DWIDTH 16 0
BBX 12 20 2 0
BITMAP
3FC0
E0E0
C060
8020
8030
8030
8030
8030
8030
C030
E030
7FF0
0030
0030
0030
0030
0020
0020
0060
7FC0
ENDCHAR
STARTCHAR uni0970
ENCODING 2416
SWIDTH 391 0
DWIDTH 13 0
BBX 10 10 1 5
BITMAP
3F00
6180
40C0
C040
C040
C040
C040
40C0
6180
3F80
ENDCHAR
STARTCHAR uni0972
ENCODING 2418
SWIDTH 598 0
DWIDTH 19 0
BBX 19 27 1 0
BITMAP
002020
006020
002020
003060
001FC0
000000
000000
7E03E0
070200
018200
018200
008200
008200
018200
018200
030200
3E0200
030200
01FE00
008200
008200
008200
018200
030200
FF0200
000200
000200
ENDCHAR
STARTCHAR Wgrave
ENCODING 7808
SWIDTH 795 0
DWIDTH 25 0
BBX 23 27 1 0
BITMAP
00C000
00C000
006000
003000
001000
000000
000000
C01802
C03806
403806
402C06
606C04
60640C
60440C
20460C
30C60C
30C208
308318
108318
118118
198110
190190
1901B0
0B00B0
0A00A0
0E00E0
0E00E0
ENDCHAR
STARTCHAR wgrave
ENCODING 7809
SWIDTH 682 0
DWIDTH 22 0
BBX 20 22 1 0
BITMAP
030000
018000
00C000
004000
000000
000000
806030
C06030
C0E030
40F020
60B060
609060
619040
2118C0
3108C0
3108C0
130C80
120D80
1A0580
0E0500
0E0700
0C0700
ENDCHAR
STARTCHAR Wacute
ENCODING 7810
SWIDTH 795 0
DWIDTH 25 0
BBX 23 27 1 0
BITMAP
000300
000600
000C00
000C00
001800
000000
000000
C01802
C03806
403806
402C06
606C04
60640C
60440C
20460C
30C60C
30C208
308318
108318
118118
198110
190190
1901B0
0B00B0
0A00A0
0E00E0
0E00E0
ENDCHAR
STARTCHAR wacute
ENCODING 7811
SWIDTH 682 0
DWIDTH 22 0
BBX 20 22 1 0
BITMAP
001C00
001800
003000
006000
000000
000000
806030
C06030
C0E030
40F020
60B060
609060
619040
2118C0
3108C0
3108C0
130C80
120D80
1A0580
0E0500
0E0700
0C0700
ENDCHAR
STARTCHAR Wdieresis
ENCODING 7812
SWIDTH 795 0
DWIDTH 25 0
BBX 23 26 1 0
BITMAP
00C200
00C200
00C200
00C200
000000
000000
C01802
C03806
403806
402C06
606C04
60640C
60440C
20460C
30C60C
30C208
308318
108318
118118
198110
190190
1901B0
0B00B0
0A00A0
0E00E0
0E00E0
ENDCHAR
STARTCHAR wdieresis
ENCODING 7813
SWIDTH 682 0
DWIDTH 22 0
BBX 20 22 1 0
BITMAP
010800
010800
010800
010800
000000
000000
806030
C06030
C0E030
40F020
60B060
609060
619040
2118C0
3108C0
3108C0
130C80
120D80
1A0580
0E0500
0E0700
0C0700
ENDCHAR
STARTCHAR uni1E9E
ENCODING 7838
SWIDTH 542 0
DWIDTH 17 0
BBX 13 20 3 0
BITMAP
3FF0
F030
C020
8060
8040
80C0
8080
8180
8100
83E0
8070
8010
8018
8018
8018
8018
8010
8030
80F0
87C0
ENDCHAR
STARTCHAR Ygrave
ENCODING 7922
SWIDTH 493 0
DWIDTH 16 0
BBX 14 27 1 0
BITMAP
1800
0C00
0400
0600
0200
0000
0000
C00C
C018
6018
6030
3030
3060
1860
08C0
0CC0
0580
0780
0300
0300
0300
0300
0300
0300
0300
0300
0300
ENDCHAR
STARTCHAR ygrave
ENCODING 7923
SWIDTH 459 0
DWIDTH 15 0
BBX 13 26 1 -4
BITMAP
1C00
0C00
0600
0300
0000
0000
C018
C010
4030
6030
6020
2060
3060
1040
18C0
18C0
0980
0D80
0D00
0700
0700
0200
0600
0400
3C00
7800
ENDCHAR
STARTCHAR uni200B
ENCODING 8203
SWIDTH 0 0
DWIDTH 0 0
BBX 1 1 0 0
BITMAP
00
ENDCHAR
STARTCHAR uni200C
ENCODING 8204
SWIDTH 0 0
DWIDTH 0 0
BBX 2 33 -1 -7
BITMAP
C0
C0
C0
C0
C0
C0
C0
C0
C0
C0
C0
C0
C0
C0
C0
C0
C0
C0
C0
C0
C0
C0
C0
C0
C0
C0
C0
C0
C0
C0
C0
C0
C0
ENDCHAR
STARTCHAR uni200D
ENCODING 8205
SWIDTH 0 0
DWIDTH 0 0
BBX 8 33 -4 -7
BITMAP
81
C3
66
3C
18
3C
7E
DB
18
18
18
18
18
18
18
18
18
18
18
18
18
18
18
18
18
18
18
18
18
18
18
18
18
ENDCHAR
STARTCHAR endash
ENCODING 8211
SWIDTH 408 0
DWIDTH 13 0
BBX 11 1 1 10
BITMAP
FFE0
ENDCHAR
STARTCHAR emdash
ENCODING 8212
SWIDTH 537 0
DWIDTH 17 0
BBX 15 1 1 10
BITMAP
FFFE
ENDCHAR
STARTCHAR quoteleft
ENCODING 8216
SWIDTH 179 0
DWIDTH 6 0
BBX 2 8 2 13
BITMAP
40
40
40
C0
C0
C0
C0
C0
ENDCHAR
STARTCHAR quoteright
ENCODING 8217
SWIDTH 179 0
DWIDTH 6 0
BBX 2 8 2 12
BITMAP
C0
C0
C0
C0
80
80
80
80
ENDCHAR
STARTCHAR quotesinglbase
ENCODING 8218
SWIDTH 187 0
DWIDTH 6 0
BBX 2 7 2 -3
BITMAP
C0
C0
C0
C0
80
80
80
ENDCHAR
STARTCHAR quotedblleft
ENCODING 8220
SWIDTH 329 0
DWIDTH 11 0
BBX 7 8 2 13
BITMAP
42
42
46
C6
C6
C6
C6
C6
ENDCHAR
STARTCHAR quotedblright
ENCODING 8221
SWIDTH 329 0
DWIDTH 11 0
BBX 7 8 2 12
BITMAP
C6
C6
C6
C4
84
84
84
84
ENDCHAR
STARTCHAR quotedblbase
ENCODING 8222
SWIDTH 337 0
DWIDTH 11 0
BBX 7 8 2 -4
BITMAP
C6
C6
C6
C4
84
84
84
80
ENDCHAR
STARTCHAR dagger
ENCODING 8224
SWIDTH 427 0
DWIDTH 14 0
BBX 11 20 1 0
BITMAP
0600
0600
0600
0400
0400
FFE0
0400
0600
0600
0600
0600
0600
0600
0600
0400
0400
0400
0400
0400
0400
ENDCHAR
STARTCHAR daggerdbl
ENCODING 8225
SWIDTH 427 0
DWIDTH 14 0
BBX 11 20 1 0
BITMAP
0600
0600
0600
0400
0400
FFE0
0400
0600
0600
0600
0600
0600
0400
FFE0
0400
0400
0400
0600
0600
0600
ENDCHAR
STARTCHAR bullet
ENCODING 8226
SWIDTH 273 0
DWIDTH 9 0
BBX 3 5 3 7
BITMAP
E0
E0
E0
E0
E0
ENDCHAR
STARTCHAR ellipsis
ENCODING 8230
SWIDTH 591 0
DWIDTH 19 0
BBX 15 4 2 0
BITMAP
C106
C106
C106
C106
ENDCHAR
STARTCHAR perthousand
ENCODING 8240
SWIDTH 1027 0
DWIDTH 33 0
BBX 30 20 2 0
BITMAP
7C040000
E6040000
830C0000
83080000
83180000
83100000
83300000
C2200000
7E600000
00400000
00400000
00C7C1F0
00886308
0198220C
0118220C
0318220C
0218220C
0618220C
040CE398
0C07C1F0
ENDCHAR
STARTCHAR guilsinglleft
ENCODING 8249
SWIDTH 290 0
DWIDTH 9 0
BBX 5 10 2 3
BITMAP
08
18
30
60
C0
C0
60
30
18
08
ENDCHAR
STARTCHAR guilsinglright
ENCODING 8250
SWIDTH 290 0
DWIDTH 9 0
BBX 5 10 2 3
BITMAP
80
40
20
10
08
08
10
20
40
80
ENDCHAR
STARTCHAR fraction
ENCODING 8260
SWIDTH 117 0
DWIDTH 4 0
BBX 16 20 -6 0
BITMAP
0003
0002
0004
000C
0018
0030
0020
0060
00C0
0180
0100
0300
0600
0C00
0800
1000
3000
6000
4000
8000
ENDCHAR
STARTCHAR Euro
ENCODING 8364
SWIDTH 523 0
DWIDTH 17 0
BBX 14 20 1 0
BITMAP
07E0
1C38
1008
300C
300C
3000
3000
FFC0
3000
3000
3000
FFC0
3000
3000
3008
300C
1008
1818
1E78
07E0
ENDCHAR
STARTCHAR uni20B9
ENCODING 8377
SWIDTH 414 0
DWIDTH 13 0
BBX 11 20 1 0
BITMAP
FFE0
0E00
0200
0300
0300
FFE0
0300
0300
0300
0600
FC00
C000
6000
3000
1800
1800
0C00
0600
0300
0300
ENDCHAR
STARTCHAR trademark
ENCODING 8482
SWIDTH 591 0
DWIDTH 19 0
BBX 15 8 2 13
BITMAP
FD86
11C6
11CA
11AA
11B2
1192
1182
1082
ENDCHAR
STARTCHAR uni2126
ENCODING 8486
SWIDTH 629 0
DWIDTH 20 0
BBX 18 20 1 0
BITMAP
0FFC00
180600
300300
300300
300300
300300
300300
300300
300300
300300
300300
300300
300300
300300
300300
300300
300300
100300
180600
FF3FC0
ENDCHAR
STARTCHAR partialdiff
ENCODING 8706
SWIDTH 481 0
DWIDTH 15 0
BBX 11 20 2 0
BITMAP
3C00
0F00
01C0
0040
0060
0020
0020
3FA0
60E0
C060
C020
C020
C020
C020
C020
C020
C020
C060
60E0
3FC0
ENDCHAR
STARTCHAR uni2206
ENCODING 8710
SWIDTH 594 0
DWIDTH 19 0
BBX 17 20 1 0
BITMAP
01C000
01C000
016000
036000
022000
063000
063000
041000
0C1800
0C1800
080800
180C00
180C00
300600
300600
200200
600300
600300
400100
FFFF80
ENDCHAR
STARTCHAR minus
ENCODING 8722
SWIDTH 523 0
DWIDTH 17 0
BBX 13 1 2 10
BITMAP
FFF8
ENDCHAR
STARTCHAR approxequal
ENCODING 8776
SWIDTH 523 0
DWIDTH 17 0
BBX 13 7 2 7
BITMAP
7E18
C7F0
0000
0000
0000
7E18
C7F0
ENDCHAR
STARTCHAR notequal
ENCODING 8800
SWIDTH 523 0
DWIDTH 17 0
BBX 13 14 2 3
BITMAP
0080
0180
0100
FFF8
0300
0200
0200
0600
0400
FFF8
0C00
0800
0800
0800
ENDCHAR
STARTCHAR lessequal
ENCODING 8804
SWIDTH 523 0
DWIDTH 17 0
BBX 13 12 2 4
BITMAP
0018
00F0
0F80
7C00
C000
7800
0F00
01F0
0038
0000
0000
FFF8
ENDCHAR
STARTCHAR greaterequal
ENCODING 8805
SWIDTH 523 0
DWIDTH 17 0
BBX 13 12 2 4
BITMAP
C000
7800
0F00
01F0
0038
00F0
0F80
7C00
C000
0000
0000
FFF8
ENDCHAR
STARTCHAR uni25CC
ENCODING 9676
SWIDTH 701 0
DWIDTH 22 0
BBX 19 19 2 1
BITMAP
01CC00
0DDC00
1C9C00
0C0180
000380
600180
7000C0
6000E0
0000C0
600000
E00000
6000C0
0001C0
3000C0
380700
330700
073200
037000
003000
ENDCHAR
STARTCHAR commaaccent
ENCODING 63171
SWIDTH 0 0
DWIDTH 0 0
BBX 2 7 6 -8
BITMAP
C0
C0
C0
C0
C0
80
80
ENDCHAR
STARTCHAR .notdef
ENCODING -1
SWIDTH 600 0
DWIDTH 19 0
BBX 11 18 4 0
BITMAP
FFE0
8020
8020
8020
8020
8020
8020
8020
8020
8020
8020
8020
8020
8020
8020
8020
8020
FFE0
ENDCHAR
STARTCHAR .null
ENCODING -1
SWIDTH 0 0
DWIDTH 0 0
BBX 1 1 0 0
BITMAP
00
ENDCHAR
STARTCHAR nonmarkingreturn
ENCODING -1
SWIDTH 333 0
DWIDTH 11 0
BBX 1 1 0 0
BITMAP
00
ENDCHAR
STARTCHAR uni0915094D
ENCODING -1
SWIDTH 519 0
DWIDTH 17 0
BBX 21 20 0 0
BITMAP
FFFFF8
001800
001000
001000
001000
0F17E0
181C30
301818
301000
201000
201000
201000
201000
301000
303000
183000
0FD000
001000
001000
001000
ENDCHAR
STARTCHAR uni0916094D
ENCODING -1
SWIDTH 468 0
DWIDTH 15 0
BBX 19 20 0 0
BITMAP
FFFFC0
030000
010000
010000
010000
010E00
011800
013000
033000
033000
7E3000
603000
303000
181860
180F80
0C0000
060000
020000
030000
018000
ENDCHAR
STARTCHAR uni0917094D
ENCODING -1
SWIDTH 264 0
DWIDTH 8 0
BBX 9 13 0 7
BITMAP
FF80
0C00
0C00
0C00
0C00
0C00
0C00
0C00
0C00
0C00
0C00
1800
7000
ENDCHAR
STARTCHAR uni0918094D
ENCODING -1
SWIDTH 321 0
DWIDTH 10 0
BBX 14 17 0 3
BITMAP
FFFC
1C00
1000
3000
3000
3000
3000
1800
0F80
1800
3000
3000
3000
3000
3004
180C
0FF8
ENDCHAR
STARTCHAR uni0919094D
ENCODING -1
SWIDTH 505 0
DWIDTH 16 0
BBX 17 27 0 -7
BITMAP
FFFF80
001000
001000
001000
001000
0FF000
1C0000
300000
300000
300600
180000
1FF000
003800
001800
000800
300800
300800
301800
181800
1FF000
000000
000000
018000
008000
00C000
006000
003000
ENDCHAR
STARTCHAR uni091A094D
ENCODING -1
SWIDTH 330 0
DWIDTH 11 0
BBX 15 16 0 4
BITMAP
FFFC
0000
0000
0000
0000
0000
7FC0
0600
0800
1800
1800
1800
1800
0806
0C0C
07F8
ENDCHAR
STARTCHAR uni091B094D
ENCODING -1
SWIDTH 581 0
DWIDTH 19 0
BBX 19 18 0 2
BITMAP
FFFFE0
1C0000
100000
300000
300000
301E00
300700
100300
180100
0F0100
180100
100100
300100
300100
300100
100300
180700
0FFE00
ENDCHAR
STARTCHAR uni091C094D
ENCODING -1
SWIDTH 309 0
DWIDTH 10 0
BBX 13 17 0 3
BITMAP
FFF8
0000
0000
0000
0000
0000
0000
3FF8
0300
0180
0180
0180
0180
0180
0180
0300
7E00
ENDCHAR
STARTCHAR uni091D094D
ENCODING -1
SWIDTH 432 0
DWIDTH 14 0
BBX 17 21 0 -1
BITMAP
FFFF80
002000
002000
002000
002000
0FE000
180000
300000
300000
100000
1FFF80
003000
001000
301000
301000
301000
383000
3FE000
300000
300000
300000
ENDCHAR
STARTCHAR uni091E094D
ENCODING -1
SWIDTH 359 0
DWIDTH 11 0
BBX 15 17 0 3
BITMAP
FFFE
0000
0000
0000
0000
3F00
0380
0180
0080
0080
00FE
0080
0080
0080
0080
0180
7F00
ENDCHAR
STARTCHAR uni091F094D
ENCODING -1
SWIDTH 485 0
DWIDTH 16 0
BBX 16 26 0 -6
BITMAP
FFFF
0030
0010
0010
0010
0010
0FF0
1800
3000
3000
3000
3000
3004
300C
300C
300C
1818
0FF0
0000
0000
0000
0180
00C0
0060
0060
0030
ENDCHAR
STARTCHAR uni0920094D
ENCODING -1
SWIDTH 512 0
DWIDTH 16 0
BBX 17 26 0 -6
BITMAP
FFFF80
001800
001800
001800
001000
003000
0FE000
181800
300C00
300C00
300C00
300C00
300C00
300C00
300C00
300C00
181800
0FF000
000000
000000
000000
018000
00C000
004000
006000
003000
ENDCHAR
STARTCHAR uni0921094D
ENCODING -1
SWIDTH 475 0
DWIDTH 15 0
BBX 16 27 0 -7
BITMAP
FFFF
0010
0010
0010
0010
0FF0
1800
1000
3000
3000
3000
1800
0FF0
0038
0008
0008
3008
3018
1818
1FF0
0000
0000
0180
00C0
0040
0060
0030
ENDCHAR
STARTCHAR uni0922094D
ENCODING -1
SWIDTH 485 0
DWIDTH 16 0
BBX 16 26 0 -6
BITMAP
FFFF
0018
0010
0010
0010
0010
0FF0
1800
3000
3000
3000
3078
30CC
308C
3084
300C
180C
0FF8
0000
0000
0000
0180
00C0
0040
0060
0030
ENDCHAR
STARTCHAR uni0923094D
ENCODING -1
SWIDTH 454 0
DWIDTH 15 0
BBX 15 14 0 6
BITMAP
FFFE
3030
1030
1030
1030
1030
1030
1030
1030
1030
1030
1030
1860
0FC0
ENDCHAR
STARTCHAR uni0924094D
ENCODING -1
SWIDTH 263 0
DWIDTH 8 0
BBX 12 20 0 0
BITMAP
FFF0
0000
0000
0000
0000
0000
0000
0FF0
1800
3000
3000
3000
3000
3000
3000
3000
3000
3000
1800
0F00
ENDCHAR
STARTCHAR uni0925094D
ENCODING -1
SWIDTH 359 0
DWIDTH 11 0
BBX 13 16 2 4
BITMAP
3E00
7300
4100
4180
4180
0180
0100
0300
FE00
8000
8000
8000
C000
C008
6018
3FF0
ENDCHAR
STARTCHAR uni0926094D
ENCODING -1
SWIDTH 489 0
DWIDTH 16 0
BBX 16 25 0 -5
BITMAP
FFFF
0018
0018
0018
0018
0FF8
1C00
1000
3000
3000
3000
3000
3008
3008
3008
1818
0FE8
0008
0008
0008
0180
0080
00C0
0060
0030
ENDCHAR
STARTCHAR uni0927094D
ENCODING -1
SWIDTH 321 0
DWIDTH 10 0
BBX 15 17 0 3
BITMAP
FF3E
1C00
1000
3000
3000
3000
3000
1800
0F80
1800
3000
3000
3000
3000
3004
180C
0FF8
ENDCHAR
STARTCHAR uni0928094D
ENCODING -1
SWIDTH 233 0
DWIDTH 7 0
BBX 11 14 0 6
BITMAP
FFE0
0000
0000
0000
0000
0000
0000
0000
3FE0
7000
6000
6000
6000
2000
ENDCHAR
STARTCHAR uni092A094D
ENCODING -1
SWIDTH 269 0
DWIDTH 9 0
BBX 13 14 0 6
BITMAP
FFF8
3000
1000
1000
1000
1000
1000
1000
1000
1000
1000
1018
1830
0FE0
ENDCHAR
STARTCHAR uni092B094D
ENCODING -1
SWIDTH 530 0
DWIDTH 17 0
BBX 21 20 0 0
BITMAP
FFFFF8
301800
101800
101800
101800
101BF0
101C38
101808
101800
101800
101800
181800
183800
0FF800
001800
001800
001800
001800
001800
001800
ENDCHAR
STARTCHAR uni092C094D
ENCODING -1
SWIDTH 265 0
DWIDTH 8 0
BBX 13 17 0 3
BITMAP
FFF8
0000
0000
0000
0000
0F80
1800
3800
3C00
3600
3300
3180
30D8
3078
3010
1830
0FE0
ENDCHAR
STARTCHAR uni092D094D
ENCODING -1
SWIDTH 261 0
DWIDTH 8 0
BBX 12 14 0 6
BITMAP
C0F0
7000
3000
1000
1000
1000
1000
1000
1000
1FF0
1000
1000
1000
1000
ENDCHAR
STARTCHAR uni092E094D
ENCODING -1
SWIDTH 261 0
DWIDTH 8 0
BBX 12 14 0 6
BITMAP
FFF0
3000
1000
1000
1000
1000
1000
1000
1000
1FF0
1000
1000
1000
1000
ENDCHAR
STARTCHAR uni092F094D
ENCODING -1
SWIDTH 323 0
DWIDTH 10 0
BBX 14 16 0 4
BITMAP
FFFC
0600
0100
0100
0100
0100
0300
3E00
3000
3000
3000
3000
3000
1004
180C
0FF8
ENDCHAR
STARTCHAR uni0930094D
ENCODING -1
SWIDTH 337 0
DWIDTH 11 0
BBX 11 26 0 -6
BITMAP
FFE0
0300
0100
0100
0100
0100
0100
0100
0300
0300
7E00
6000
3000
1000
1800
0C00
0600
0600
0300
0180
0000
0C00
0400
0600
0300
0180
ENDCHAR
STARTCHAR uni0932094D
ENCODING -1
SWIDTH 431 0
DWIDTH 14 0
BBX 18 18 0 2
BITMAP
FFFFC0
000000
000000
000000
000000
000000
0F8F80
18D9C0
307040
302000
302000
302000
302000
300000
300000
300000
180000
0F8000
ENDCHAR
STARTCHAR uni0933094D
ENCODING -1
SWIDTH 677 0
DWIDTH 22 0
BBX 22 18 0 2
BITMAP
FFFFFC
000000
000000
000000
000000
000000
0F8F80
18D8C0
303060
303020
302020
302020
302020
302020
302020
303060
187860
0FCFC0
ENDCHAR
STARTCHAR uni0935094D
ENCODING -1
SWIDTH 255 0
DWIDTH 8 0
BBX 13 17 0 3
BITMAP
FFF8
0000
0000
0000
0000
0F80
1800
3000
3000
3000
3000
3000
3018
3018
3010
1830
0FE0
ENDCHAR
STARTCHAR uni0936094D
ENCODING -1
SWIDTH 378 0
DWIDTH 12 0
BBX 10 20 1 0
BITMAP
1F00
3180
20C0
60C0
60C0
60C0
00C0
00C0
00C0
0180
FF00
4000
6000
3000
1800
1800
0C00
0600
0200
0300
ENDCHAR
STARTCHAR uni0937094D
ENCODING -1
SWIDTH 282 0
DWIDTH 9 0
BBX 13 14 0 6
BITMAP
FFF8
3000
1800
1C00
1600
1300
1180
10C0
1040
1020
1018
1018
1830
0FE0
ENDCHAR
STARTCHAR uni0938094D
ENCODING -1
SWIDTH 338 0
DWIDTH 11 0
BBX 15 20 0 0
BITMAP
FFFE
0300
0300
0300
0300
0300
0300
0200
0200
0600
7FFE
6000
3000
1000
1800
0C00
0C00
0600
0200
0300
ENDCHAR
STARTCHAR uni0939094D
ENCODING -1
SWIDTH 457 0
DWIDTH 15 0
BBX 18 21 0 -1
BITMAP
FFFF00
001800
001800
001800
001800
0FF800
180000
100000
100000
100000
180000
0FFFC0
1C0000
100000
300000
300000
300000
300000
100000
180000
0FF800
ENDCHAR
STARTCHAR uni0915093C094D
ENCODING -1
SWIDTH 519 0
DWIDTH 17 0
BBX 21 21 0 -1
BITMAP
FFFFF8
001800
001000
001000
001000
0F17E0
181C30
301818
301000
201000
201000
201000
201000
301000
303000
183000
0FD000
001000
001000
001000
080000
ENDCHAR
STARTCHAR uni0916093C094D
ENCODING -1
SWIDTH 463 0
DWIDTH 15 0
BBX 19 21 0 -1
BITMAP
FFFFC0
030000
010000
010000
010000
010E00
011800
013000
033000
033000
7E3000
603000
303000
181860
180F80
0C0000
060000
060000
030000
018000
300000
ENDCHAR
STARTCHAR uni0917093C094D
ENCODING -1
SWIDTH 264 0
DWIDTH 8 0
BBX 9 20 0 0
BITMAP
FF80
0C00
0C00
0C00
0C00
0C00
0C00
0C00
0C00
0C00
0C00
1800
7000
0000
0000
0000
0000
0000
0000
1800
ENDCHAR
STARTCHAR uni091C093C094D
ENCODING -1
SWIDTH 314 0
DWIDTH 10 0
BBX 13 22 0 -2
BITMAP
FFF8
0000
0000
0000
0000
0000
0000
3FF8
0300
0180
0180
0180
0180
0180
0180
0300
7E00
0000
0000
0000
0000
1800
ENDCHAR
STARTCHAR uni0928093C094D
ENCODING -1
SWIDTH 241 0
DWIDTH 8 0
BBX 11 20 0 0
BITMAP
FFE0
0000
0000
0000
0000
0000
0000
0000
1FE0
3000
6000
6000
2000
2000
0000
0000
0000
0000
0000
0C00
ENDCHAR
STARTCHAR uni092B093C094D
ENCODING -1
SWIDTH 530 0
DWIDTH 17 0
BBX 21 21 0 -1
BITMAP
FFFFF8
301800
101800
101800
101800
101BF0
101E38
101808
101800
101800
101800
181800
183800
0FF800
001800
001800
001800
001800
001800
001800
0C0000
ENDCHAR
STARTCHAR uni092F093C094D
ENCODING -1
SWIDTH 325 0
DWIDTH 10 0
BBX 14 21 0 -1
BITMAP
FFFC
0600
0100
0100
0100
0100
0300
3E00
3000
3000
3000
3000
3000
1004
180C
0FF8
0000
0000
0000
0000
0400
ENDCHAR
STARTCHAR uni09080902
ENCODING -1
SWIDTH 478 0
DWIDTH 15 0
BBX 16 29 0 -1
BITMAP
003E
0070
00C0
00C0
00CC
00C0
00C0
00C0
FFFF
0018
0010
0010
0010
0FF0
1C00
3000
3000
3000
1800
1FF0
0038
0008
3008
3008
3008
3818
3FF0
3000
3000
ENDCHAR
STARTCHAR uni09300941
ENCODING -1
SWIDTH 533 0
DWIDTH 17 0
BBX 18 20 0 0
BITMAP
FFFFC0
030000
010000
010000
010000
01F800
010C00
010600
030200
030200
7E0600
600600
300600
180C00
183800
0C7000
060000
020000
030000
018000
ENDCHAR
STARTCHAR uni09300942
ENCODING -1
SWIDTH 645 0
DWIDTH 21 0
BBX 21 20 0 0
BITMAP
FFFFF8
030000
010000
010000
010000
010F80
0118C0
011040
033060
033060
7E3060
600040
300040
1801C0
180380
0C0E00
060800
020000
030000
018000
ENDCHAR
STARTCHAR uni09390941
ENCODING -1
SWIDTH 495 0
DWIDTH 16 0
BBX 16 28 0 -8
BITMAP
FFFF
0018
0018
0018
0018
0FF8
1800
1000
1000
1000
1800
0FF0
1C38
1018
3008
3008
3000
3000
1000
1800
0FF0
0018
000C
200C
300C
180C
0F38
03F0
ENDCHAR
STARTCHAR uni09390942
ENCODING -1
SWIDTH 492 0
DWIDTH 16 0
BBX 16 28 0 -8
BITMAP
FFFF
0018
0018
0018
0018
0FF8
1800
1000
1000
1000
1000
1800
0FF0
1C38
1018
3008
3008
3000
1000
1800
0FE0
1C70
1818
1008
100C
1804
1C06
0F00
ENDCHAR
STARTCHAR uni09260943
ENCODING -1
SWIDTH 390 0
DWIDTH 12 0
BBX 13 18 0 2
BITMAP
FFF8
00C0
00C0
00C0
0FC0
1800
1000
3000
3000
1800
0F80
1800
1000
3000
3000
1000
1800
0FE0
ENDCHAR
STARTCHAR uni09390943
ENCODING -1
SWIDTH 519 0
DWIDTH 17 0
BBX 17 24 0 -4
BITMAP
FFFF80
001800
001000
001000
001000
0FF000
180000
300000
300000
300000
180000
0FFC00
18CE00
318200
318200
318000
318000
308000
30FC00
300000
300000
300000
180000
0FF800
ENDCHAR
STARTCHAR uni094D0930
ENCODING -1
SWIDTH 0 0
DWIDTH 0 0
BBX 10 6 -13 -6
BITMAP
0C00
1E00
3300
2300
6180
C0C0
ENDCHAR
STARTCHAR uni0930094D.1
ENCODING -1
SWIDTH 192 0
DWIDTH 6 0
BBX 12 9 -2 11
BITMAP
3F80
0000
0000
0000
0000
0000
8030
C060
7FC0
ENDCHAR
STARTCHAR uni0930094D.2
ENCODING -1
SWIDTH 0 0
DWIDTH 0 0
BBX 5 9 -4 19
BITMAP
78
E0
80
80
80
80
80
80
80
ENDCHAR
STARTCHAR uni0930094D0902
ENCODING -1
SWIDTH 0 0
DWIDTH 0 0
BBX 5 9 -4 19
BITMAP
78
E0
80
80
90
80
80
80
80
ENDCHAR
STARTCHAR uni093E0930094D
ENCODING -1
SWIDTH 231 0
DWIDTH 7 0
BBX 8 28 0 0
BITMAP
07
0C
18
18
10
10
10
10
FF
18
10
10
10
10
10
10
10
10
10
10
10
10
10
10
10
10
10
10
ENDCHAR
STARTCHAR uni093E0930094D0902
ENCODING -1
SWIDTH 231 0
DWIDTH 7 0
BBX 8 28 0 0
BITMAP
07
1C
18
10
11
10
10
10
FF
18
10
10
10
10
10
10
10
10
10
10
10
10
10
10
10
10
10
10
ENDCHAR
STARTCHAR uni0930094D.aMatraI
ENCODING -1
SWIDTH 0 0
DWIDTH 0 0
BBX 6 6 -2 20
BITMAP
3C
60
40
C0
C0
C0
ENDCHAR
STARTCHAR uni0902.aMatraI
ENCODING -1
SWIDTH 0 0
DWIDTH 0 0
BBX 2 1 1 24
BITMAP
C0
ENDCHAR
STARTCHAR uni0930094D0902.aMatraI
ENCODING -1
SWIDTH 0 0
DWIDTH 0 0
BBX 6 6 -2 20
BITMAP
3C
60
40
C8
C0
C0
ENDCHAR
STARTCHAR uni09400930094D
ENCODING -1
SWIDTH 231 0
DWIDTH 7 0
BBX 13 28 -5 0
BITMAP
3E38
73E0
40C0
C0C0
C080
C080
0080
0080
07F8
00C0
0080
0080
0080
0080
0080
0080
0080
0080
0080
0080
0080
0080
0080
0080
0080
0080
0080
0080
ENDCHAR
STARTCHAR uni09400902
ENCODING -1
SWIDTH 231 0
DWIDTH 7 0
BBX 13 28 -5 0
BITMAP
3F00
7380
4080
C098
C080
4080
0080
0080
07F8
00C0
0080
0080
0080
0080
0080
0080
0080
0080
0080
0080
0080
0080
0080
0080
0080
0080
0080
0080
ENDCHAR
STARTCHAR uni09400930094D0902
ENCODING -1
SWIDTH 231 0
DWIDTH 7 0
BBX 13 28 -5 0
BITMAP
3E38
73E0
40C0
C0C0
C088
4080
0080
0080
07F8
00C0
0080
0080
0080
0080
0080
0080
0080
0080
0080
0080
0080
0080
0080
0080
0080
0080
0080
0080
ENDCHAR
STARTCHAR uni0940.aLong
ENCODING -1
SWIDTH 231 0
DWIDTH 7 0
BBX 20 28 -12 0
BITMAP
3FFE00
E00700
C00100
800100
800100
800100
000100
000100
000FF0
000180
000100
000100
000100
000100
000100
000100
000100
000100
000100
000100
000100
000100
000100
000100
000100
000100
000100
000100
ENDCHAR
STARTCHAR uni09400930094D.aLong
ENCODING -1
SWIDTH 231 0
DWIDTH 7 0
BBX 20 28 -12 0
BITMAP
3FFC70
E007C0
C00180
800100
800100
800100
000100
000100
000FF0
000180
000100
000100
000100
000100
000100
000100
000100
000100
000100
000100
000100
000100
000100
000100
000100
000100
000100
000100
ENDCHAR
STARTCHAR uni09400902.aLong
ENCODING -1
SWIDTH 231 0
DWIDTH 7 0
BBX 20 28 -12 0
BITMAP
7FFE00
E00700
800100
800110
800100
800100
000100
000100
000FF0
000180
000100
000100
000100
000100
000100
000100
000100
000100
000100
000100
000100
000100
000100
000100
000100
000100
000100
000100
ENDCHAR
STARTCHAR uni09400930094D0902.aLong
ENCODING -1
SWIDTH 231 0
DWIDTH 7 0
BBX 20 28 -12 0
BITMAP
7FFC70
E007C0
800180
800100
800110
800100
000100
000100
000FF0
000180
000100
000100
000100
000100
000100
000100
000100
000100
000100
000100
000100
000100
000100
000100
000100
000100
000100
000100
ENDCHAR
STARTCHAR uni09470930094D
ENCODING -1
SWIDTH 0 0
DWIDTH 0 0
BBX 11 9 -10 19
BITMAP
C1E0
6380
6200
3200
1A00
0A00
0E00
0600
0200
ENDCHAR
STARTCHAR uni09470902
ENCODING -1
SWIDTH 0 0
DWIDTH 0 0
BBX 10 9 -10 19
BITMAP
C000
6000
6000
3000
18C0
1800
0C00
0600
0700
ENDCHAR
STARTCHAR uni09470901
ENCODING -1
SWIDTH 0 0
DWIDTH 0 0
BBX 16 9 -10 19
BITMAP
C030
6201
6301
3301
1983
19FE
0C00
0600
0300
ENDCHAR
STARTCHAR uni09470930094D0902
ENCODING -1
SWIDTH 0 0
DWIDTH 0 0
BBX 11 9 -10 19
BITMAP
C1E0
6380
7200
3200
1A40
0E00
0E00
0600
0200
ENDCHAR
STARTCHAR uni09480930094D
ENCODING -1
SWIDTH 0 0
DWIDTH 0 0
BBX 11 9 -10 19
BITMAP
8CE0
CD80
6D00
6600
3600
1600
0E00
0E00
0600
ENDCHAR
STARTCHAR uni09480902
ENCODING -1
SWIDTH 0 0
DWIDTH 0 0
BBX 11 9 -10 19
BITMAP
C200
C200
6200
3200
3260
1A00
0A00
0600
0200
ENDCHAR
STARTCHAR uni09480901
ENCODING -1
SWIDTH 0 0
DWIDTH 0 0
BBX 19 9 -10 19
BITMAP
C20400
424020
624060
324060
3260C0
1A3F80
0A0000
060000
020000
ENDCHAR
STARTCHAR uni09480930094D0902
ENCODING -1
SWIDTH 0 0
DWIDTH 0 0
BBX 11 9 -10 19
BITMAP
8CE0
CD80
6D00
6600
3640
1600
0E00
0E00
0600
ENDCHAR
STARTCHAR uni094B0930094D
ENCODING -1
SWIDTH 231 0
DWIDTH 7 0
BBX 10 28 -2 0
BITMAP
C1C0
C300
6600
2600
3400
1C00
0C00
0400
3FC0
0600
0400
0400
0400
0400
0400
0400
0400
0400
0400
0400
0400
0400
0400
0400
0400
0400
0400
0400
ENDCHAR
STARTCHAR uni094B0902
ENCODING -1
SWIDTH 231 0
DWIDTH 7 0
BBX 10 28 -2 0
BITMAP
8000
C000
6000
2180
3000
1800
0800
0400
3FC0
0600
0400
0400
0400
0400
0400
0400
0400
0400
0400
0400
0400
0400
0400
0400
0400
0400
0400
0400
ENDCHAR
STARTCHAR uni094B0930094D0902
ENCODING -1
SWIDTH 231 0
DWIDTH 7 0
BBX 10 28 -2 0
BITMAP
C1C0
C300
6600
3600
3440
1C00
0C00
0400
3FC0
0600
0400
0400
0400
0400
0400
0400
0400
0400
0400
0400
0400
0400
0400
0400
0400
0400
0400
0400
ENDCHAR
STARTCHAR uni094C0930094D
ENCODING -1
SWIDTH 231 0
DWIDTH 7 0
BBX 11 28 -3 0
BITMAP
C4E0
45C0
6500
3500
1500
1D00
0E00
0600
1FE0
0300
0200
0200
0200
0200
0200
0200
0200
0200
0200
0200
0200
0200
0200
0200
0200
0200
0200
0200
ENDCHAR
STARTCHAR uni094C0902
ENCODING -1
SWIDTH 231 0
DWIDTH 7 0
BBX 11 28 -3 0
BITMAP
C200
6200
2200
3260
1A00
0A00
0600
0200
1FE0
0300
0200
0200
0200
0200
0200
0200
0200
0200
0200
0200
0200
0200
0200
0200
0200
0200
0200
0200
ENDCHAR
STARTCHAR uni094C0930094D0902
ENCODING -1
SWIDTH 231 0
DWIDTH 7 0
BBX 11 28 -3 0
BITMAP
C4E0
45C0
6500
3500
1520
1D00
0E00
0600
1FE0
0300
0200
0200
0200
0200
0200
0200
0200
0200
0200
0200
0200
0200
0200
0200
0200
0200
0200
0200
ENDCHAR
STARTCHAR uni0915094D0937
ENCODING -1
SWIDTH 656 0
DWIDTH 21 0
BBX 19 20 2 0
BITMAP
0F03E0
19C300
304300
204300
204300
204300
304300
10C300
3FFF00
600300
C00300
C00300
C04300
C04300
C04300
E0C300
7F4300
004300
004300
004100
ENDCHAR
STARTCHAR uni0915094D0937094D
ENCODING -1
SWIDTH 429 0
DWIDTH 14 0
BBX 15 20 2 0
BITMAP
0F00
19C0
3040
2040
2040
2040
3040
10C0
3FFE
6000
C000
C000
C040
C040
C040
E0C0
7F40
0040
0040
0040
ENDCHAR
STARTCHAR uni0915094D0937094D092E
ENCODING -1
SWIDTH 933 0
DWIDTH 30 0
BBX 28 20 2 0
BITMAP
0F07FFF0
19C10180
30410180
20410180
20410180
20410180
30410180
10C10180
3FFF0180
4001FF80
C0010180
C0010180
C0410180
C0410180
C0400180
E0C00180
7F400180
00400180
00400180
00400080
ENDCHAR
STARTCHAR uni0915094D0937094D092E094D
ENCODING -1
SWIDTH 717 0
DWIDTH 23 0
BBX 25 20 2 0
BITMAP
0F07FF80
19C10000
30410000
20410000
20410000
20410000
30410000
10C10000
3FFF0000
4001FF80
C0010000
C0010000
C0410000
C0410000
C0400000
E0C00000
7F400000
00400000
00400000
00400000
ENDCHAR
STARTCHAR uni0915094D0937094D092E094D092F
ENCODING -1
SWIDTH 1283 0
DWIDTH 41 0
BBX 40 20 2 0
BITMAP
0F07FFFFFF
19C1003030
3041000810
2041000810
2041000810
2041000810
3041000810
10C1001810
3FFF01E010
4001FF8010
C001018010
C001018010
C041018030
C041008030
C04000C070
E0C0007FD0
7F40000010
0040000010
0040000010
0040000010
ENDCHAR
STARTCHAR uni0915094D0937094D092F
ENCODING -1
SWIDTH 989 0
DWIDTH 32 0
BBX 30 20 2 0
BITMAP
0F07FFFC
19C06060
30403060
20401060
20401060
20401060
30403060
10C07060
3FFFE060
60020060
C0020060
C0020060
C0420060
C0430060
C04181E0
C0C0FF60
7F400060
00400060
00400060
00400040
ENDCHAR
STARTCHAR uni0915094D0937094D0935
ENCODING -1
SWIDTH 936 0
DWIDTH 30 0
BBX 28 20 2 0
BITMAP
0F07FFF0
19C00180
30400180
20400180
20400180
2040F980
3041C180
10C10180
3FFF0180
60010180
C0010180
C0010180
C0410180
C0410180
C0410180
E0C18380
7FC0FF80
00400180
00400180
00400080
ENDCHAR
STARTCHAR uni091C094D091E
ENCODING -1
SWIDTH 629 0
DWIDTH 20 0
BBX 21 22 0 -2
BITMAP
FFFFF8
000180
000080
000080
000080
0FFF80
180180
300080
300080
300080
180080
1FE080
003080
001880
301880
301880
301880
383880
3FF080
300080
300000
300000
ENDCHAR
STARTCHAR uni091C094D091E094D
ENCODING -1
SWIDTH 398 0
DWIDTH 13 0
BBX 16 22 0 -2
BITMAP
FFFF
0000
0000
0000
0000
0FFF
1800
3000
3000
3000
1800
1FE0
0030
0018
3018
3018
3018
3838
3FF0
3000
3000
3000
ENDCHAR
STARTCHAR uni091C094D091E094D092F
ENCODING -1
SWIDTH 975 0
DWIDTH 31 0
BBX 32 22 0 -2
BITMAP
FFFFFFFF
00003810
00000810
00000C10
00000C10
0FFF0C10
18030C10
30019810
3001F010
30018010
18018010
1FE18010
00318010
00188030
3018C070
30187FD0
30180010
38380010
3FF00010
30000010
30000000
30000000
ENDCHAR
STARTCHAR uni0915094D0928
ENCODING -1
SWIDTH 1003 0
DWIDTH 32 0
BBX 33 20 0 0
BITMAP
FFFFFFFF80
0018001800
0010000800
0010000800
0010000800
0F17E00800
181C300800
3018180800
30101FF800
2010180800
2010300800
2010300800
2010100800
3010100800
3030000800
1830000800
0FD0000800
0010000800
0010000800
0010000800
ENDCHAR
STARTCHAR uni0916094D0928
ENCODING -1
SWIDTH 958 0
DWIDTH 31 0
BBX 31 20 0 0
BITMAP
FFFFFFFE
03000030
01000030
01000030
01000030
010F8030
0118C030
01306030
03302030
03303FF0
7E307030
60306030
30186030
180FE030
18006030
0C002030
06000030
02000030
03000030
01800030
ENDCHAR
STARTCHAR uni0917094D0928
ENCODING -1
SWIDTH 736 0
DWIDTH 24 0
BBX 24 20 0 0
BITMAP
FFFFFF
0C0018
0C0018
0C0018
0C0018
0C0018
0C0018
0C0018
0C1FF8
0C3018
0C2018
182018
703018
003018
000018
000018
000018
000018
000018
000018
ENDCHAR
STARTCHAR uni0918094D0928
ENCODING -1
SWIDTH 814 0
DWIDTH 26 0
BBX 27 20 0 0
BITMAP
FFFFFFE0
18000600
10000200
30000200
30000200
30000200
18000200
0F800200
1807FE00
30060600
300C0200
300C0200
300C0200
181C0200
0FF60200
00000200
00000200
00000200
00000200
00000200
ENDCHAR
STARTCHAR uni091A094D0928
ENCODING -1
SWIDTH 829 0
DWIDTH 27 0
BBX 27 20 0 0
BITMAP
FFFFFFE0
00000300
00000300
00000300
00000300
00000300
7FC00300
06000300
0803FF00
18060300
18040300
18040300
08040300
0C0E0300
07FE0300
00000300
00000300
00000300
00000300
00000300
ENDCHAR
STARTCHAR uni091B094D0928
ENCODING -1
SWIDTH 977 0
DWIDTH 31 0
BBX 32 20 0 0
BITMAP
FFFFFFFF
1C000018
10000010
30000010
30000010
301E0010
30070010
10030010
18011FF0
0F013010
18012010
10012010
30012010
30013010
30010010
10030010
18070010
0FFE0010
00000010
00000010
ENDCHAR
STARTCHAR uni091C094D0928
ENCODING -1
SWIDTH 831 0
DWIDTH 27 0
BBX 27 20 0 0
BITMAP
FFFFFFE0
00000300
00000300
00000300
00000300
00000300
00000300
00000300
3FFFFF00
03070300
01840300
01840300
01860300
01820300
01800300
01800300
03000300
7E000300
00000300
00000300
ENDCHAR
STARTCHAR uni091D094D0928
ENCODING -1
SWIDTH 935 0
DWIDTH 30 0
BBX 30 21 0 -1
BITMAP
FFFFFFFC
00200060
00200060
00200060
00200060
0FE00060
18000060
30000060
30007FE0
1000E060
1FFFC060
0030C060
0010C060
30104060
30100060
30100060
38300060
3FE00060
30000060
30000020
30000000
ENDCHAR
STARTCHAR uni091F094D0928
ENCODING -1
SWIDTH 494 0
DWIDTH 16 0
BBX 16 28 0 -8
BITMAP
FFFF
0018
0010
0010
0010
0010
0010
0FF0
1800
3000
3000
3004
3004
3004
300C
1818
0FF0
0010
0010
0010
0010
1FF0
3810
3010
3010
1010
0010
0010
ENDCHAR
STARTCHAR uni0920094D0928
ENCODING -1
SWIDTH 516 0
DWIDTH 17 0
BBX 17 28 0 -8
BITMAP
FFFF80
001800
001800
001800
001800
003000
0FE000
181800
300C00
300C00
300400
300400
300400
300C00
300C00
181800
0FF000
001000
001000
001000
001000
1FF000
381000
301000
301000
101000
001000
001000
ENDCHAR
STARTCHAR uni0921094D0928
ENCODING -1
SWIDTH 481 0
DWIDTH 15 0
BBX 16 28 0 -8
BITMAP
FFFF
0018
0010
0010
0010
0FF0
1800
3000
3000
3000
1800
1FF0
0018
0008
3008
3008
1818
1FF0
0010
0010
0010
1FF0
1810
3010
3010
1010
0010
0010
ENDCHAR
STARTCHAR uni0924094D0928
ENCODING -1
SWIDTH 756 0
DWIDTH 24 0
BBX 25 20 0 0
BITMAP
FFFFFF80
00000800
00000800
00000800
00000800
00000800
00000800
0FF00800
181FF800
30180800
30300800
30100800
30100800
30100800
30000800
30000800
30000800
30000800
18000800
0F000800
ENDCHAR
STARTCHAR uni0925094D0928
ENCODING -1
SWIDTH 855 0
DWIDTH 27 0
BBX 26 20 2 0
BITMAP
3E3FFFC0
77000600
61000400
41800400
41800400
01800400
01000400
03000400
FE07FC00
800C0400
80080400
C0080400
C0080400
603C0400
3FEC0400
00000400
00000400
00000400
00000400
00000400
ENDCHAR
STARTCHAR uni0926094D0928
ENCODING -1
SWIDTH 955 0
DWIDTH 31 0
BBX 31 27 0 -7
BITMAP
FFFFFFFE
00180030
00180030
00180030
00180030
0FF80030
1C000030
10000030
30003FF0
30007030
30004030
30004030
30086030
30086030
30080030
18180030
0FE80030
00080030
00080030
00080030
00000000
00000000
000C0000
00040000
00060000
00030000
00010000
ENDCHAR
STARTCHAR uni0927094D0928
ENCODING -1
SWIDTH 814 0
DWIDTH 26 0
BBX 27 20 0 0
BITMAP
FF0FFFE0
18000600
10000200
30000200
30000200
30000200
18000200
0F800200
1807FE00
30060600
300C0200
300C0200
300C0200
181C0200
0FF60200
00000200
00000200
00000200
00000200
00000200
ENDCHAR
STARTCHAR uni0928094D0928
ENCODING -1
SWIDTH 738 0
DWIDTH 24 0
BBX 24 20 0 0
BITMAP
FFFFFF
000018
000018
000018
000018
000018
000018
000018
1FFFF8
303818
603018
603018
203018
201018
000018
000018
000018
000018
000018
000018
ENDCHAR
STARTCHAR uni092A094D0928
ENCODING -1
SWIDTH 782 0
DWIDTH 25 0
BBX 25 20 0 0
BITMAP
FFFFFF80
30000C00
10000400
10000400
10000400
10000400
10000400
10000400
100FFC00
100C0C00
10180400
18380400
0FE80400
00080400
00000400
00000400
00000400
00000400
00000400
00000400
ENDCHAR
STARTCHAR uni092B094D0928
ENCODING -1
SWIDTH 1013 0
DWIDTH 32 0
BBX 33 20 0 0
BITMAP
FFFFFFFF80
3018000C00
1018000C00
1018000C00
1018000C00
101BE00C00
101C300C00
1018180C00
10180FFC00
10181C0C00
1018100C00
1818100C00
1838100C00
0FF8180C00
0018000C00
0018000C00
0018000C00
0018000C00
0018000C00
0018000C00
ENDCHAR
STARTCHAR uni092C094D0928
ENCODING -1
SWIDTH 810 0
DWIDTH 26 0
BBX 26 20 0 0
BITMAP
FFFFFFC0
00000600
00000600
00000600
00000600
0F800600
18000600
38000600
3407FE00
320E0600
310C0600
308C0600
304C0600
30240600
30100600
18300600
0FE00600
00000600
00000600
00000600
ENDCHAR
STARTCHAR uni092D094D0928
ENCODING -1
SWIDTH 757 0
DWIDTH 24 0
BBX 25 20 0 0
BITMAP
C0FFFF80
70000800
30000800
10000800
10000800
10000800
10000800
10000800
101FF800
1FF80800
10100800
10100800
10100800
10080800
00000800
00000800
00000800
00000800
00000800
00000800
ENDCHAR
STARTCHAR uni092E094D0928
ENCODING -1
SWIDTH 757 0
DWIDTH 24 0
BBX 25 20 0 0
BITMAP
FFFFFF80
30000800
10000800
10000800
10000800
10000800
10000800
10000800
101FF800
1FF80800
10100800
10100800
10100800
10080800
00000800
00000800
00000800
00000800
00000800
00000800
ENDCHAR
STARTCHAR uni092F094D0928
ENCODING -1
SWIDTH 829 0
DWIDTH 27 0
BBX 27 20 0 0
BITMAP
FFFFFFE0
06000300
01000300
01000300
01000300
01000300
03000300
3E000300
3003FF00
30060300
30040300
30040300
10040300
181E0300
0FF20300
00000300
00000300
00000300
00000300
00000300
ENDCHAR
STARTCHAR uni0935094D0928
ENCODING -1
SWIDTH 798 0
DWIDTH 26 0
BBX 26 20 0 0
BITMAP
FFFFFFC0
00000600
00000600
00000600
00000600
0F800600
18000600
30000600
3007FE00
300E0600
30080600
30080600
300C0600
300C0600
30100600
18300600
0FE00600
00000600
00000600
00000600
ENDCHAR
STARTCHAR uni0936094D0928
ENCODING -1
SWIDTH 845 0
DWIDTH 27 0
BBX 27 20 1 0
BITMAP
1F0FFFE0
31800600
20C00200
60C00200
60C00200
60C00200
00C00200
00C00200
00C7FE00
01860600
FF0C0200
400C0200
60040200
30040200
18000200
18000200
0C000200
06000200
02000200
03000200
ENDCHAR
STARTCHAR uni0938094D0928
ENCODING -1
SWIDTH 831 0
DWIDTH 27 0
BBX 27 20 0 0
BITMAP
FFFFFFE0
03000300
03000300
03000300
03000300
03000300
03000300
02000300
0203FF00
06070300
7FFE0300
60040300
30060300
10060300
18000300
0C000300
0C000300
06000300
02000300
03000300
ENDCHAR
STARTCHAR uni0939094D0928
ENCODING -1
SWIDTH 500 0
DWIDTH 16 0
BBX 16 23 0 -3
BITMAP
FFFF
0008
0008
0008
0008
0FF8
1800
1000
1000
1000
1800
0FFC
1C1C
1034
3064
30C4
3084
3084
30C4
3040
1000
1800
0FF8
ENDCHAR
STARTCHAR uni0915094D0930
ENCODING -1
SWIDTH 725 0
DWIDTH 23 0
BBX 24 21 0 -1
BITMAP
FFFFFF
001800
001000
001000
001000
0F17E0
181C30
301818
301008
201008
201008
201008
201008
301008
303018
183038
0FD1F0
009000
031000
061000
0C0000
ENDCHAR
STARTCHAR uni0916094D0930
ENCODING -1
SWIDTH 698 0
DWIDTH 22 0
BBX 23 21 0 -1
BITMAP
FFFFFE
030030
010020
010020
010020
010F20
011820
011020
033020
033020
7E3020
603020
303020
181860
180FA0
0C01A0
060320
020620
030420
018C20
001800
ENDCHAR
STARTCHAR uni0917094D0930
ENCODING -1
SWIDTH 494 0
DWIDTH 16 0
BBX 16 20 0 0
BITMAP
FFFF
0C18
0C18
0C18
0C18
0C18
0C18
0C18
0C18
0C18
0C18
1838
7038
0078
00D8
0198
0318
0618
0C18
1818
ENDCHAR
STARTCHAR uni0918094D0930
ENCODING -1
SWIDTH 559 0
DWIDTH 18 0
BBX 18 21 0 -1
BITMAP
FFFFC0
1C0600
100600
300600
300600
300600
300600
180600
0F8600
180600
300600
300600
300600
300600
300600
180E00
0FFE00
002600
00C600
018600
060000
ENDCHAR
STARTCHAR uni0919094D0930
ENCODING -1
SWIDTH 505 0
DWIDTH 16 0
BBX 17 25 0 -5
BITMAP
FFFF80
001000
001000
001000
001000
0FF000
1C0000
300000
300000
300600
180000
1FF000
003800
001800
000800
000800
300800
301800
181800
1FF000
03C000
06C000
0C6000
083000
181800
ENDCHAR
STARTCHAR uni091A094D0930
ENCODING -1
SWIDTH 563 0
DWIDTH 18 0
BBX 19 21 0 -1
BITMAP
FFFFE0
000600
000200
000200
000200
000200
7FC200
060200
080200
180200
180200
180200
180600
080600
0C0E00
07FA00
003200
006200
01C200
030200
060000
ENDCHAR
STARTCHAR uni091B094D0930
ENCODING -1
SWIDTH 581 0
DWIDTH 19 0
BBX 19 23 0 -3
BITMAP
FFFFE0
1C0300
100200
300200
300200
300200
301E00
100700
180300
0F0100
180100
100100
300100
300100
300100
100300
180700
0FFE00
01E000
01B000
031800
061800
0E0C00
ENDCHAR
STARTCHAR uni091C094D0930
ENCODING -1
SWIDTH 547 0
DWIDTH 18 0
BBX 18 21 0 -1
BITMAP
FFFFC0
000600
000600
000600
000600
000600
000600
3FFE00
030600
018600
018600
018600
018600
018600
018E00
031E00
7E3600
006600
00C600
018600
030000
ENDCHAR
STARTCHAR uni091D094D0930
ENCODING -1
SWIDTH 684 0
DWIDTH 22 0
BBX 22 21 0 -1
BITMAP
FFFFFC
002060
002060
002060
002060
0FE060
180060
300060
300060
100060
1FFFE0
003060
001060
301060
3010E0
3011E0
3831E0
3FE360
300660
300C60
301800
ENDCHAR
STARTCHAR uni091E094D0930
ENCODING -1
SWIDTH 598 0
DWIDTH 19 0
BBX 20 20 0 0
BITMAP
FFFFF0
000300
000100
000100
000100
3F0100
038100
018100
008100
008100
00FF00
008100
008100
008300
008700
018D00
7F1900
003100
006100
00C100
ENDCHAR
STARTCHAR uni091F094D0930
ENCODING -1
SWIDTH 485 0
DWIDTH 16 0
BBX 16 23 0 -3
BITMAP
FFFF
0030
0010
0010
0010
0010
0FF0
1800
3000
3000
3000
3000
300C
300C
300C
300C
1818
0FF0
03C0
0260
0630
0C10
1818
ENDCHAR
STARTCHAR uni0920094D0930
ENCODING -1
SWIDTH 512 0
DWIDTH 16 0
BBX 17 23 0 -3
BITMAP
FFFF80
001800
001800
001800
001000
003000
0FE000
181800
300C00
300C00
300C00
300C00
300C00
300C00
300C00
300C00
181800
0FF000
03C000
036000
063000
0C3000
1C1800
ENDCHAR
STARTCHAR uni0921094D0930
ENCODING -1
SWIDTH 475 0
DWIDTH 15 0
BBX 16 25 0 -5
BITMAP
FFFF
0010
0010
0010
0010
0FF0
1C00
3000
3000
3000
1800
1FF0
0038
0018
0008
0008
3008
3018
1818
1FF0
03C0
0660
0460
0C30
1818
ENDCHAR
STARTCHAR uni0922094D0930
ENCODING -1
SWIDTH 485 0
DWIDTH 16 0
BBX 16 23 0 -3
BITMAP
FFFF
0018
0010
0010
0010
0010
0FF0
1800
3000
3000
3000
3078
30CC
308C
3084
300C
180C
0FF8
03C0
0360
0630
0C30
1C18
ENDCHAR
STARTCHAR uni0923094D0930
ENCODING -1
SWIDTH 681 0
DWIDTH 22 0
BBX 22 20 0 0
BITMAP
FFFFFC
303060
103060
103060
103060
103060
103060
103060
103060
103060
103060
1030E0
1860E0
0FC160
000360
000660
000C60
001860
003060
006060
ENDCHAR
STARTCHAR uni0924094D0930
ENCODING -1
SWIDTH 493 0
DWIDTH 16 0
BBX 16 20 0 0
BITMAP
FFFF
0018
0018
0018
0018
0018
0FD8
1838
3018
3018
3018
3018
0018
0038
00F8
01D8
0318
0618
1C18
3018
ENDCHAR
STARTCHAR uni0925094D0930
ENCODING -1
SWIDTH 593 0
DWIDTH 19 0
BBX 17 21 2 -1
BITMAP
3E0780
730C00
410C00
418C00
418C00
018C00
010C00
030C00
FE0C00
800C00
800C00
800C00
C00C00
C00C00
601C00
3FFC00
00EC00
018C00
030C00
060C00
1C0000
ENDCHAR
STARTCHAR uni0926094D0930
ENCODING -1
SWIDTH 489 0
DWIDTH 16 0
BBX 16 21 0 -1
BITMAP
FFFF
0018
0018
0018
0018
0FF8
1C00
1000
3000
3000
3000
3000
3008
3008
3008
1818
0FE8
00C8
0188
0308
0600
ENDCHAR
STARTCHAR uni0927094D0930
ENCODING -1
SWIDTH 560 0
DWIDTH 18 0
BBX 18 21 0 -1
BITMAP
FE3FC0
180600
100600
300600
300600
300600
300600
180600
0F8600
180600
100600
300600
300600
300600
100600
180E00
0FFE00
003600
00C600
018600
070000
ENDCHAR
STARTCHAR uni0928094D0930
ENCODING -1
SWIDTH 473 0
DWIDTH 15 0
BBX 16 20 0 0
BITMAP
FFFF
0030
0010
0010
0010
0010
0010
0010
1FF0
3010
6030
6070
2050
20D0
0190
0310
0610
0C10
1810
3010
ENDCHAR
STARTCHAR uni092A094D0930
ENCODING -1
SWIDTH 503 0
DWIDTH 16 0
BBX 17 21 0 -1
BITMAP
FFFF80
301800
100800
100800
100800
100800
100800
100800
100800
100800
100800
101800
183800
0FE800
004800
008800
010800
030800
060800
0C0800
180000
ENDCHAR
STARTCHAR uni092B094D0930
ENCODING -1
SWIDTH 741 0
DWIDTH 24 0
BBX 24 20 0 0
BITMAP
FFFFFF
301800
101800
101800
101800
101BF0
101E38
101808
10180C
10180C
10180C
18180C
18380C
0FF80C
00D808
019818
0319F0
061800
0C1800
181800
ENDCHAR
STARTCHAR uni092C094D0930
ENCODING -1
SWIDTH 491 0
DWIDTH 16 0
BBX 16 21 0 -1
BITMAP
FFFF
0018
0018
0018
0018
0F98
1818
3818
3C18
3618
3318
3198
30D8
3038
3018
1838
0FF8
00D8
0198
0218
0C00
ENDCHAR
STARTCHAR uni092D094D0930
ENCODING -1
SWIDTH 491 0
DWIDTH 16 0
BBX 16 20 0 0
BITMAP
C0FF
7018
3018
1018
1018
1018
1018
1018
1018
1FF8
1018
1038
1078
10D8
0098
0198
0318
0618
0C18
1818
ENDCHAR
STARTCHAR uni092E094D0930
ENCODING -1
SWIDTH 490 0
DWIDTH 16 0
BBX 16 20 0 0
BITMAP
FFFF
3018
1018
1018
1018
1018
1018
1018
1018
1FF8
1018
1038
1078
10D8
0198
0118
0318
0618
0C18
1818
ENDCHAR
STARTCHAR uni092F094D0930
ENCODING -1
SWIDTH 564 0
DWIDTH 18 0
BBX 19 21 0 -1
BITMAP
FFFFE0
060600
010200
010200
010200
010200
030200
3E0200
300200
300200
300200
300200
300600
100600
180E00
0FFA00
007200
00C200
018200
030200
060000
ENDCHAR
STARTCHAR uni0935094D0930
ENCODING -1
SWIDTH 484 0
DWIDTH 15 0
BBX 16 21 0 -1
BITMAP
FFFF
0018
0018
0018
0018
0F98
1818
3018
3018
3018
3018
3018
3018
3018
3018
1838
0FD8
0098
0318
0618
0C00
ENDCHAR
STARTCHAR uni0936094D0930
ENCODING -1
SWIDTH 558 0
DWIDTH 18 0
BBX 17 20 1 0
BITMAP
1F0F80
318C00
60CC00
60CC00
60CC00
60CC00
208C00
318C00
1F0C00
0E0C00
3B8C00
60EC00
C07C00
006C00
01CC00
030C00
0E0C00
080C00
000C00
000C00
ENDCHAR
STARTCHAR uni0938094D0930
ENCODING -1
SWIDTH 604 0
DWIDTH 19 0
BBX 20 20 0 0
BITMAP
FFFFF0
030180
030100
030100
030100
030100
030100
020100
020100
060100
7FFF00
600700
300D00
101900
183100
0C2100
0C4100
060100
020100
030100
ENDCHAR
STARTCHAR uni0939094D0930
ENCODING -1
SWIDTH 505 0
DWIDTH 16 0
BBX 17 22 0 -2
BITMAP
FFFF80
001800
001800
001800
001800
0FF800
180000
300000
300000
300000
180000
0FFC00
181C00
303400
306400
30C400
318400
330400
300000
300000
180000
0FF800
ENDCHAR
STARTCHAR uni0915093C094D0930
ENCODING -1
SWIDTH 725 0
DWIDTH 23 0
BBX 24 23 0 -3
BITMAP
FFFFFF
001800
001000
001000
001000
0F17E0
181C30
301818
301008
201008
201008
201008
201008
301008
303018
183038
0FD1F0
009000
011000
061000
0C0000
080000
010000
ENDCHAR
STARTCHAR uni0916093C094D0930
ENCODING -1
SWIDTH 698 0
DWIDTH 22 0
BBX 23 23 0 -3
BITMAP
FFFFFE
030030
010020
010020
010020
010F20
011820
011020
033020
033020
7E3020
603020
303020
101860
180FA0
0C01A0
060320
060620
030420
018C20
001800
001000
000200
ENDCHAR
STARTCHAR uni0917093C094D0930
ENCODING -1
SWIDTH 494 0
DWIDTH 16 0
BBX 16 23 0 -3
BITMAP
FFFF
0C18
0C18
0C18
0C18
0C18
0C18
0C18
0C18
0C18
0C18
1838
7038
0078
00D8
0198
0318
0618
0418
0C18
1008
0000
0100
ENDCHAR
STARTCHAR uni091C093C094D0930
ENCODING -1
SWIDTH 547 0
DWIDTH 18 0
BBX 18 21 0 -1
BITMAP
FFFFC0
000600
000600
000600
000600
000600
000600
3FFE00
030600
018600
018600
018600
018600
018600
018E00
031E00
7E3600
006600
00C600
018600
630000
ENDCHAR
STARTCHAR uni0921093C094D0930
ENCODING -1
SWIDTH 475 0
DWIDTH 15 0
BBX 16 25 0 -5
BITMAP
FFFF
0010
0010
0010
0010
0FF0
1C00
3000
3000
3000
1800
1FF0
0038
0018
0008
0008
3008
3018
1818
1FF0
03C0
C660
0460
0C30
1818
ENDCHAR
STARTCHAR uni0922093C094D0930
ENCODING -1
SWIDTH 485 0
DWIDTH 16 0
BBX 16 23 0 -3
BITMAP
FFFF
0018
0010
0010
0010
0010
0FF0
1800
3000
3000
3000
3078
30CC
308C
3084
300C
180C
0FF8
03C0
C360
0630
0C30
1C18
ENDCHAR
STARTCHAR uni0928093C094D0930
ENCODING -1
SWIDTH 473 0
DWIDTH 15 0
BBX 16 23 0 -3
BITMAP
FFFF
0030
0010
0010
0010
0010
0010
0010
1FF0
3010
6030
6030
2070
20D0
0190
0310
0610
0410
0C10
1810
2000
0000
0600
ENDCHAR
STARTCHAR uni092B093C094D0930
ENCODING -1
SWIDTH 741 0
DWIDTH 24 0
BBX 24 23 0 -3
BITMAP
FFFFFF
301800
101800
101800
101800
101BF0
101E38
101808
10180C
10180C
10180C
18180C
18380C
0FF80C
00D808
019818
0319F0
061800
061800
0C1800
180800
000000
010000
ENDCHAR
STARTCHAR uni092F093C094D0930
ENCODING -1
SWIDTH 564 0
DWIDTH 18 0
BBX 19 23 0 -3
BITMAP
FFFFE0
060600
010200
010200
010200
010200
030200
3E0200
300200
300200
300200
300200
300600
100600
180E00
0FFA00
007200
00E200
01C200
038200
070000
060000
004000
ENDCHAR
STARTCHAR uni0915094D0930094D
ENCODING -1
SWIDTH 518 0
DWIDTH 17 0
BBX 21 21 0 -1
BITMAP
FFFFF8
001800
001000
001000
001000
0F17E0
181C30
301818
301000
201000
201000
201000
201000
301000
303000
183000
0FD000
009000
031000
061000
0C0000
ENDCHAR
STARTCHAR uni0916094D0930094D
ENCODING -1
SWIDTH 469 0
DWIDTH 15 0
BBX 19 21 0 -1
BITMAP
FFFFC0
030000
010000
010000
010000
010F00
011800
011000
033000
033000
7E3000
603000
303060
1818C0
180FC0
0C0180
060300
020600
030400
018C00
001800
ENDCHAR
STARTCHAR uni0917094D0930094D
ENCODING -1
SWIDTH 264 0
DWIDTH 8 0
BBX 13 20 0 0
BITMAP
FF80
0C00
0C00
0C00
0C00
0C00
0C00
0C00
0C00
0C00
0C18
1830
7060
0040
0080
0180
0300
0600
0C00
1800
ENDCHAR
STARTCHAR uni0918094D0930094D
ENCODING -1
SWIDTH 319 0
DWIDTH 10 0
BBX 14 21 0 -1
BITMAP
FFFC
1C00
1000
3000
3000
3000
3000
1800
0F80
1800
3000
3000
3000
3000
3004
180C
0FF8
0020
00C0
0180
0600
ENDCHAR
STARTCHAR uni091A094D0930094D
ENCODING -1
SWIDTH 331 0
DWIDTH 11 0
BBX 15 21 0 -1
BITMAP
FFF8
0000
0000
0000
0000
0000
7FC0
0600
0800
1800
1800
1800
1800
0806
0C0C
07F8
0030
0060
01C0
0300
0600
ENDCHAR
STARTCHAR uni091C094D0930094D
ENCODING -1
SWIDTH 312 0
DWIDTH 10 0
BBX 14 21 0 -1
BITMAP
FFF8
0000
0000
0000
0000
0000
0000
3FF8
0300
0180
0180
0180
0180
0184
018C
0318
7F30
0060
00C0
0180
0300
ENDCHAR
STARTCHAR uni091D094D0930094D
ENCODING -1
SWIDTH 441 0
DWIDTH 14 0
BBX 18 21 0 -1
BITMAP
FFFFC0
002000
002000
002000
002000
0FE000
180000
300000
300000
100000
1FFFC0
003040
001040
301040
3010C0
301180
383100
3FE300
300600
300C00
301800
ENDCHAR
STARTCHAR uni091E094D0930094D
ENCODING -1
SWIDTH 374 0
DWIDTH 12 0
BBX 16 20 0 0
BITMAP
FFFE
0000
0000
0000
0000
3F00
0380
0180
0080
0080
00FF
0081
0081
0081
0082
0184
7F08
0018
0030
00E0
ENDCHAR
STARTCHAR uni091F094D0930094D
ENCODING -1
SWIDTH 485 0
DWIDTH 16 0
BBX 16 28 0 -8
BITMAP
FFFF
0030
0010
0010
0010
0010
0FF0
1800
3000
3000
3000
3000
300C
300C
300C
300C
1818
0FF0
03C0
0260
0630
0C10
1818
0080
00C0
0040
0060
0030
ENDCHAR
STARTCHAR uni0920094D0930094D
ENCODING -1
SWIDTH 512 0
DWIDTH 16 0
BBX 17 28 0 -8
BITMAP
FFFF80
001800
001800
001800
001000
003000
0FE000
181800
300C00
300C00
300C00
300C00
300C00
300C00
300C00
300C00
181800
0FF000
03C000
036000
063000
0C1000
181800
008000
00C000
006000
006000
003000
ENDCHAR
STARTCHAR uni0921094D0930094D
ENCODING -1
SWIDTH 475 0
DWIDTH 15 0
BBX 16 30 0 -10
BITMAP
FFFF
0010
0010
0010
0010
0FF0
1C00
3000
3000
3000
1800
1FF0
0038
0018
0008
0008
3008
3018
1818
1FF0
03C0
0660
0460
0C30
1818
0180
00C0
0040
0060
0030
ENDCHAR
STARTCHAR uni0922094D0930094D
ENCODING -1
SWIDTH 485 0
DWIDTH 16 0
BBX 16 29 0 -9
BITMAP
FFFF
0018
0010
0010
0010
0010
0FF0
1800
3000
3000
3000
3078
30CC
308C
3084
300C
180C
0FF8
01C0
0360
0630
0C10
0C18
0080
00C0
0040
0060
0030
0030
ENDCHAR
STARTCHAR uni0923094D0930094D
ENCODING -1
SWIDTH 457 0
DWIDTH 15 0
BBX 19 20 0 0
BITMAP
FFFE00
303000
103000
103000
103000
103000
103000
103000
103000
103000
103060
1030C0
186080
0FC100
000300
000600
000C00
001800
003000
006000
ENDCHAR
STARTCHAR uni0924094D0930094D
ENCODING -1
SWIDTH 268 0
DWIDTH 9 0
BBX 13 20 0 0
BITMAP
FFF8
0000
0000
0000
0000
0000
0FE0
1830
3010
3010
3018
3018
0010
0030
00E0
01C0
0300
0600
1C00
3000
ENDCHAR
STARTCHAR uni0925094D0930094D
ENCODING -1
SWIDTH 358 0
DWIDTH 11 0
BBX 13 21 2 -1
BITMAP
3E00
7300
4100
4180
4180
0180
0100
0300
FE00
8000
8000
8000
C000
C008
6038
3FF0
00E0
0180
0300
0600
1C00
ENDCHAR
STARTCHAR uni0926094D0930094D
ENCODING -1
SWIDTH 489 0
DWIDTH 16 0
BBX 16 26 0 -6
BITMAP
FFFF
0018
0018
0018
0018
0FF8
1C00
1000
3000
3000
3000
3000
3008
3008
3008
1818
0FE8
00C8
0188
0308
0600
0060
0020
0030
0018
001C
ENDCHAR
STARTCHAR uni0927094D0930094D
ENCODING -1
SWIDTH 322 0
DWIDTH 10 0
BBX 14 21 0 -1
BITMAP
FE3C
1800
1000
3000
3000
3000
3000
1800
0F80
1800
1000
3000
3000
3000
3004
180C
0FF8
0020
00C0
0180
0700
ENDCHAR
STARTCHAR uni0928094D0930094D
ENCODING -1
SWIDTH 247 0
DWIDTH 8 0
BBX 12 20 0 0
BITMAP
FFF0
0000
0000
0000
0000
0000
0000
0000
1FF0
3010
6010
6030
2060
20C0
0180
0300
0600
0C00
1800
3000
ENDCHAR
STARTCHAR uni092A094D0930094D
ENCODING -1
SWIDTH 270 0
DWIDTH 9 0
BBX 13 21 0 -1
BITMAP
FFE0
3000
1000
1000
1000
1000
1000
1000
1000
1000
1000
1018
1830
0FE0
0040
0080
0180
0300
0600
0C00
1800
ENDCHAR
STARTCHAR uni092B094D0930094D
ENCODING -1
SWIDTH 523 0
DWIDTH 17 0
BBX 22 20 -1 0
BITMAP
FFFFFC
180C00
180800
180800
180800
180BF0
180E18
180C0C
180C00
180800
180800
181800
0C1800
07E800
004800
008800
018800
030800
060800
1C0800
ENDCHAR
STARTCHAR uni092C094D0930094D
ENCODING -1
SWIDTH 267 0
DWIDTH 9 0
BBX 13 21 0 -1
BITMAP
FFF0
0000
0000
0000
0000
0F80
1800
3800
3C00
3600
3300
3180
30C0
3038
3010
1830
0FE0
00C0
0180
0300
0C00
ENDCHAR
STARTCHAR uni092D094D0930094D
ENCODING -1
SWIDTH 257 0
DWIDTH 8 0
BBX 12 20 0 0
BITMAP
C0F0
7000
3000
1000
1000
1000
1000
1000
1000
1FF0
1010
1030
1060
10C0
0080
0180
0300
0600
0C00
1800
ENDCHAR
STARTCHAR uni092E094D0930094D
ENCODING -1
SWIDTH 261 0
DWIDTH 8 0
BBX 12 20 0 0
BITMAP
FFF0
3000
1000
1000
1000
1000
1000
1000
1000
1FF0
1010
1030
1060
10C0
0080
0180
0300
0600
0C00
1800
ENDCHAR
STARTCHAR uni092F094D0930094D
ENCODING -1
SWIDTH 323 0
DWIDTH 10 0
BBX 14 21 0 -1
BITMAP
FFF0
0600
0100
0100
0100
0100
0300
3E00
3000
3000
3000
3000
3000
1004
180C
0FF8
0070
00C0
0180
0300
0600
ENDCHAR
STARTCHAR uni0935094D0930094D
ENCODING -1
SWIDTH 255 0
DWIDTH 8 0
BBX 12 21 0 -1
BITMAP
FFC0
0000
0000
0000
0000
0F80
1800
3000
3000
3000
3000
3000
3000
3000
3010
1870
0FC0
0080
0300
0600
0C00
ENDCHAR
STARTCHAR uni0938094D0930094D
ENCODING -1
SWIDTH 347 0
DWIDTH 11 0
BBX 15 20 0 0
BITMAP
FFFC
0300
0300
0300
0300
0300
0300
0200
0200
0600
7FFE
6006
300C
1018
1830
0C60
0CC0
0600
0200
0300
ENDCHAR
STARTCHAR uni0915093C094D0930094D
ENCODING -1
SWIDTH 518 0
DWIDTH 17 0
BBX 21 23 0 -3
BITMAP
FFFFF8
001800
001000
001000
001000
0F17E0
181C30
301818
301000
201000
201000
201000
201000
301000
303000
183000
0FD000
009000
011000
021000
0C0000
080000
010000
ENDCHAR
STARTCHAR uni0916093C094D0930094D
ENCODING -1
SWIDTH 466 0
DWIDTH 15 0
BBX 19 23 0 -3
BITMAP
FFFFC0
030000
010000
010000
010000
010F00
011800
011000
033000
033000
7E3000
603000
303060
1018C0
180FC0
0C0180
040300
060600
030600
018C00
001800
001000
000300
ENDCHAR
STARTCHAR uni0917093C094D0930094D
ENCODING -1
SWIDTH 264 0
DWIDTH 8 0
BBX 13 23 0 -3
BITMAP
FF80
0C00
0C00
0C00
0C00
0C00
0C00
0C00
0C00
0C00
0C10
1838
7020
0060
00C0
0180
0300
0600
0400
0C00
1000
0000
0180
ENDCHAR
STARTCHAR uni091C093C094D0930094D
ENCODING -1
SWIDTH 320 0
DWIDTH 10 0
BBX 14 22 0 -2
BITMAP
FFF8
0000
0000
0000
0000
0000
0000
3FF8
0300
0180
0180
0180
0180
0184
018C
0318
7F30
0060
00C0
0180
0300
6000
ENDCHAR
STARTCHAR uni0928093C094D0930094D
ENCODING -1
SWIDTH 247 0
DWIDTH 8 0
BBX 12 22 0 -2
BITMAP
FFF0
0000
0000
0000
0000
0000
0000
0000
1FF0
3010
6010
6030
2060
20C0
0180
0300
0600
0C00
1800
3000
0000
0300
ENDCHAR
STARTCHAR uni092B093C094D0930094D
ENCODING -1
SWIDTH 523 0
DWIDTH 17 0
BBX 22 23 -1 -3
BITMAP
FFFFFC
180C00
180800
180800
180800
180BF0
180E18
180C0C
180C00
180800
180800
181800
0C1800
07E800
006800
00C800
018800
030800
060800
0C0800
180800
000000
018000
ENDCHAR
STARTCHAR uni092F093C094D0930094D
ENCODING -1
SWIDTH 323 0
DWIDTH 10 0
BBX 14 23 0 -3
BITMAP
FFF0
0600
0100
0100
0100
0100
0300
3E00
3000
3000
3000
3000
3000
1004
180C
0FF8
0070
00E0
01C0
0380
0700
0400
0060
ENDCHAR
STARTCHAR uni0915094D0915
ENCODING -1
SWIDTH 1255 0
DWIDTH 40 0
BBX 41 20 0 0
BITMAP
FFFFFFFFFF80
0018000C0000
001000080000
001000080000
001000080000
0F17E78BF000
181C3C0E1800
3018180C0C00
301018080400
201010080400
201010080400
201010080400
201010080400
301018080400
303018180C00
18300C381800
0FD007E8F800
001000080000
001000080000
001000080000
ENDCHAR
STARTCHAR uni0915094D0916
ENCODING -1
SWIDTH 1256 0
DWIDTH 40 0
BBX 41 20 0 0
BITMAP
FFFFFFFFFF80
001800C00800
001000400800
001000400800
001000400800
0F17C0438800
181C70460800
3018104C0800
301010CC0800
201010CC0800
20101F8C0800
2010180C0800
20100C0C1800
301004063800
30300603E800
183003000800
0FD001800800
001000800800
001000C00800
001000600800
ENDCHAR
STARTCHAR uni0915094D091A
ENCODING -1
SWIDTH 1086 0
DWIDTH 35 0
BBX 35 20 0 0
BITMAP
FFFFFFFFE0
0018000300
0010000300
0010000300
0010000300
0F17E00300
18187FE300
3018060300
30100C0300
20100C0300
20100C0300
20100C0300
20100C0300
30100C0300
3030060700
183003FF00
0FD0000300
0010000300
0010000300
0010000300
ENDCHAR
STARTCHAR uni0915094D091C
ENCODING -1
SWIDTH 1071 0
DWIDTH 34 0
BBX 35 20 0 0
BITMAP
FFFFFFFFE0
0018000300
0010000200
0010000200
0010000200
0F10000200
1817CFFE00
301C018200
3018008200
201000C200
201000C200
201000C200
201000C200
301000C200
3030008200
1830018200
0FD03F0200
0010000200
0010000200
0010000200
ENDCHAR
STARTCHAR uni0915094D091F
ENCODING -1
SWIDTH 984 0
DWIDTH 31 0
BBX 32 20 0 0
BITMAP
FFFFFFFF
00180030
00100010
00100010
00100010
0F17E010
181C37F0
30181800
30103000
20103000
20103000
20103000
20103000
3010300C
3030300C
1830300C
0FD01818
00100FF0
00100000
00100000
ENDCHAR
STARTCHAR uni0915094D0923
ENCODING -1
SWIDTH 1183 0
DWIDTH 38 0
BBX 38 20 0 0
BITMAP
FFFFFFFFFC
0018103060
0010103060
0010103060
0010103060
0F10103060
1817F03060
301C103060
3018103060
2010103060
2010103060
2010103060
2010186060
30100FE060
3030000060
1830000060
0FD0000060
0010000060
0010000060
0010000060
ENDCHAR
STARTCHAR uni0915094D0924
ENCODING -1
SWIDTH 761 0
DWIDTH 24 0
BBX 25 20 0 0
BITMAP
FFFFFF80
000C0000
000C0000
000C0000
000C0000
000C0000
3FFDF000
0E0E1800
0C0C0C00
080C0400
080C0400
080C0400
080C0400
080C0400
080C0400
0C0C0C00
0C0C1C00
078CF800
000C0000
000C0000
ENDCHAR
STARTCHAR uni0915094D0925
ENCODING -1
SWIDTH 1118 0
DWIDTH 36 0
BBX 36 20 0 0
BITMAP
FFFF87C1F0
00180EE180
0010082180
0010082180
0010082180
0F10002180
1810006180
3017FFC180
301C100180
2018100180
2010100180
2010100180
2010100180
3010180180
30300C0380
183007FD80
0FD0000180
0010000180
0010000180
0010000180
ENDCHAR
STARTCHAR uni0915094D0926
ENCODING -1
SWIDTH 1009 0
DWIDTH 32 0
BBX 33 20 0 0
BITMAP
FFFFFFFF80
0018000C00
0010000800
0010000800
0010000800
0F17E7F800
181C3C0000
3018180000
3010100000
2010100000
2010100000
2010100000
2010100C00
3010100C00
3030180C00
18300C1C00
0FD007FC00
0010000C00
0010000C00
0010000C00
ENDCHAR
STARTCHAR uni0915094D092A
ENCODING -1
SWIDTH 1007 0
DWIDTH 32 0
BBX 33 20 0 0
BITMAP
FFFFFFFF80
0018100800
0010100800
0010100800
0010100800
0F10100800
1817F00800
301C100800
3018100800
2010100800
2010100800
2010181800
20101C3800
30100FE800
3030000800
1830000800
0FD0000800
0010000800
0010000800
0010000800
ENDCHAR
STARTCHAR uni0915094D092B
ENCODING -1
SWIDTH 1242 0
DWIDTH 40 0
BBX 40 20 0 0
BITMAP
FFFFFFFFFF
0018101800
0010101800
0010101800
0010101800
0F10101BF0
1817F01E38
301C101808
301810180C
201010180C
201010180C
201018180C
20101C380C
30100FF80C
303000180C
1830001818
0FD00019F0
0010001800
0010001800
0010001800
ENDCHAR
STARTCHAR uni0915094D092E
ENCODING -1
SWIDTH 994 0
DWIDTH 32 0
BBX 32 20 0 0
BITMAP
FFFFFFFF
00183018
00101018
00101018
00101018
0F101018
1817F018
301C1018
30181018
20101FF8
20101018
20101018
20101018
30101018
30301018
18300018
0FD00018
00100018
00100018
00100018
ENDCHAR
STARTCHAR uni0915094D092F
ENCODING -1
SWIDTH 1076 0
DWIDTH 34 0
BBX 35 20 0 0
BITMAP
FFFFFFFFE0
0018030300
0010018200
0010018200
0010018200
0F10018200
1810030200
3017FF0200
301C100200
2018100200
2010100200
2010100200
2010100200
3010180600
30300C0E00
183007FA00
0FD0000200
0010000200
0010000200
0010000200
ENDCHAR
STARTCHAR uni0915094D0932
ENCODING -1
SWIDTH 1178 0
DWIDTH 38 0
BBX 38 20 0 0
BITMAP
FFFFFFFFFC
0018000060
0010000060
0010000060
0010000060
0F17E00060
181C3F8F60
301818D8E0
3010107060
2010302060
2010302060
2010302060
2010302060
3010302060
3030300060
1830100060
0FD0180060
00100F8060
0010000060
0010000060
ENDCHAR
STARTCHAR uni0915094D0935
ENCODING -1
SWIDTH 1013 0
DWIDTH 32 0
BBX 33 20 0 0
BITMAP
FFFFFFFF80
0018000C00
0010000800
0010000800
0010000800
0F17E7C800
181C3C0800
3018180800
3010180800
2010180800
2010180800
2010180800
2010180800
3010180800
3030180800
18300C1800
0FD007E800
0010000800
0010000800
0010000800
ENDCHAR
STARTCHAR uni0915094D0936
ENCODING -1
SWIDTH 1194 0
DWIDTH 38 0
BBX 39 20 0 0
BITMAP
FFFFE1E03E
0018073820
0010061820
0010040820
0010040820
0F17E00820
181C300820
3018180820
3010181820
2010081820
20100FF020
20100C0020
20100C0020
3010060020
3030030020
1830010020
0FD0018020
001000C020
0010006020
0010002020
ENDCHAR
STARTCHAR uni0915094D0938
ENCODING -1
SWIDTH 1143 0
DWIDTH 37 0
BBX 37 20 0 0
BITMAP
FFFFFFFFF8
001800C0C0
001000C0C0
001000C0C0
001000C0C0
0F17E0C0C0
181C30C0C0
301810C0C0
30101880C0
20101980C0
20101FFFC0
20101800C0
20100C00C0
30100600C0
30300600C0
18300300C0
0FD00100C0
00100180C0
001000C0C0
001000C0C0
ENDCHAR
STARTCHAR uni0916094D0916
ENCODING -1
SWIDTH 1223 0
DWIDTH 39 0
BBX 40 20 0 0
BITMAP
FFFFFFFFFF
0300018030
0100008010
0100008010
0100008010
010E008710
0118008C10
0130019810
0330019810
0330039810
7E303F1810
6030301810
3030181830
1818680C70
180FCC07D0
0C00060010
0600030010
0200010010
0300018010
018000C010
ENDCHAR
STARTCHAR uni0916094D0924
ENCODING -1
SWIDTH 984 0
DWIDTH 31 0
BBX 32 20 0 0
BITMAP
FFFFFFFF
03000018
01000018
01000018
01000018
010E0018
01180018
01301FF8
03303818
03303018
7E302018
60302018
30302018
10182018
180FE018
0C002018
06002018
06003018
03001818
01801E18
ENDCHAR
STARTCHAR uni0916094D092E
ENCODING -1
SWIDTH 965 0
DWIDTH 31 0
BBX 31 20 0 0
BITMAP
FFFFFFFE
03002030
01002030
01002030
01002030
010E2030
01182030
01302030
03302030
03303FF0
7E302030
60302030
30302030
18186030
180FC030
0C000030
06000030
02000030
03000030
01800030
ENDCHAR
STARTCHAR uni0916094D092F
ENCODING -1
SWIDTH 1047 0
DWIDTH 34 0
BBX 34 20 0 0
BITMAP
FFFFFFFFC0
0300060600
0100030600
0100030600
0100030600
010E030600
0118070600
01303E0600
0330200600
0330200600
7E30200600
6030200600
3030200600
1818F00E00
180F981E00
0C000FF600
0600000600
0200000600
0300000600
0180000600
ENDCHAR
STARTCHAR uni0916094D0935
ENCODING -1
SWIDTH 975 0
DWIDTH 31 0
BBX 32 20 0 0
BITMAP
FFFFFFFF
03000010
01000010
01000010
01000010
010E0F10
01181810
01103010
03302010
03302010
7E302010
60302010
30302010
18302010
1818F030
0C0F9870
06001FD0
02000010
03000010
01800010
ENDCHAR
STARTCHAR uni0916094D0936
ENCODING -1
SWIDTH 1123 0
DWIDTH 36 0
BBX 36 20 0 0
BITMAP
FFFF0F81F0
03001CC180
0100106180
0100106180
0100106180
010E106180
0118006180
0130006180
0330006180
033000C180
7E307F8180
6030600180
3030200180
1818700180
180F980180
0C00080180
06000C0180
0200060180
0300020180
0180030180
ENDCHAR
STARTCHAR uni0917094D0917
ENCODING -1
SWIDTH 744 0
DWIDTH 24 0
BBX 24 20 0 0
BITMAP
FFFFFF
0C0C18
0C0C18
0C0C18
0C0C18
0C0C18
0C0C18
0C0C18
0C0C18
0C0C18
0C0C18
181818
707018
000018
000018
000018
000018
000018
000018
000018
ENDCHAR
STARTCHAR uni0917094D0918
ENCODING -1
SWIDTH 823 0
DWIDTH 26 0
BBX 27 20 0 0
BITMAP
FFFFFFE0
0C0C0300
0C180200
0C100200
0C100200
0C100200
0C100200
0C180200
0C078200
0C1C0200
0C180200
18100200
70100200
00100200
00180600
00180E00
000FFA00
00000200
00000200
00000200
ENDCHAR
STARTCHAR uni0917094D091C
ENCODING -1
SWIDTH 801 0
DWIDTH 26 0
BBX 26 20 0 0
BITMAP
FFFFFFC0
0C000600
0C000600
0C000600
0C000600
0C000600
0C000600
0C3FFE00
0C030600
0C018600
0C018600
18018600
70018600
00018600
00018600
00038600
007F0600
00000600
00000600
00000600
ENDCHAR
STARTCHAR uni0917094D0923
ENCODING -1
SWIDTH 945 0
DWIDTH 30 0
BBX 31 20 0 0
BITMAP
FFFFFFFE
0C181020
0C181020
0C181020
0C181020
0C181020
0C181020
0C181020
0C181020
0C181020
0C181020
18183020
700C3020
0007E020
00000020
00000020
00000020
00000020
00000020
00000020
ENDCHAR
STARTCHAR uni0917094D0926
ENCODING -1
SWIDTH 748 0
DWIDTH 24 0
BBX 24 20 0 0
BITMAP
FFFFFF
0C0018
0C0008
0C0008
0C0008
0C0FF8
0C1C00
0C1800
0C1000
0C3000
0C3000
183000
70300C
00100C
00100C
00181C
000FFC
00000C
00000C
00000C
ENDCHAR
STARTCHAR uni0917094D0927
ENCODING -1
SWIDTH 823 0
DWIDTH 26 0
BBX 27 20 0 0
BITMAP
FFFF1FE0
0C0C0300
0C180200
0C100200
0C100200
0C100200
0C180200
0C180200
0C078200
0C1C0200
0C180200
18100200
70100200
00100200
00180600
00180E00
000FFA00
00000200
00000200
00000200
ENDCHAR
STARTCHAR uni0917094D092C
ENCODING -1
SWIDTH 755 0
DWIDTH 24 0
BBX 25 20 0 0
BITMAP
FFFFFF80
0C000800
0C000800
0C000800
0C000800
0C078800
0C1C0800
0C180800
0C140800
0C320800
0C318800
18308800
70306800
00103800
00101800
00183800
000FE800
00000800
00000800
00000800
ENDCHAR
STARTCHAR uni0917094D092D
ENCODING -1
SWIDTH 755 0
DWIDTH 24 0
BBX 25 20 0 0
BITMAP
FFE0FF80
0C700800
0C100800
0C180800
0C180800
0C180800
0C180800
0C180800
0C180800
0C1FF800
0C180800
18180800
70180800
00180800
00100800
00000800
00000800
00000800
00000800
00000800
ENDCHAR
STARTCHAR uni0917094D092E
ENCODING -1
SWIDTH 754 0
DWIDTH 24 0
BBX 25 20 0 0
BITMAP
FFFFFF80
0C181800
0C180800
0C180800
0C180800
0C180800
0C180800
0C180800
0C180800
0C1FF800
0C180800
18180800
70180800
00180800
00100800
00000800
00000800
00000800
00000800
00000800
ENDCHAR
STARTCHAR uni0917094D092F
ENCODING -1
SWIDTH 828 0
DWIDTH 27 0
BBX 27 20 0 0
BITMAP
FFFFFFE0
0C030300
0C018300
0C018300
0C018300
0C018300
0C038300
0C1F0300
0C100300
0C100300
0C100300
18100300
70100300
00180700
000C0F00
0007FB00
00000300
00000300
00000300
00000300
ENDCHAR
STARTCHAR uni0917094D0932
ENCODING -1
SWIDTH 924 0
DWIDTH 30 0
BBX 30 20 0 0
BITMAP
FFFFFFFC
0C000060
0C000060
0C000060
0C000060
0C000060
0C0F8F60
0C18D9E0
0C307060
0C302060
0C302060
18302060
70302060
00302060
00300060
00300060
00180060
000F8060
00000060
00000060
ENDCHAR
STARTCHAR uni0917094D0935
ENCODING -1
SWIDTH 747 0
DWIDTH 24 0
BBX 24 20 0 0
BITMAP
FFFFFF
0C0018
0C0018
0C0018
0C0018
0C0798
0C1C18
0C1818
0C1018
0C3018
0C3018
183018
703018
001018
001018
001838
000FF8
000018
000018
000018
ENDCHAR
STARTCHAR uni0917094D0938
ENCODING -1
SWIDTH 839 0
DWIDTH 27 0
BBX 27 20 0 0
BITMAP
FFFFFFE0
0C030300
0C030300
0C030300
0C030300
0C030300
0C030300
0C030300
0C030300
0C060300
0C3FFF00
18300300
70300300
00180300
00080300
000C0300
00060300
00060300
00030300
00010300
ENDCHAR
STARTCHAR uni0918094D092E
ENCODING -1
SWIDTH 818 0
DWIDTH 26 0
BBX 27 20 0 0
BITMAP
FFFFFFE0
18060200
10060200
30060200
30060200
30060200
30060200
18060200
0F860200
1807FE00
30060200
30060200
30060200
30060200
30040200
180C0200
0FF80200
00000200
00000200
00000200
ENDCHAR
STARTCHAR uni0918094D092F
ENCODING -1
SWIDTH 867 0
DWIDTH 28 0
BBX 28 20 0 0
BITMAP
FFFFFFF0
1C018180
1000C180
30004180
30004180
3000C180
1000C180
180F8180
0F880180
18080180
30080180
30080180
300C0180
300C0180
30060380
180FFD80
0FF80180
00000180
00000180
00000180
ENDCHAR
STARTCHAR uni091A094D091A
ENCODING -1
SWIDTH 868 0
DWIDTH 28 0
BBX 28 20 0 0
BITMAP
FFFFFFF0
00000180
00000180
00000180
00000180
00000180
7F9FF180
06030180
08060180
18060180
18060180
18060180
18060180
08060180
0C0F0380
07F9FF80
00000180
00000180
00000180
00000180
ENDCHAR
STARTCHAR uni091A094D091B
ENCODING -1
SWIDTH 922 0
DWIDTH 30 0
BBX 30 18 0 2
BITMAP
FFFFFFFC
00038040
00020040
00060040
00060040
00060040
7FC607C0
060600E0
08030060
1801E020
18030020
18060020
18060020
08060020
0C0E0020
07FE0060
000300C0
0001FF80
ENDCHAR
STARTCHAR uni091A094D092E
ENCODING -1
SWIDTH 830 0
DWIDTH 27 0
BBX 27 20 0 0
BITMAP
FFFFFFE0
00060300
00060300
00060300
00060300
00060300
7FC60300
06060300
08060300
1807FF00
18060300
18060300
18060300
08060300
0C0C0300
07F80300
00000300
00000300
00000300
00000300
ENDCHAR
STARTCHAR uni091A094D092F
ENCODING -1
SWIDTH 904 0
DWIDTH 29 0
BBX 29 20 0 0
BITMAP
FFFFFFF8
0000C0C0
000020C0
000020C0
000020C0
000020C0
7FC060C0
0607C0C0
080600C0
180600C0
180600C0
180600C0
180600C0
080600C0
0C0F01C0
07F9FFC0
000000C0
000000C0
000000C0
000000C0
ENDCHAR
STARTCHAR uni091B094D092F
ENCODING -1
SWIDTH 1068 0
DWIDTH 34 0
BBX 35 20 0 0
BITMAP
FFFFFFFFE0
1C00000600
1000000200
3000000200
3000000200
301FFF0200
3007018200
1001008200
180100C200
0F0100C200
1801018200
10011F0200
3001180200
3001180200
3001080600
10030C0E00
180707FA00
0FFE000200
0000000200
0000000200
ENDCHAR
STARTCHAR uni091B094D0935
ENCODING -1
SWIDTH 581 0
DWIDTH 19 0
BBX 19 23 0 -3
BITMAP
FFFFE0
1C0200
100200
300200
300200
301E00
100700
180300
0F0100
180100
100100
300100
300100
100300
180600
0FFE00
0C0200
080200
180200
180200
080600
0C0C00
07FC00
ENDCHAR
STARTCHAR uni091C094D0915
ENCODING -1
SWIDTH 1054 0
DWIDTH 34 0
BBX 34 20 0 0
BITMAP
FFFFFFFFC0
0000060000
0000060000
0000060000
0000060000
0001E6FC00
0007078E00
3FFE060200
0304060300
018C060300
018C060300
018C060300
018C060300
0184060300
0184060300
03060E0600
7E03FE7C00
0000060000
0000060000
0000060000
ENDCHAR
STARTCHAR uni091C094D091C
ENCODING -1
SWIDTH 903 0
DWIDTH 29 0
BBX 29 20 0 0
BITMAP
FFFFFFF8
000000C0
000000C0
000000C0
000000C0
000000C0
000000C0
3FF3FFC0
030060C0
018030C0
018010C0
018010C0
018010C0
018010C0
018010C0
030030C0
7F0FE0C0
000000C0
000000C0
000000C0
ENDCHAR
STARTCHAR uni091C094D091D
ENCODING -1
SWIDTH 990 0
DWIDTH 32 0
BBX 32 21 0 -1
BITMAP
FFFFFFFF
00000C18
00000C18
00000C18
00000C18
0003FC18
00070018
3FFC0018
03040018
01840018
01860018
0183FFF8
01800C18
01800618
01840618
03040618
7E060C18
0007FC18
00040018
00040018
00040000
ENDCHAR
STARTCHAR uni091C094D091F
ENCODING -1
SWIDTH 815 0
DWIDTH 26 0
BBX 27 18 0 2
BITMAP
FFFFFFE0
00000600
00000600
00000600
00000600
00000600
0001FE00
3FFF0000
030E0000
01040000
01840000
01840000
01840100
01840100
01840100
03060100
7E070300
0003FE00
ENDCHAR
STARTCHAR uni091C094D0921
ENCODING -1
SWIDTH 797 0
DWIDTH 26 0
BBX 26 20 0 0
BITMAP
FFFFFFC0
00000600
00000600
00000600
00000600
0001FE00
00030000
3FFC0000
03040000
01040000
01860000
0183FC00
01800600
01800200
01800200
03040200
7E040200
00040200
00060600
0003FC00
ENDCHAR
STARTCHAR uni091C094D0924
ENCODING -1
SWIDTH 830 0
DWIDTH 27 0
BBX 27 20 0 0
BITMAP
FFFFFFE0
00000300
00000300
00000300
00000300
00000300
00000300
3FFDFF00
03070300
01060300
01840300
01840300
01840300
01840300
01840300
03040300
7E040300
00060300
00070300
0003C300
ENDCHAR
STARTCHAR uni091C094D0926
ENCODING -1
SWIDTH 817 0
DWIDTH 26 0
BBX 27 20 0 0
BITMAP
FFFFFFE0
00000200
00000200
00000200
00000200
0001FE00
00030000
3FFE0000
03040000
01840000
01840000
01840000
01840300
01840300
01860300
03070700
7E03FF00
00000300
00000300
00000300
ENDCHAR
STARTCHAR uni091C094D092C
ENCODING -1
SWIDTH 820 0
DWIDTH 26 0
BBX 27 20 0 0
BITMAP
FFFFFFE0
00000200
00000200
00000200
00000200
0003E200
00070200
3FFF0200
03058200
0184C200
01846200
01843200
01841A00
01840E00
01840600
03060E00
7E03FA00
00000200
00000200
00000200
ENDCHAR
STARTCHAR uni091C094D092E
ENCODING -1
SWIDTH 813 0
DWIDTH 26 0
BBX 26 20 0 0
BITMAP
FFFFFFC0
00060600
00040200
00040200
00040200
00040200
00040200
3FFC0200
03040200
0187FE00
01840600
01840200
01840200
01840200
01800200
03000200
7E000200
00000200
00000200
00000200
ENDCHAR
STARTCHAR uni091C094D092F
ENCODING -1
SWIDTH 893 0
DWIDTH 29 0
BBX 29 20 0 0
BITMAP
FFFFFFF8
0000C0C0
000060C0
000060C0
000060C0
000060C0
3FFC60C0
030FC0C0
010400C0
018400C0
018400C0
018400C0
018400C0
018600C0
018303C0
0301FEC0
7E0000C0
000000C0
000000C0
000000C0
ENDCHAR
STARTCHAR uni091C094D0935
ENCODING -1
SWIDTH 813 0
DWIDTH 26 0
BBX 26 20 0 0
BITMAP
FFFFFFC0
00000600
00000200
00000200
00000200
0001E200
00070200
3FFE0200
03040200
01840200
01840200
01840200
01840200
01840600
01840600
03060E00
7E03FA00
00000200
00000200
00000200
ENDCHAR
STARTCHAR uni091D094D092E
ENCODING -1
SWIDTH 936 0
DWIDTH 30 0
BBX 30 21 0 -1
BITMAP
FFFFFFFC
00206060
00204060
00204060
00204060
0FE04060
18004060
30004060
30004060
10007FE0
1FFFC060
00304060
00104060
30104060
30100060
30100060
38300060
3FE00060
30000060
30000020
30000000
ENDCHAR
STARTCHAR uni091D094D092F
ENCODING -1
SWIDTH 1000 0
DWIDTH 32 0
BBX 32 21 0 -1
BITMAP
FFFFFFFF
00201818
00200408
00200408
00200408
0FE00408
18000C08
3000F808
3000C008
1000C008
1FFFC008
0030C008
0010C018
30104018
30106038
30103FE8
38300008
3FE00008
30000008
30000008
30000000
ENDCHAR
STARTCHAR uni091E094D091B
ENCODING -1
SWIDTH 913 0
DWIDTH 29 0
BBX 30 18 0 2
BITMAP
FFFFFFFC
000300C0
000600C0
000600C0
000600C0
3E0600C0
018607C0
018600C0
00830060
0081E060
00FF0060
00860060
00860060
01860060
01860060
7F060060
000300C0
0003FF80
ENDCHAR
STARTCHAR uni091E094D091C
ENCODING -1
SWIDTH 932 0
DWIDTH 30 0
BBX 30 20 0 0
BITMAP
FFFFFFFC
00000060
00000060
00000060
00000060
00000060
00000060
3F01FFE0
03803060
00801860
00800860
00F80860
00800860
00800860
00801860
01801860
7F07F060
00000060
00000060
00000060
ENDCHAR
STARTCHAR uni091E094D0936
ENCODING -1
SWIDTH 975 0
DWIDTH 31 0
BBX 32 20 0 0
BITMAP
FFF0F81F
00019C10
00030C10
00020410
00020410
3F020410
03800410
01800410
00800C10
00800C10
00FFF810
00860010
00830010
00810010
00818010
0180C010
7F004010
00006010
00003010
00001810
ENDCHAR
STARTCHAR uni091F094D091F
ENCODING -1
SWIDTH 494 0
DWIDTH 16 0
BBX 16 29 0 -9
BITMAP
FFFF
0030
0010
0010
0010
0FF0
1800
3000
3000
3000
300C
300C
300C
1818
0FF0
0010
0010
0010
0FF0
1800
3000
3000
3000
3000
300C
300C
300C
1818
0FF0
ENDCHAR
STARTCHAR uni091F094D0920
ENCODING -1
SWIDTH 495 0
DWIDTH 16 0
BBX 16 29 0 -9
BITMAP
FFFF
0030
0010
0010
0010
0FF0
1800
3000
3000
3000
300C
300C
300C
1818
0FF8
0018
0010
0030
0FE0
1818
300C
300C
300C
300C
300C
300C
300C
1818
0FF0
ENDCHAR
STARTCHAR uni091F094D092F
ENCODING -1
SWIDTH 990 0
DWIDTH 32 0
BBX 32 20 0 0
BITMAP
FFFFFFFF
00300018
00100018
00100018
00100018
00100018
0FFFFC18
18000E18
30000218
30000218
30000218
30000618
30007C18
300C4018
300C6018
300C6018
18183038
0FF01FD8
00000018
00000018
ENDCHAR
STARTCHAR uni091F094D0935
ENCODING -1
SWIDTH 501 0
DWIDTH 16 0
BBX 16 23 0 -3
BITMAP
FFFF
0018
0010
0010
0010
0010
0FF0
1800
3000
3000
3000
3004
3004
300C
181C
0FFC
180C
100C
300C
3008
1008
1818
0FF0
ENDCHAR
STARTCHAR uni0920094D092F
ENCODING -1
SWIDTH 998 0
DWIDTH 32 0
BBX 32 20 0 0
BITMAP
FFFFFFFF
00180018
00100018
00100018
00100018
00300018
0FE3FC18
181E0618
300C0218
300C0218
300C0218
300C0618
300C7C18
300C6018
300C6018
300C6018
18183038
0FF01FF8
00000018
00000018
ENDCHAR
STARTCHAR uni0921094D0921
ENCODING -1
SWIDTH 493 0
DWIDTH 16 0
BBX 16 29 0 -9
BITMAP
FFFF
0018
0010
0010
0010
0FF0
1800
3000
3000
1800
1FF0
0038
0008
3008
3008
1018
1FF0
1C00
3000
3000
3000
1800
1FF0
0038
0008
3008
3008
1018
1FF0
ENDCHAR
STARTCHAR uni0921094D0922
ENCODING -1
SWIDTH 493 0
DWIDTH 16 0
BBX 16 28 0 -8
BITMAP
FFFF
0018
0010
0010
0010
0FF0
1C00
3000
3000
3000
1800
1FF0
0038
0008
3008
3008
1018
1FF0
1800
1000
3078
30CC
308C
3084
3004
100C
1C18
0FF0
ENDCHAR
STARTCHAR uni0921094D092F
ENCODING -1
SWIDTH 973 0
DWIDTH 31 0
BBX 32 20 0 0
BITMAP
FFFFFFFF
00100030
00100010
00100010
00100010
0FFFF810
1C000C10
30000410
30000610
30000410
18000C10
1FF0F810
0038C010
0018C010
00084030
30086070
30083FD0
30180010
18180010
1FF00010
ENDCHAR
STARTCHAR uni0921094D0935
ENCODING -1
SWIDTH 493 0
DWIDTH 16 0
BBX 16 24 0 -4
BITMAP
FFFF
0018
0010
0010
0010
0FF0
1800
3000
3000
1800
1FF0
0038
0008
3008
3008
1018
1FF8
1C08
1008
1008
1008
1008
1818
0FF0
ENDCHAR
STARTCHAR uni0922094D092F
ENCODING -1
SWIDTH 981 0
DWIDTH 31 0
BBX 32 20 0 0
BITMAP
FFFFFFFF
00180018
00100010
00100010
00100010
00100010
0FFFF810
18000C10
30000610
30000610
30000610
30780C10
30CCF810
308CC010
30844010
300C4030
180C7070
0FF83FD0
00000010
00000010
ENDCHAR
STARTCHAR uni0923094D091F
ENCODING -1
SWIDTH 908 0
DWIDTH 29 0
BBX 30 18 0 2
BITMAP
FFFFFFFC
303000C0
103000C0
103000C0
103000C0
103000C0
10303FC0
10306000
1030C000
10308000
10308000
10308000
18608000
0FC08020
00008020
0000C020
0000E060
00007FC0
ENDCHAR
STARTCHAR uni0923094D0920
ENCODING -1
SWIDTH 936 0
DWIDTH 30 0
BBX 30 18 0 2
BITMAP
FFFFFFFC
303000C0
10300040
10300040
103000C0
103000C0
10303F80
103060E0
1030C020
10308030
10308030
10308030
18608030
0FC08030
00008030
0000C020
0000E060
00007FC0
ENDCHAR
STARTCHAR uni0923094D0921
ENCODING -1
SWIDTH 892 0
DWIDTH 29 0
BBX 29 20 0 0
BITMAP
FFFFFFF8
303000C0
103000C0
103000C0
103000C0
10307FC0
1030E000
10308000
10308000
10308000
1030C000
10307F80
186000C0
0FC00040
00000060
00008060
00008060
00008040
0000C0C0
00007F80
ENDCHAR
STARTCHAR uni0923094D0922
ENCODING -1
SWIDTH 908 0
DWIDTH 29 0
BBX 30 18 0 2
BITMAP
FFFFFFFC
303000C0
103000C0
103000C0
103000C0
103000C0
10303FC0
10306000
1030C000
10308000
10308000
103083E0
18608760
0FC08620
00008630
0000C020
0000E060
00007FC0
ENDCHAR
STARTCHAR uni0923094D0923
ENCODING -1
SWIDTH 1127 0
DWIDTH 36 0
BBX 37 20 0 0
BITMAP
FFFFFFFFF8
303060C180
1030404080
1030404080
1030404080
1030404080
1030404080
1030404080
1030404080
1030404080
1030404080
103060C080
186070C080
0FC03F8080
0000000080
0000000080
0000000080
0000000080
0000000080
0000000080
ENDCHAR
STARTCHAR uni0923094D092E
ENCODING -1
SWIDTH 932 0
DWIDTH 30 0
BBX 30 20 0 0
BITMAP
FFFFFFFC
3030C060
10304060
10304060
10304060
10304060
10304060
10304060
10304060
10307FE0
10304060
10304060
18604060
0FC04060
00000060
00000060
00000060
00000060
00000060
00000060
ENDCHAR
STARTCHAR uni0923094D092F
ENCODING -1
SWIDTH 998 0
DWIDTH 32 0
BBX 32 20 0 0
BITMAP
FFFFFFFF
30301818
10300418
10300418
10300418
10300418
10300C18
1030F818
1030C018
1030C018
1030C018
1030C018
1860C018
0FC0C018
00006038
00003FF8
00000018
00000018
00000018
00000018
ENDCHAR
STARTCHAR uni0923094D0935
ENCODING -1
SWIDTH 923 0
DWIDTH 30 0
BBX 30 20 0 0
BITMAP
FFFFFFFC
30300060
10300060
10300060
10300060
10303E60
10306060
1030C060
1030C060
1030C060
1030C060
1030C060
1860C060
0FC0C060
0000C060
000060E0
00003F60
00000060
00000060
00000060
ENDCHAR
STARTCHAR uni0924094D0915
ENCODING -1
SWIDTH 992 0
DWIDTH 32 0
BBX 32 20 0 0
BITMAP
FFFFFFFF
00001800
00001800
00001800
00001800
00079BF0
001C1E38
0FF81808
1810180C
3030180C
3030180C
3030180C
3030180C
3010180C
3010180C
30183818
300FF9F0
30001800
18001800
0F001800
ENDCHAR
STARTCHAR uni0924094D0916
ENCODING -1
SWIDTH 1014 0
DWIDTH 32 0
BBX 33 20 0 0
BITMAP
FFFFFFFF80
0000600C00
0000400C00
0000400C00
0000400C00
000043CC00
0FE0470C00
1830440C00
30104C0C00
3018CC0C00
301F8C0C00
30180C0C00
300C040C00
3006061C00
300203EC00
3003000C00
3001800C00
3000800C00
1800C00C00
0F00600C00
ENDCHAR
STARTCHAR uni0924094D0924
ENCODING -1
SWIDTH 542 0
DWIDTH 17 0
BBX 18 20 0 0
BITMAP
FFFFC0
000600
000400
000400
000400
000400
000400
7FFC00
0E0400
080400
080400
080400
080400
080400
080400
080400
080400
080400
0C0400
078400
ENDCHAR
STARTCHAR uni0924094D0925
ENCODING -1
SWIDTH 869 0
DWIDTH 28 0
BBX 28 20 0 0
BITMAP
FF87C1F0
000EE180
00082180
00082180
00082180
00002180
00002180
00006180
0FFFC180
18100180
30100180
30100180
30100180
30180180
300C0380
3007FD80
30000180
30000180
18000180
0F000180
ENDCHAR
STARTCHAR uni0924094D092A
ENCODING -1
SWIDTH 757 0
DWIDTH 24 0
BBX 26 20 -1 0
BITMAP
FFFFFFC0
00080400
00080400
00080400
00080400
00080400
00080400
07F80400
0C080400
18080400
18080400
180C0C00
180E1C00
1807F400
18000400
18000400
18000400
18000400
0C000400
07000400
ENDCHAR
STARTCHAR uni0924094D092B
ENCODING -1
SWIDTH 992 0
DWIDTH 32 0
BBX 33 20 -1 0
BITMAP
FFFFFFFF80
00080C0000
00080C0000
00080C0000
00080C0000
00080DF800
00080F1C00
07F80C0400
0C080C0600
18080C0600
18080C0600
180C0C0600
180E1C0600
1807FC0600
18000C0600
18000C0C00
18000CF800
18000C0000
0C000C0000
07000C0000
ENDCHAR
STARTCHAR uni0924094D092E
ENCODING -1
SWIDTH 764 0
DWIDTH 24 0
BBX 25 20 0 0
BITMAP
FFFFFF80
00180C00
00180C00
00180C00
00180C00
00180C00
00180C00
0FF80C00
18180C00
301FFC00
30180C00
30180C00
30180C00
30180C00
30000C00
30000C00
30000C00
30000C00
18000C00
0F000C00
ENDCHAR
STARTCHAR uni0924094D092F
ENCODING -1
SWIDTH 830 0
DWIDTH 27 0
BBX 27 20 0 0
BITMAP
FFFFFFE0
00030300
00018300
00018300
00018300
00018300
00018300
00030300
0FFF0300
18100300
30100300
30100300
30100300
30180700
300C0F00
3007FB00
30000300
30000300
18000300
0F000300
ENDCHAR
STARTCHAR uni0924094D0932
ENCODING -1
SWIDTH 957 0
DWIDTH 31 0
BBX 31 20 0 0
BITMAP
FFFFFFFE
00000030
00000030
00000030
00000030
00000030
0FE7C7B0
183C6C70
30183830
30181030
30181030
30181030
30181030
30180030
30180030
30180030
300C0030
3007C030
18000030
0F000030
ENDCHAR
STARTCHAR uni0924094D0935
ENCODING -1
SWIDTH 751 0
DWIDTH 24 0
BBX 24 20 0 0
BITMAP
FFFFFF
000018
000008
000008
000008
000788
000C08
0FF808
181008
301008
301008
301008
301008
301018
301018
301838
300FE8
300008
180008
0F0008
ENDCHAR
STARTCHAR uni0924094D0938
ENCODING -1
SWIDTH 876 0
DWIDTH 28 0
BBX 29 20 0 0
BITMAP
FFFFFFF8
00018180
00008080
00008080
00008080
00008080
0FE08080
18208080
30318080
30130080
301FFF80
30180180
30080080
300C0080
30040080
30060080
30030080
30030080
18018080
0F00C080
ENDCHAR
STARTCHAR uni0925094D092F
ENCODING -1
SWIDTH 931 0
DWIDTH 30 0
BBX 28 20 2 0
BITMAP
3E1FFFF0
73018180
4100C180
41804180
41804180
01804180
0100C180
030F8180
FE080180
80080180
80080180
80080180
C00C0180
C00C0180
601E0380
3FF3FD80
00000180
00000180
00000180
00000180
ENDCHAR
STARTCHAR uni0925094D0935
ENCODING -1
SWIDTH 862 0
DWIDTH 28 0
BBX 26 20 2 0
BITMAP
1E1FFFC0
73000600
61000600
41800600
41800600
4183E600
01060600
030C0600
FE0C0600
800C0600
800C0600
800C0600
C00C0600
C00C0600
601C0600
3FF60E00
0003F600
00000600
00000600
00000600
ENDCHAR
STARTCHAR uni0926094D0917
ENCODING -1
SWIDTH 489 0
DWIDTH 16 0
BBX 16 23 0 -3
BITMAP
FFFF
0018
0018
0018
0018
0FF8
1800
3000
3000
3000
3000
3008
3008
3008
1818
0FE8
0208
0208
0208
0208
0600
0600
3C00
ENDCHAR
STARTCHAR uni0926094D0918
ENCODING -1
SWIDTH 686 0
DWIDTH 22 0
BBX 22 21 0 -1
BITMAP
FFFFFC
000060
000020
000020
000020
001FE0
003000
006000
1FC000
304000
204000
204000
204030
304030
1E4030
306070
203FF0
201030
201030
303030
1FE000
ENDCHAR
STARTCHAR uni0926094D0926
ENCODING -1
SWIDTH 506 0
DWIDTH 16 0
BBX 17 22 0 -2
BITMAP
FFFF80
001800
000800
000800
000800
0FF800
180000
100000
300000
100000
180000
0FC000
180000
100000
300C00
300C00
100C00
181C00
0FFC00
000C00
000C00
000C00
ENDCHAR
STARTCHAR uni0926094D0927
ENCODING -1
SWIDTH 686 0
DWIDTH 22 0
BBX 22 21 0 -1
BITMAP
FFFFFC
000060
000020
000020
000020
001FE0
007000
006000
1C4000
304000
204000
204000
204030
304030
1E4030
306070
203FF0
201030
201030
303030
1FE000
ENDCHAR
STARTCHAR uni0926094D092C
ENCODING -1
SWIDTH 481 0
DWIDTH 15 0
BBX 16 24 0 -4
BITMAP
FFFF
0018
0018
0018
0018
0FF8
1C00
1000
3000
3000
3000
3000
3008
3008
3008
1818
0FE8
1C08
1308
3188
10C8
1078
1838
0FF0
ENDCHAR
STARTCHAR uni0926094D092D
ENCODING -1
SWIDTH 499 0
DWIDTH 16 0
BBX 16 25 0 -5
BITMAP
FFFF
0018
0018
0018
0018
0FF8
1C00
1000
3000
3000
3018
3018
1018
1838
07F8
7018
1818
0C18
0C18
0C18
0FF8
0C18
0C18
0C18
0018
ENDCHAR
STARTCHAR uni0926094D092E
ENCODING -1
SWIDTH 706 0
DWIDTH 23 0
BBX 23 20 0 0
BITMAP
FFFFFE
003030
003030
003030
003030
0FF030
180030
300030
200030
200030
201030
301030
183030
0FD030
001FF0
001030
001030
001030
001030
000030
ENDCHAR
STARTCHAR uni0926094D092F
ENCODING -1
SWIDTH 583 0
DWIDTH 19 0
BBX 19 20 0 0
BITMAP
FFFFE0
00C300
00C300
00C300
0FC300
180300
100300
300300
300300
180300
0F8300
180300
100300
300300
300300
100300
180700
0FFF00
000300
000300
ENDCHAR
STARTCHAR uni0926094D0935
ENCODING -1
SWIDTH 483 0
DWIDTH 15 0
BBX 16 24 0 -4
BITMAP
FFFF
0018
0018
0018
0018
0FF8
1C00
1000
3000
3000
3000
3000
3008
3008
3008
1818
0FE8
1C08
1008
1008
1008
1018
1838
0FF0
ENDCHAR
STARTCHAR uni0927094D092E
ENCODING -1
SWIDTH 817 0
DWIDTH 26 0
BBX 27 20 0 0
BITMAP
FF1FFFE0
1C060200
10060200
30060200
30060200
30060200
30060200
18060200
0F860200
1807FE00
30060200
30060200
30060200
30060200
30040200
180C0200
0FF80200
00000200
00000200
00000200
ENDCHAR
STARTCHAR uni0927094D092F
ENCODING -1
SWIDTH 886 0
DWIDTH 28 0
BBX 29 20 0 0
BITMAP
FF1FFFF8
1C00C0C0
10006080
30006080
30006080
30006080
1000C080
180FC080
0F8C0080
180C0080
300C0080
300C0080
30040080
30060180
30070380
180DFE80
0FF80080
00000080
00000080
00000080
ENDCHAR
STARTCHAR uni0927094D0935
ENCODING -1
SWIDTH 810 0
DWIDTH 26 0
BBX 26 20 0 0
BITMAP
FF1FFFC0
1C000600
10000600
30000600
30000600
3001E600
30070600
18040600
0F840600
180C0600
300C0600
300C0600
300C0600
30040600
30040600
180E0E00
0FFBFE00
00000600
00000600
00000600
ENDCHAR
STARTCHAR uni0928094D0915
ENCODING -1
SWIDTH 973 0
DWIDTH 31 0
BBX 32 20 0 0
BITMAP
FFFFFFFF
00001000
00001000
00001000
00001000
000F17E0
00181C30
00301818
3FE01018
70201008
60201008
60201008
60201008
20201008
00303018
00187030
000FD1E0
00001000
00001000
00001000
ENDCHAR
STARTCHAR uni0928094D091A
ENCODING -1
SWIDTH 820 0
DWIDTH 26 0
BBX 27 20 0 0
BITMAP
FFFFFFE0
00000200
00000200
00000200
00000200
00000200
003FE200
00060200
000C0200
00080200
3FC80200
70080200
60080200
60080600
200C0E00
0007FA00
00000200
00000200
00000200
00000200
ENDCHAR
STARTCHAR uni0928094D091B
ENCODING -1
SWIDTH 781 0
DWIDTH 25 0
BBX 25 18 0 2
BITMAP
FFFFFF80
00300C00
00600C00
00400C00
00400C00
00400C00
00407C00
00600C00
1FE00600
303E0600
60700600
60600600
20400600
20400600
00400600
00600400
00700C00
003FF800
ENDCHAR
STARTCHAR uni0928094D091F
ENCODING -1
SWIDTH 715 0
DWIDTH 23 0
BBX 23 18 0 2
BITMAP
FFFFFE
000030
000020
000020
000020
000020
001FE0
003800
3FF000
702000
606000
606000
606008
006008
002008
002018
003038
001FF0
ENDCHAR
STARTCHAR uni0928094D0921
ENCODING -1
SWIDTH 705 0
DWIDTH 23 0
BBX 23 20 0 0
BITMAP
FFFFFE
000030
000030
000030
000030
001FF0
003800
002000
3FE000
702000
603000
601FE0
600030
000010
000018
002018
002018
002010
003030
001FE0
ENDCHAR
STARTCHAR uni0928094D0924
ENCODING -1
SWIDTH 717 0
DWIDTH 23 0
BBX 23 20 0 0
BITMAP
FFFFFE
000030
000030
000030
000030
000030
000030
001FF0
3FF030
706030
606030
606030
606030
206030
006030
006030
006030
006030
003030
001E30
ENDCHAR
STARTCHAR uni0928094D0925
ENCODING -1
SWIDTH 804 0
DWIDTH 26 0
BBX 26 20 0 0
BITMAP
FE1F07C0
00338600
00208600
00208600
00208600
00008600
00008600
00018600
3FFF0600
70400600
60400600
60400600
60400600
20600600
00301E00
001FF600
00000600
00000600
00000600
00000600
ENDCHAR
STARTCHAR uni0928094D0926
ENCODING -1
SWIDTH 724 0
DWIDTH 23 0
BBX 24 20 0 0
BITMAP
FFFFFF
000010
000010
000010
000010
000FF0
001800
003000
3FE000
702000
602000
602000
602018
202018
003018
003838
001FF8
000018
000018
000018
ENDCHAR
STARTCHAR uni0928094D0927
ENCODING -1
SWIDTH 753 0
DWIDTH 24 0
BBX 25 20 0 0
BITMAP
FFFCFF80
00701800
00400800
00400800
00400800
00400800
00400800
00600800
3FFE0800
70600800
60400800
60400800
60400800
00400800
00401800
00603800
003FE800
00000800
00000800
00000800
ENDCHAR
STARTCHAR uni0928094D092A
ENCODING -1
SWIDTH 742 0
DWIDTH 24 0
BBX 24 20 0 0
BITMAP
FFFFFF
003018
003018
003018
003018
003018
003018
003018
003018
3FF018
303018
603018
601838
200FF8
000018
000018
000018
000018
000018
000018
ENDCHAR
STARTCHAR uni0928094D092B
ENCODING -1
SWIDTH 970 0
DWIDTH 31 0
BBX 31 20 0 0
BITMAP
FFFFFFFE
00303000
00301000
00301000
00301000
003017E0
00301C30
00301818
3FF01018
70301008
60301008
60303008
60187008
200FD018
00001018
00001030
000011E0
00001000
00001000
00001000
ENDCHAR
STARTCHAR uni0928094D092D
ENCODING -1
SWIDTH 739 0
DWIDTH 24 0
BBX 24 20 0 0
BITMAP
FFC0FF
006018
003018
003018
003018
003018
003018
003018
003018
3FFFF8
303018
603018
203018
203018
000018
000018
000018
000018
000018
000018
ENDCHAR
STARTCHAR uni0928094D092E
ENCODING -1
SWIDTH 735 0
DWIDTH 24 0
BBX 24 20 0 0
BITMAP
FFFFFF
003018
003018
003018
003018
003018
003018
003018
003018
3FFFF8
303018
603018
203018
203018
000018
000018
000018
000018
000018
000018
ENDCHAR
STARTCHAR uni0928094D092F
ENCODING -1
SWIDTH 801 0
DWIDTH 26 0
BBX 26 20 0 0
BITMAP
FFFFFFC0
00060600
00030600
00010600
00010600
00030600
00030600
3FFE0600
70200600
60200600
60200600
60200600
20200600
00300600
00181E00
000FF600
00000600
00000600
00000600
00000600
ENDCHAR
STARTCHAR uni0928094D0935
ENCODING -1
SWIDTH 732 0
DWIDTH 23 0
BBX 24 20 0 0
BITMAP
FFFFFF
000018
000010
000010
000010
000F90
001810
003010
3FF010
703010
603010
603010
603010
203010
003010
001830
000FD0
000010
000010
000010
ENDCHAR
STARTCHAR uni0928094D0938
ENCODING -1
SWIDTH 867 0
DWIDTH 28 0
BBX 28 20 0 0
BITMAP
FFFFFFF0
00018180
00018180
00018180
00018180
00018180
00018180
00018180
3FE18180
70730180
603FFF80
60100180
60180180
000C0180
00040180
00060180
00030180
00030180
00018180
00008180
ENDCHAR
STARTCHAR uni0928094D0939
ENCODING -1
SWIDTH 714 0
DWIDTH 23 0
BBX 23 21 0 -1
BITMAP
FFFFFE
000030
000030
000030
000030
001FF0
003800
003000
3FF000
303000
603000
600FE0
201830
003010
002018
002018
002000
002000
003000
001800
000FF0
ENDCHAR
STARTCHAR uni092A094D091F
ENCODING -1
SWIDTH 489 0
DWIDTH 16 0
BBX 16 20 0 0
BITMAP
FFFF
3008
3008
3008
3008
3008
1008
1008
1808
0FF8
1800
3000
3000
3000
300C
300C
300C
300C
1818
0FF0
ENDCHAR
STARTCHAR uni092A094D0920
ENCODING -1
SWIDTH 506 0
DWIDTH 16 0
BBX 17 20 0 0
BITMAP
FFFF80
300C00
300C00
300C00
300C00
300C00
100C00
100800
181800
0FF000
181800
300C00
300C00
300C00
300C00
300C00
300C00
300C00
181800
0FF000
ENDCHAR
STARTCHAR uni092A094D0924
ENCODING -1
SWIDTH 495 0
DWIDTH 16 0
BBX 16 20 0 0
BITMAP
FFFF
3018
3018
3018
3018
3018
3018
1018
1818
0FF8
1818
3018
3018
3018
3018
3018
3018
3018
1818
0F18
ENDCHAR
STARTCHAR uni092A094D092A
ENCODING -1
SWIDTH 770 0
DWIDTH 25 0
BBX 25 20 0 0
BITMAP
FFFFFF80
30180C00
10180C00
10180C00
10180C00
10180C00
10180C00
10180C00
10180C00
10180C00
10180C00
10180C00
183C1C00
0FE7FC00
00000C00
00000C00
00000C00
00000C00
00000C00
00000C00
ENDCHAR
STARTCHAR uni092A094D092B
ENCODING -1
SWIDTH 1003 0
DWIDTH 32 0
BBX 33 20 0 0
BITMAP
FFFFFFFF80
3018080000
1018080000
1018080000
1018080000
10180BF000
10180E1800
10180C0C00
1018080C00
1018080400
1018080400
1018180400
183C380400
0FE7E80C00
0000080C00
0000081800
000008F000
0000080000
0000080000
0000080000
ENDCHAR
STARTCHAR uni092A094D092E
ENCODING -1
SWIDTH 774 0
DWIDTH 25 0
BBX 25 20 0 0
BITMAP
FFFFFF80
30180C00
10080C00
10080C00
10080C00
10080C00
10080C00
10080C00
10080C00
100FFC00
18180C00
18380C00
0FE80C00
00080C00
00000C00
00000C00
00000C00
00000C00
00000C00
00000C00
ENDCHAR
STARTCHAR uni092A094D092F
ENCODING -1
SWIDTH 855 0
DWIDTH 27 0
BBX 28 20 0 0
BITMAP
FFFFFFF0
30018180
1000C100
1000C100
1000C100
1000C100
10018100
101F8100
10180100
10180100
10180100
10180100
18380100
0FEC0300
000E0700
0007FD00
00000100
00000100
00000100
00000100
ENDCHAR
STARTCHAR uni092A094D0932
ENCODING -1
SWIDTH 960 0
DWIDTH 31 0
BBX 31 20 0 0
BITMAP
FFFFFFFE
30000030
10000030
10000030
10000030
10000030
1007C7B0
100C6C70
10083830
10181030
10181030
10181030
18381030
0FF81030
00180030
00180030
000C0030
0007C030
00000030
00000030
ENDCHAR
STARTCHAR uni092A094D0935
ENCODING -1
SWIDTH 780 0
DWIDTH 25 0
BBX 25 20 0 0
BITMAP
FFFFFF80
30000C00
10000C00
10000C00
10000C00
1003CC00
100E0C00
100C0C00
10080C00
10180C00
10180C00
10180C00
18380C00
0FE80C00
00080C00
000C1C00
0007FC00
00000C00
00000C00
00000C00
ENDCHAR
STARTCHAR uni092A094D0938
ENCODING -1
SWIDTH 880 0
DWIDTH 28 0
BBX 29 20 0 0
BITMAP
FFFFFFF8
30008180
10008080
10008080
10008080
10008080
10008080
10008080
10018080
10018080
101FFF80
10180080
18380080
0FEC0080
00060080
00020080
00030080
00018080
00018080
0000C080
ENDCHAR
STARTCHAR uni092B094D091C
ENCODING -1
SWIDTH 1100 0
DWIDTH 35 0
BBX 36 20 0 0
BITMAP
FFFFFFFFF0
3018000100
1018000100
1018000100
1018000100
1018000100
101BE7FF00
101E008100
1018004100
1018006100
1018006100
1818006100
1838006100
0FF8006100
0018004100
001800C100
00183F8100
0018000100
0018000100
0018000100
ENDCHAR
STARTCHAR uni092B094D091F
ENCODING -1
SWIDTH 1006 0
DWIDTH 32 0
BBX 33 20 0 0
BITMAP
FFFFFFFF80
3018001800
1018001800
1018001800
1018001800
101BF01800
101C3FF800
10180C0000
1018180000
1018100000
1018100000
1818100000
1838100000
0FF8100600
0018100600
0018180400
00180C0C00
00180FF800
0018000000
0018000000
ENDCHAR
STARTCHAR uni092B094D0924
ENCODING -1
SWIDTH 1034 0
DWIDTH 33 0
BBX 34 20 0 0
BITMAP
FFFFFFFFC0
3018000C00
1018000400
1018000400
1018000400
101BE00400
101E380400
10181FFC00
10180C0400
1018080400
1018180400
1818180400
1838180400
0FF8180400
0018180400
0018180400
0018180400
0018080400
00180C0400
0018078400
ENDCHAR
STARTCHAR uni092B094D092A
ENCODING -1
SWIDTH 1021 0
DWIDTH 33 0
BBX 33 20 0 0
BITMAP
FFFFFFFF80
3018180C00
1018180C00
1018180C00
1018180C00
1018180C00
101BF80C00
101C180C00
1018180C00
1018180C00
1018180C00
1818180C00
18380C1C00
0FF807FC00
0018000C00
0018000C00
0018000C00
0018000C00
0018000C00
0018000C00
ENDCHAR
STARTCHAR uni092B094D092B
ENCODING -1
SWIDTH 1256 0
DWIDTH 40 0
BBX 41 20 0 0
BITMAP
FFFFFFFFFF80
3018180C0000
101818080000
101818080000
101818080000
1018180BF000
101BF80E1800
101C180C0C00
101818080400
101818080400
101818080400
181818180400
18380C380400
0FF807E80400
001800080C00
001800081800
00180008F800
001800080000
001800080000
001800080000
ENDCHAR
STARTCHAR uni092B094D092F
ENCODING -1
SWIDTH 1120 0
DWIDTH 36 0
BBX 35 20 0 0
BITMAP
FFFFFFFFE0
3018030300
1018008300
1018008300
1018008300
1018008300
1018018300
101BFF0300
101E180300
1018180300
1018180300
1818180300
1838180300
0FF8080300
00180C0700
001807FF00
0018000300
0018000300
0018000300
0018000300
ENDCHAR
STARTCHAR uni092B094D0932
ENCODING -1
SWIDTH 1202 0
DWIDTH 38 0
BBX 39 20 0 0
BITMAP
FFFFFFFFFE
3018000030
1018000030
1018000030
1018000030
101BF00030
101C3FC7B0
10180C6CF0
1018183030
1018183030
1018181030
1818181030
1838181030
0FF8181030
0018180030
0018180030
00180C0030
001807C030
0018000030
0018000030
ENDCHAR
STARTCHAR uni092B094D0936
ENCODING -1
SWIDTH 1211 0
DWIDTH 39 0
BBX 39 20 0 0
BITMAP
FFFFF1F03E
3018039830
1018020C30
1018060C30
1018060C30
101BE20C30
101E700C30
1018100C30
1018180C30
1018181830
10181FF030
1818180030
18380C0030
0FF8060030
0018060030
0018030030
0018018030
0018008030
001800C030
0018006030
ENDCHAR
STARTCHAR uni092C094D091C
ENCODING -1
SWIDTH 883 0
DWIDTH 28 0
BBX 29 20 0 0
BITMAP
FFFFFFF8
000000C0
00000080
00000080
00000080
0F800080
1C000080
3807FF80
3C006080
36002080
32003080
31003080
30803080
30403080
30203080
18106080
0FFFC080
00000080
00000080
00000080
ENDCHAR
STARTCHAR uni092C094D091D
ENCODING -1
SWIDTH 962 0
DWIDTH 31 0
BBX 31 23 0 -3
BITMAP
FFFFFFFE
00001830
00001830
00001830
00001830
0F87F830
180C0030
38180030
34180030
32180030
311C0030
309FFFF0
30581830
30380C30
30100C30
18300C30
0FEC0C30
000C0C30
000E1830
000FF830
000C0000
000C0000
000C0000
ENDCHAR
STARTCHAR uni092C094D0924
ENCODING -1
SWIDTH 786 0
DWIDTH 25 0
BBX 26 20 0 0
BITMAP
FFFFFFC0
00000C00
00000400
00000400
00000400
0F800400
18000400
3807FC00
340E0400
32080400
31180400
30980400
30580400
30380400
30180400
18380400
0FF80400
00080400
000C0400
00078400
ENDCHAR
STARTCHAR uni092C094D0926
ENCODING -1
SWIDTH 775 0
DWIDTH 25 0
BBX 25 20 0 0
BITMAP
FFFFFF80
00000C00
00000C00
00000C00
00000C00
0F87FC00
180E0000
3C080000
36180000
32180000
31180000
30980000
30580400
30380400
30180400
183C0C00
0FE7FC00
00000400
00000400
00000400
ENDCHAR
STARTCHAR uni092C094D0927
ENCODING -1
SWIDTH 844 0
DWIDTH 27 0
BBX 27 20 0 0
BITMAP
FFFF1FE0
000C0300
00080300
00180300
00180300
0F980300
18080300
380C0300
3407C300
320C0300
31080300
30980300
30580300
30380300
30180300
183C0700
0FE7FF00
00000300
00000300
00000100
ENDCHAR
STARTCHAR uni092C094D092C
ENCODING -1
SWIDTH 783 0
DWIDTH 25 0
BBX 26 20 0 0
BITMAP
FFFFFFC0
00000C00
00000400
00000400
00000400
0F87C400
180E0400
380C0400
3C1A0400
36190400
33188400
31986400
30D83400
30781C00
30180C00
183C1C00
0FE7F400
00000400
00000400
00000400
ENDCHAR
STARTCHAR uni092C094D092D
ENCODING -1
SWIDTH 764 0
DWIDTH 24 0
BBX 25 20 0 0
BITMAP
FFE07F80
00300C00
00180C00
00180C00
00180C00
0F980C00
18180C00
38180C00
34180C00
321FFC00
31180C00
30980C00
30580C00
30380C00
30180C00
18300C00
0FE00C00
00000C00
00000C00
00000C00
ENDCHAR
STARTCHAR uni092C094D092F
ENCODING -1
SWIDTH 852 0
DWIDTH 27 0
BBX 28 20 0 0
BITMAP
FFFFFFF0
00038180
00008100
0000C100
0000C100
0F80C100
18018100
381F0100
34180100
32180100
31980100
30D80100
30780100
30380300
301E0700
1837FD00
0FE00100
00000100
00000100
00000100
ENDCHAR
STARTCHAR uni092C094D0932
ENCODING -1
SWIDTH 961 0
DWIDTH 31 0
BBX 31 20 0 0
BITMAP
FFFFFFFE
00000030
00000030
00000030
00000030
0F800030
1807C7B0
380E6C70
34083830
32181030
31181030
30981030
30581030
30381030
30180030
18380030
0FCC0030
0007C030
00000030
00000030
ENDCHAR
STARTCHAR uni092C094D0935
ENCODING -1
SWIDTH 776 0
DWIDTH 25 0
BBX 25 20 0 0
BITMAP
FFFFFF80
00000C00
00000C00
00000C00
00000C00
0F87CC00
180E0C00
38080C00
3C180C00
36180C00
33180C00
31980C00
30D80C00
30780C00
30380C00
183C1C00
0FE7FC00
00000C00
00000C00
00000C00
ENDCHAR
STARTCHAR uni092C094D0936
ENCODING -1
SWIDTH 926 0
DWIDTH 30 0
BBX 30 20 0 0
BITMAP
FFC3E07C
00073060
00041860
000C1860
000C1860
0F8C1860
18001860
38001860
34001860
32003060
311FE060
309C0060
305C0060
303E0060
30130060
18330060
0FE18060
0000C060
00004060
00006060
ENDCHAR
STARTCHAR uni092C094D0938
ENCODING -1
SWIDTH 897 0
DWIDTH 29 0
BBX 29 20 0 0
BITMAP
FFFFFFF8
0000C0C0
0000C0C0
0000C0C0
0000C0C0
0F80C0C0
1800C0C0
3800C0C0
3C00C0C0
360180C0
331FFFC0
319800C0
30DC00C0
303E00C0
301200C0
183300C0
0FE180C0
000180C0
0000C0C0
000040C0
ENDCHAR
STARTCHAR uni092D094D092F
ENCODING -1
SWIDTH 827 0
DWIDTH 26 0
BBX 27 20 0 0
BITMAP
C0FFFFE0
70030300
30018300
10018300
10018300
10018300
10038300
101F0300
10100300
1FF00300
10100300
10100300
10100300
10180700
000C0F00
0007FB00
00000300
00000300
00000300
00000300
ENDCHAR
STARTCHAR uni092D094D0932
ENCODING -1
SWIDTH 941 0
DWIDTH 30 0
BBX 31 20 0 0
BITMAP
C0FFFFFE
70000060
30000020
10000020
10000020
10000020
100FCFA0
101C78E0
10183060
1FF03020
10103020
10103020
10103020
10100020
00100020
00180020
00180020
000F8020
00000020
00000020
ENDCHAR
STARTCHAR uni092D094D0935
ENCODING -1
SWIDTH 755 0
DWIDTH 24 0
BBX 25 20 0 0
BITMAP
C0FFFF80
70000800
30000800
10000800
10000800
10078800
101C0800
10180800
10100800
1FF00800
10100800
10100800
10100800
10100800
10181800
000C3800
000FE800
00000800
00000800
00000800
ENDCHAR
STARTCHAR uni092E094D0924
ENCODING -1
SWIDTH 765 0
DWIDTH 24 0
BBX 25 20 0 0
BITMAP
FFFFFF80
30000C00
10000C00
10000C00
10000C00
10000C00
10000C00
100FFC00
101C0C00
1FF80C00
10100C00
10100C00
10100C00
10100C00
00100C00
00100C00
00100C00
00180C00
001C0C00
000F0C00
ENDCHAR
STARTCHAR uni092E094D0926
ENCODING -1
SWIDTH 766 0
DWIDTH 25 0
BBX 25 20 0 0
BITMAP
FFFFFF80
30000C00
10000C00
10000C00
10000C00
1007FC00
100C0000
10180000
10180000
1FF80000
10180000
10180000
10180400
10180400
10180C00
000C0C00
0007F400
00000400
00000400
00000400
ENDCHAR
STARTCHAR uni092E094D092A
ENCODING -1
SWIDTH 762 0
DWIDTH 24 0
BBX 25 20 0 0
BITMAP
FFFFFF80
30180C00
10100800
10100800
10100800
10100800
10100800
10100800
10100800
1FF00800
10100800
10180800
100C1800
1007E800
00000800
00000800
00000800
00000800
00000800
00000800
ENDCHAR
STARTCHAR uni092E094D092C
ENCODING -1
SWIDTH 768 0
DWIDTH 25 0
BBX 25 20 0 0
BITMAP
FFFFFF80
30000C00
10000C00
10000C00
10000C00
1007CC00
100C0C00
101C0C00
10120C00
1FF10C00
10108C00
10104C00
10102C00
10101C00
00180C00
000C1C00
0007EC00
00000C00
00000C00
00000C00
ENDCHAR
STARTCHAR uni092E094D092D
ENCODING -1
SWIDTH 768 0
DWIDTH 25 0
BBX 25 20 0 0
BITMAP
FFE07F80
30300C00
10180C00
10180C00
10180C00
10180C00
10180C00
10180C00
10180C00
1FFFFC00
10180C00
10180C00
10180C00
10180C00
00000C00
00000C00
00000C00
00000C00
00000C00
00000C00
ENDCHAR
STARTCHAR uni092E094D092E
ENCODING -1
SWIDTH 759 0
DWIDTH 24 0
BBX 25 20 0 0
BITMAP
FFFFFF80
30180C00
10180800
10180800
10180800
10180800
10180800
10180800
10180800
1FFFF800
10180800
10180800
10180800
10180800
00000800
00000800
00000800
00000800
00000800
00000800
ENDCHAR
STARTCHAR uni092E094D092F
ENCODING -1
SWIDTH 834 0
DWIDTH 27 0
BBX 27 20 0 0
BITMAP
FFFFFFE0
30030300
10018300
10008300
10008300
10018300
10018300
101F0300
10100300
1FF00300
10100300
10100300
10100300
10180300
000C0F00
0007FB00
00000300
00000300
00000300
00000300
ENDCHAR
STARTCHAR uni092E094D0932
ENCODING -1
SWIDTH 945 0
DWIDTH 30 0
BBX 31 20 0 0
BITMAP
FFFFFFFE
30000020
10000020
10000020
10000020
10000020
1007CFA0
101C78E0
10183060
1FF03020
10103020
10103020
10103020
10100020
00100020
00180020
001C0020
00078020
00000020
00000020
ENDCHAR
STARTCHAR uni092E094D0935
ENCODING -1
SWIDTH 761 0
DWIDTH 24 0
BBX 25 20 0 0
BITMAP
FFFFFF80
30000C00
10000800
10000800
10000800
1007C800
100C0800
10180800
10180800
1FF00800
10100800
10100800
10100800
10180800
10181800
000C1800
0007E800
00000800
00000800
00000800
ENDCHAR
STARTCHAR uni092E094D0936
ENCODING -1
SWIDTH 884 0
DWIDTH 28 0
BBX 29 20 0 0
BITMAP
FF87C0F8
300CE0C0
10186080
10182080
10182080
10182080
10002080
10002080
10002080
10006080
1FFFC080
10300080
10180080
10080080
100C0080
00060080
00030080
00030080
00018080
0000C080
ENDCHAR
STARTCHAR uni092E094D0938
ENCODING -1
SWIDTH 816 0
DWIDTH 26 0
BBX 27 20 0 0
BITMAP
FFFFFFE0
30060600
10020200
10020200
10020200
10020200
10020200
10020200
10060200
10060200
1FFFFE00
10600200
10200200
10300200
10180200
00080200
000C0200
00060200
00060200
00030200
ENDCHAR
STARTCHAR uni092E094D0939
ENCODING -1
SWIDTH 758 0
DWIDTH 24 0
BBX 25 21 0 -1
BITMAP
FFFFFF80
30000C00
10000800
10000800
10000800
1007F800
100C0000
10180000
10180000
1FF80000
100C0000
1007F000
100C1800
10080C00
00180C00
00180C00
00180000
00180000
00080000
000C0000
0007FC00
ENDCHAR
STARTCHAR uni092F094D092F
ENCODING -1
SWIDTH 897 0
DWIDTH 29 0
BBX 29 20 0 0
BITMAP
FFFFFFF8
0600C0C0
010060C0
010020C0
010020C0
010060C0
030060C0
3E07C0C0
300400C0
300400C0
300400C0
300400C0
300600C0
100600C0
180F03C0
0FF9FEC0
000000C0
000000C0
000000C0
000000C0
ENDCHAR
STARTCHAR uni0930094D092F
ENCODING -1
SWIDTH 713 0
DWIDTH 23 0
BBX 23 20 0 0
BITMAP
FFFFFE
003030
001830
000830
000830
000830
C00830
601830
3FF030
010030
010030
010030
018030
018030
00C070
007FF0
000030
000030
000030
000030
ENDCHAR
STARTCHAR uni0930094D0939
ENCODING -1
SWIDTH 619 0
DWIDTH 20 0
BBX 20 21 0 -1
BITMAP
FFFFF0
000180
000180
000180
000180
007F80
C0C000
618000
3F0000
018000
018000
007F00
00C180
018080
010080
0100C0
010000
010000
018000
00C000
007F80
ENDCHAR
STARTCHAR uni0932094D0915
ENCODING -1
SWIDTH 1182 0
DWIDTH 38 0
BBX 38 20 0 0
BITMAP
FFFFFFFFFC
0000006000
0000006000
0000006000
0000006000
00003E6FC0
0F8FF078E0
18D9E06030
3070406030
3020406030
3020406030
3020406030
3020406030
3020406030
3000606030
300030E060
18001FE780
0F80006000
0000006000
0000006000
ENDCHAR
STARTCHAR uni0932094D0916
ENCODING -1
SWIDTH 1195 0
DWIDTH 38 0
BBX 39 20 0 0
BITMAP
FFFFFFFFFE
0000030020
0000010020
0000010020
0000010020
0000010E20
0F8F811820
18D9813020
3070433020
3020433020
30207E3020
3020603020
3020303060
3000181860
3000180FA0
30000C0020
1800060020
0F80020020
0000030020
0000018020
ENDCHAR
STARTCHAR uni0932094D0917
ENCODING -1
SWIDTH 950 0
DWIDTH 30 0
BBX 31 20 0 0
BITMAP
FFFFFFFE
00001830
00001020
00001020
00001020
00001020
0F8F1020
18D81020
30701020
30201020
30201020
30203020
3021E020
30200020
30000020
30000020
18000020
0F800020
00000020
00000020
ENDCHAR
STARTCHAR uni0932094D091C
ENCODING -1
SWIDTH 1035 0
DWIDTH 33 0
BBX 34 20 0 0
BITMAP
FFFFFFFFC0
0000000C00
0000000400
0000000400
0000000400
0000000400
0F8F3FFC00
18D8060400
3070010400
3020018400
3020018400
3020018400
3020018400
3000018400
3000010400
3000030400
1800FE0400
0F80000400
0000000400
0000000400
ENDCHAR
STARTCHAR uni0932094D091F
ENCODING -1
SWIDTH 929 0
DWIDTH 30 0
BBX 30 18 0 2
BITMAP
FFFFFFFC
00000060
00000040
00000040
00000040
00000040
0F8FBFC0
18D8F000
30704000
3020C000
3020C000
3020C000
3020C010
3000C010
3000C010
30004030
18006060
0F803FC0
ENDCHAR
STARTCHAR uni0932094D0920
ENCODING -1
SWIDTH 953 0
DWIDTH 31 0
BBX 31 18 0 2
BITMAP
FFFFFFFE
00000060
00000060
00000060
00000060
000000C0
0F8FBF80
18D9F060
30704030
3020C030
3020C010
3020C010
3020C010
3000C010
3000C030
3000C030
18006060
0F803FC0
ENDCHAR
STARTCHAR uni0932094D0921
ENCODING -1
SWIDTH 916 0
DWIDTH 29 0
BBX 30 20 0 0
BITMAP
FFFFFFFC
00000060
00000040
00000040
00000040
00003FC0
0F8FF000
18D8C000
3070C000
3020C000
30206000
30207FC0
302000E0
30000020
30000020
3000C020
1800C020
0F80C020
00006060
00003FC0
ENDCHAR
STARTCHAR uni0932094D0922
ENCODING -1
SWIDTH 924 0
DWIDTH 30 0
BBX 30 18 0 2
BITMAP
FFFFFFFC
00000060
00000040
00000040
00000040
00000040
0F8F3FC0
18D9E000
30704000
3020C000
3020C000
3020C1E0
3020C330
3020C210
3000C210
3000C030
18006030
0F803FE0
ENDCHAR
STARTCHAR uni0932094D0924
ENCODING -1
SWIDTH 929 0
DWIDTH 30 0
BBX 30 20 0 0
BITMAP
FFFFFFFC
00000060
00000060
00000060
00000060
00000060
0F8F0060
18D9FFE0
30706060
3020C060
3020C060
3020C060
3020C060
3000C060
3000C060
3000C060
1800C060
0F80C060
00006060
00003860
ENDCHAR
STARTCHAR uni0932094D0925
ENCODING -1
SWIDTH 1061 0
DWIDTH 34 0
BBX 34 20 0 0
BITMAP
FFFE1F07C0
00003B8600
0000308600
0000208600
000020C600
000020C600
0F8F808600
18D9C08600
3070C18600
30207F0600
3020400600
3020400600
3020400600
3000600600
3000300E00
30001FFE00
1800000600
0F80000600
0000000600
0000000600
ENDCHAR
STARTCHAR uni0932094D0926
ENCODING -1
SWIDTH 939 0
DWIDTH 30 0
BBX 31 20 0 0
BITMAP
FFFFFFFE
00000060
00000020
00000020
00000020
00001FE0
0F8FB000
18D9E000
30704000
30204000
30204000
30204000
30204030
30204030
30006030
30003070
18001FF0
0F800030
00000030
00000030
ENDCHAR
STARTCHAR uni0932094D092A
ENCODING -1
SWIDTH 939 0
DWIDTH 30 0
BBX 31 20 0 0
BITMAP
FFFFFFFE
0000C060
00004020
00004020
00004020
00004020
0F8FC020
18D84020
30704020
30204020
30204020
30204060
302060E0
30203FA0
30000020
30000020
18000020
0F800020
00000020
00000020
ENDCHAR
STARTCHAR uni0932094D092B
ENCODING -1
SWIDTH 1176 0
DWIDTH 38 0
BBX 38 20 0 0
BITMAP
FFFFFFFFFC
0000C06000
0000406000
0000406000
0000406000
0000406FC0
0F8FC070E0
18D8406020
3070406030
3020406030
3020406030
3020606030
302060E030
30203FE030
3000006020
3000006060
1800006780
0F80006000
0000006000
0000006000
ENDCHAR
STARTCHAR uni0932094D092C
ENCODING -1
SWIDTH 949 0
DWIDTH 30 0
BBX 31 20 0 0
BITMAP
FFFFFFFE
00000030
00000020
00000020
00000020
00003F20
0F8FE020
18D8F020
30705820
30204C20
30204620
30204320
302041A0
302040E0
30006060
300030E0
18001FA0
0F800020
00000020
00000020
ENDCHAR
STARTCHAR uni0932094D092D
ENCODING -1
SWIDTH 931 0
DWIDTH 30 0
BBX 30 20 0 0
BITMAP
FFFF03FC
0001C060
0000C060
00004060
00004060
00004060
0F8FC060
18D84060
30704060
30207FE0
30204060
30204060
30204060
30004060
30000060
30000060
18000060
0F800060
00000060
00000060
ENDCHAR
STARTCHAR uni0932094D092E
ENCODING -1
SWIDTH 931 0
DWIDTH 30 0
BBX 30 20 0 0
BITMAP
FFFFFFFC
0000C060
00004060
00004060
00004060
00004060
0F8FC060
18D84060
30704060
30207FE0
30204060
30204060
30204060
30004060
30000060
30000060
18000060
0F800060
00000060
00000060
ENDCHAR
STARTCHAR uni0932094D092F
ENCODING -1
SWIDTH 1033 0
DWIDTH 33 0
BBX 34 20 0 0
BITMAP
FFFFFFFFC0
00000C0C00
0000020400
0000020400
0000020400
0F8F820400
18D8C20400
1070460400
30207C0400
3020600400
3020600400
3020600400
3000600C00
3000200C00
3000301C00
10001FF400
1800000400
0F80000400
0000000400
0000000400
ENDCHAR
STARTCHAR uni0932094D0932
ENCODING -1
SWIDTH 1112 0
DWIDTH 36 0
BBX 36 20 0 0
BITMAP
FFFFFFFFF0
0000000180
0000000180
0000000180
0000000180
0000000180
0F8FBE3D80
18D9E36380
3070C1C180
3020C08180
3020C08180
3020C08180
3020C08180
3000C00180
3000C00180
3000C00180
1800600180
0F803E0180
0000000180
0000000180
ENDCHAR
STARTCHAR uni0932094D0935
ENCODING -1
SWIDTH 940 0
DWIDTH 30 0
BBX 31 20 0 0
BITMAP
FFFFFFFE
00000060
00000020
00000020
00000020
00001E20
0F8FF020
18D9E020
30704020
30204020
30204020
30204020
30204020
30204020
30006060
300030E0
18001FA0
0F800020
00000020
00000020
ENDCHAR
STARTCHAR uni0932094D0938
ENCODING -1
SWIDTH 1068 0
DWIDTH 34 0
BBX 35 20 0 0
BITMAP
FFFFFFFFE0
0000020200
0000020200
0000020200
0000020200
0000020200
0F8F020200
18D9820200
3070C60200
3020460200
30207FFE00
3020600200
3020200200
3000300200
3000180200
3000080200
18000C0200
0F80060200
0000060200
0000030200
ENDCHAR
STARTCHAR uni0932094D0939
ENCODING -1
SWIDTH 922 0
DWIDTH 30 0
BBX 30 21 0 -1
BITMAP
FFFFFFFC
00000060
00000060
00000060
00000060
00003FE0
0F8FE000
18D8C000
30704000
30204000
30206000
30203FC0
302070E0
30006060
30004020
3000C020
1800C000
0F804000
00004000
00006000
00003FE0
ENDCHAR
STARTCHAR uni0933094D092F
ENCODING -1
SWIDTH 1050 0
DWIDTH 34 0
BBX 34 20 0 0
BITMAP
FFFFFFFFC0
0000060600
0000030600
0000030600
0000030600
0FCFC30600
18F8E30600
30307E0600
3020200600
3020200600
3020200600
3020200600
3020200600
3020300600
3030781E00
18584FF600
0FCF800600
0000000600
0000000600
0000000600
ENDCHAR
STARTCHAR uni0935094D092F
ENCODING -1
SWIDTH 852 0
DWIDTH 27 0
BBX 28 20 0 0
BITMAP
FFFFFFF0
00038180
00008100
0000C100
0000C100
0F80C100
18018100
301F0100
30180100
30180100
30180100
30180100
30180100
301C0300
301E0700
1837FD00
0FE00100
00000100
00000100
00000100
ENDCHAR
STARTCHAR uni0935094D0932
ENCODING -1
SWIDTH 961 0
DWIDTH 31 0
BBX 31 20 0 0
BITMAP
FFFFFFFE
00000030
00000030
00000030
00000030
0F87C7B0
180E6C70
30083830
30181030
30181030
30181030
30181030
30181030
30180030
30180030
18380030
0FEC0030
0007C030
00000030
00000030
ENDCHAR
STARTCHAR uni0935094D0935
ENCODING -1
SWIDTH 776 0
DWIDTH 25 0
BBX 25 20 0 0
BITMAP
FFFFFF80
00000C00
00000C00
00000C00
00000C00
0F87CC00
180E0C00
30080C00
30180C00
30180C00
30180C00
30180C00
30180C00
30180C00
30180C00
183C1C00
0FE7FC00
00000C00
00000C00
00000C00
ENDCHAR
STARTCHAR uni0935094D0939
ENCODING -1
SWIDTH 754 0
DWIDTH 24 0
BBX 25 21 0 -1
BITMAP
FFFFFF80
00000800
00000800
00000800
00000800
0F87F800
180C0000
30180000
30180000
30180000
300C0000
3007F000
300C1800
30180C00
30180C00
18380C00
0FF80400
00180000
00180000
000C0000
0007F800
ENDCHAR
STARTCHAR uni0936094D0915
ENCODING -1
SWIDTH 1093 0
DWIDTH 35 0
BBX 34 20 1 0
BITMAP
1F0FFFFFC0
3980060000
20C0020000
60C0020000
60C0020000
60C1E2FC00
00C3038600
00C6030300
00C4020300
0184020300
FF04020300
4004020300
6004020300
3004020300
1806060300
18070E0600
0C03FA7C00
0600020000
0600020000
0300020000
ENDCHAR
STARTCHAR uni0936094D091A
ENCODING -1
SWIDTH 950 0
DWIDTH 30 0
BBX 30 20 1 0
BITMAP
1F0FFFFC
31800060
20C00040
60C00040
60C00040
60C00040
00CFFC40
00C0C040
00C18040
01810040
FF010040
40010040
60010040
30018040
1801C0C0
1800FF40
0C000040
06000040
02000040
03000040
ENDCHAR
STARTCHAR uni0936094D091B
ENCODING -1
SWIDTH 968 0
DWIDTH 31 0
BBX 30 20 1 0
BITMAP
1F0FFFFC
33818060
60830060
60C20060
60C20060
60C20060
00C203C0
00C30060
00830030
0180F030
FF018030
C0030030
60020030
30020030
10020030
18030020
0C038060
0601FFC0
06000000
03000000
ENDCHAR
STARTCHAR uni0936094D091F
ENCODING -1
SWIDTH 854 0
DWIDTH 27 0
BBX 27 20 1 0
BITMAP
1F0FFFE0
31800600
20C00600
60C00600
60C00600
60C00600
00C1FE00
00C30000
00C60000
01860000
FF040000
40040000
60040180
30040180
18060180
18060180
0C030300
0601FE00
02000000
03000000
ENDCHAR
STARTCHAR uni0936094D0924
ENCODING -1
SWIDTH 864 0
DWIDTH 28 0
BBX 27 20 1 0
BITMAP
1F0FFFE0
39800300
20C00300
60C00300
60C00300
60C00300
00C00300
00C1FF00
00C30300
01860300
FF060300
C0040300
60040300
30040300
10040300
18040300
0C040300
04060300
06030300
0303C300
ENDCHAR
STARTCHAR uni0936094D092E
ENCODING -1
SWIDTH 885 0
DWIDTH 28 0
BBX 28 20 1 0
BITMAP
1F0FFFF0
31830180
20C30100
60C30100
60C30100
60C30100
00C30100
00C30100
00C30100
0183FF00
FF030100
40030100
60030100
30030100
18000100
18000100
0C000100
06000100
02000100
03000100
ENDCHAR
STARTCHAR uni0936094D092F
ENCODING -1
SWIDTH 940 0
DWIDTH 30 0
BBX 30 20 1 0
BITMAP
1F0FFFFC
3180C0C0
20C02040
60C02040
60C03040
20C02040
00C06040
00C7C040
00C60040
01860040
FF060040
40060040
600600C0
300200C0
180301C0
1801FF40
0C000040
06000040
02000040
03000040
ENDCHAR
STARTCHAR uni0936094D0932
ENCODING -1
SWIDTH 1039 0
DWIDTH 33 0
BBX 33 20 1 0
BITMAP
1F0FFFFF80
3980000800
20C0000800
60C0000800
60C0000800
60C0000800
00C1F3E800
00C31E3800
00C60C1800
01840C0800
FF040C0800
40040C0800
60040C0800
3004000800
1804000800
1806000800
0C07000800
0603E00800
0200000800
0300000800
ENDCHAR
STARTCHAR uni0936094D0935
ENCODING -1
SWIDTH 850 0
DWIDTH 27 0
BBX 27 20 1 0
BITMAP
1F0FFFE0
39800200
20C00200
60C00200
60C00200
60C1E200
00C30200
00C60200
00C40200
01840200
FF040200
40040200
60040200
30040200
18060600
18070E00
0C03FA00
06000200
02000200
03000200
ENDCHAR
STARTCHAR uni0936094D0936
ENCODING -1
SWIDTH 1009 0
DWIDTH 32 0
BBX 32 20 1 0
BITMAP
1F00F81F
31819C18
20C30C10
60C30410
60C30410
60C30410
00C00410
00C00410
00C00410
01800C10
FF07F810
40060010
60030010
30010010
18018010
1800C010
0C006010
06006010
02003010
03001810
ENDCHAR
STARTCHAR uni0937094D0915
ENCODING -1
SWIDTH 1039 0
DWIDTH 33 0
BBX 34 20 0 0
BITMAP
FFFFFFFFC0
3000060000
1800040000
1C00040000
1600040000
1303E5F800
1186070C00
108C060600
104C040200
102C040200
101C040200
101C040200
183C040200
0FEC040200
000C0C0600
00060C0E00
0003F47C00
0000040000
0000040000
0000040000
ENDCHAR
STARTCHAR uni0937094D091F
ENCODING -1
SWIDTH 493 0
DWIDTH 16 0
BBX 16 20 0 0
BITMAP
FFFF
300C
3C08
3608
3308
3188
1048
1038
1818
0FF8
1800
3000
3000
3000
3004
3004
3004
300C
1818
0FF0
ENDCHAR
STARTCHAR uni0937094D0920
ENCODING -1
SWIDTH 511 0
DWIDTH 16 0
BBX 17 20 0 0
BITMAP
FFFF80
3FFC00
1FFC00
1FFC00
1FFC00
1FFC00
1FFC00
1FFC00
1FF800
0FF000
1FF800
100C00
300C00
300400
300400
300400
300C00
300C00
181800
0FF000
ENDCHAR
STARTCHAR uni0937094D0923
ENCODING -1
SWIDTH 980 0
DWIDTH 31 0
BBX 32 20 0 0
BITMAP
FFFFFFFF
300C0C18
180C0810
1C0C0810
160C0810
130C0810
118C0810
10CC0810
104C0810
102C0810
101C0810
101C0810
18361810
0FE3F010
00000010
00000010
00000010
00000010
00000010
00000010
ENDCHAR
STARTCHAR uni0937094D092A
ENCODING -1
SWIDTH 980 0
DWIDTH 31 0
BBX 32 20 0 0
BITMAP
FFFFFFFF
300C0C18
180C0810
1C0C0810
160C0810
130C0810
118C0810
10CC0810
104C0810
102C0810
101C0810
101C0810
18361810
0FE3F010
00000010
00000010
00000010
00000010
00000010
00000010
ENDCHAR
STARTCHAR uni0937094D092B
ENCODING -1
SWIDTH 1036 0
DWIDTH 33 0
BBX 34 20 0 0
BITMAP
FFFFFFFFC0
300C040000
180C040000
1C0C040000
160C040000
130C05F800
110C070C00
108C060600
104C040200
102C040200
103C040200
101C0C0200
183E1C0200
0FE3F40200
0000040600
0000040C00
0000047800
0000040000
0000040000
0000040000
ENDCHAR
STARTCHAR uni0937094D092E
ENCODING -1
SWIDTH 791 0
DWIDTH 25 0
BBX 26 20 0 0
BITMAP
FFFFFFC0
300C0600
180C0400
1C0C0400
160C0400
130C0400
118C0400
10CC0400
106C0400
102FFC00
101C0400
181C0400
183C0400
0FEC0400
00000400
00000400
00000400
00000400
00000400
00000400
ENDCHAR
STARTCHAR uni0937094D092F
ENCODING -1
SWIDTH 877 0
DWIDTH 28 0
BBX 29 20 0 0
BITMAP
FFFFFFF8
30018180
18004080
14004080
16006080
13004080
1180C080
10CF8080
106C0080
102C0080
101C0080
181C0080
183C0180
0FE40180
00060380
0003FE80
00000080
00000080
00000080
00000080
ENDCHAR
STARTCHAR uni0937094D0935
ENCODING -1
SWIDTH 802 0
DWIDTH 26 0
BBX 26 20 0 0
BITMAP
FFFFFFC0
30000600
18000600
1C000600
16000600
1303E600
11870600
108C0600
104C0600
102C0600
101C0600
101C0600
183C0600
0FEC0600
000C0600
00060E00
0003FE00
00000600
00000600
00000600
ENDCHAR
STARTCHAR uni0937094D0937
ENCODING -1
SWIDTH 804 0
DWIDTH 26 0
BBX 26 20 0 0
BITMAP
FFFFFFC0
300C0600
180E0600
1C0F0600
160D0600
130C8600
118C4600
10CC2600
104C3600
102C1E00
101C0E00
101C0600
18360E00
0FE3FE00
00000600
00000600
00000600
00000600
00000600
00000600
ENDCHAR
STARTCHAR uni0938094D0915
ENCODING -1
SWIDTH 1089 0
DWIDTH 35 0
BBX 35 20 0 0
BITMAP
FFFFFFFFE0
0300030000
0300030000
0300030000
0300030000
0300F37E00
030383C300
0203030180
0202030180
0602030180
7FFE030180
6002030180
3002030180
1002030180
1803030180
0C03870300
0C01FF3E00
0600030000
0200030000
0300030000
ENDCHAR
STARTCHAR uni0938094D0916
ENCODING -1
SWIDTH 990 0
DWIDTH 32 0
BBX 32 20 0 0
BITMAP
FFFFFFFF
0300C018
0300C018
0300C018
0300C018
0300C798
0300CE18
0200CC18
02008818
06018818
7FFF0818
60180818
30180818
100C0C38
180607F8
0C020018
0C030018
06018018
0200C018
0300C018
ENDCHAR
STARTCHAR uni0938094D091C
ENCODING -1
SWIDTH 970 0
DWIDTH 31 0
BBX 31 20 0 0
BITMAP
FFFFFFFE
03000030
03000010
03000010
03000010
03000010
03000010
0200FFF0
02001830
06000410
7FFE0410
60000410
30000410
10000410
18000410
0C000C10
0C03F810
06000010
02000010
03000010
ENDCHAR
STARTCHAR uni0938094D091F
ENCODING -1
SWIDTH 844 0
DWIDTH 27 0
BBX 27 20 0 0
BITMAP
FFFFFFE0
03000300
03000300
03000300
03000300
03000300
0300FF00
02018000
02030000
06020000
7FFE0000
60020000
30020000
10020080
18020080
0C030080
0C038180
0601FF00
02000000
03000000
ENDCHAR
STARTCHAR uni0938094D0924
ENCODING -1
SWIDTH 852 0
DWIDTH 27 0
BBX 28 20 0 0
BITMAP
FFFFFFF0
03000180
03000100
03000100
03000100
03000100
03000100
0201FF00
02038100
06020100
7FFE0100
60060100
30060100
10060100
18060100
08060100
0C020100
06020100
06030100
0301E100
ENDCHAR
STARTCHAR uni0938094D0925
ENCODING -1
SWIDTH 960 0
DWIDTH 31 0
BBX 31 20 0 0
BITMAP
FFF0F83E
0301DC30
03010C30
03010430
03010430
03010430
02000430
02000C30
06000C30
7FFFF830
60020030
30020030
30020030
18030030
080180F0
0C00FFB0
04000030
06000030
02000030
03000030
ENDCHAR
STARTCHAR uni0938094D0926
ENCODING -1
SWIDTH 851 0
DWIDTH 27 0
BBX 28 20 0 0
BITMAP
FFFFFFF0
03000180
03000100
03000100
03000100
0300FF00
03018000
02030000
02020000
06020000
7FFE0000
60020000
30020180
10020180
18030180
0C038380
0C01FF80
06000180
02000180
03000180
ENDCHAR
STARTCHAR uni0938094D092A
ENCODING -1
SWIDTH 857 0
DWIDTH 27 0
BBX 28 20 0 0
BITMAP
FFFFFFF0
03030180
03020180
03020180
03020180
03020180
03020180
02020180
02020180
06020180
7FFF0180
60030180
30018380
1000FD80
18000180
0C000180
0C000180
06000180
02000180
03000180
ENDCHAR
STARTCHAR uni0938094D092B
ENCODING -1
SWIDTH 1092 0
DWIDTH 35 0
BBX 35 20 0 0
BITMAP
FFFFFFFFE0
0303030000
0302010000
0302010000
0302010000
0302017E00
030201C300
0202010180
0202010180
0602010180
7FFF030180
6003030180
3001870180
1000FD0180
1800010180
0C00010300
0C00013E00
0600010000
0200010000
0300010000
ENDCHAR
STARTCHAR uni0938094D092C
ENCODING -1
SWIDTH 857 0
DWIDTH 27 0
BBX 28 20 0 0
BITMAP
FFFFFFF0
03000180
03000100
03000100
03000100
0300F900
03018100
02038100
0202C100
06026100
7FFE3100
60021900
30020D00
10020700
18030300
0C038300
0C01FD00
06000100
02000100
03000100
ENDCHAR
STARTCHAR uni0938094D092E
ENCODING -1
SWIDTH 850 0
DWIDTH 27 0
BBX 28 20 0 0
BITMAP
FFFFFFF0
03030100
03030100
03030100
03030100
03030100
03030100
02030100
02030100
06030100
7FFFFF00
60030100
30030100
10030100
18030100
0C000100
0C000100
06000100
02000100
03000100
ENDCHAR
STARTCHAR uni0938094D092F
ENCODING -1
SWIDTH 920 0
DWIDTH 29 0
BBX 30 20 0 0
BITMAP
FFFFFFFC
03006060
03003060
03003060
03003060
03003060
03006060
0203E060
02020060
06020060
7FFE0060
60020060
30020060
100300E0
180381E0
0C00FF60
0C000060
06000060
02000060
03000060
ENDCHAR
STARTCHAR uni0938094D0932
ENCODING -1
SWIDTH 1027 0
DWIDTH 33 0
BBX 33 20 0 0
BITMAP
FFFFFFFF80
0300000C00
0300000C00
0300000C00
0300000C00
0300000C00
0301F1FC00
02039B1C00
0202060C00
0602060C00
7FFE040C00
6006040C00
3006040C00
1006000C00
1806000C00
0C02000C00
0C03000C00
0601F00C00
0200000C00
0300000C00
ENDCHAR
STARTCHAR uni0938094D0935
ENCODING -1
SWIDTH 842 0
DWIDTH 27 0
BBX 27 20 0 0
BITMAP
FFFFFFE0
03000300
03000100
03000100
03000100
0300F100
03038100
02030100
02020100
06060100
7FFE0100
60060100
30060100
10020300
18020300
0C030700
0C01FD00
06000100
02000100
03000100
ENDCHAR
STARTCHAR uni0938094D0938
ENCODING -1
SWIDTH 871 0
DWIDTH 28 0
BBX 28 20 0 0
BITMAP
FFFFFFF0
03018180
03018180
03018180
03018180
03018180
03018180
02018180
02018180
06030180
7FFFFF80
60180180
30180180
100C0180
18040180
0C060180
0C030180
06010180
02018180
0300C180
ENDCHAR
STARTCHAR uni0939094D0923
ENCODING -1
SWIDTH 1136 0
DWIDTH 36 0
BBX 37 28 0 -8
BITMAP
FFFFFFFFF8
00186060C0
0018604080
0018604080
0018604080
0FF8604080
1800604080
1000604080
1000604080
1000604080
1800604080
0FF0604080
1C3830C080
10181F8080
3008000080
3008000080
3000000080
3000000080
1000000080
1800000080
0FF8000000
0000000000
0000000000
00C0000000
0040000000
0060000000
0030000000
0018000000
ENDCHAR
STARTCHAR uni0939094D092E
ENCODING -1
SWIDTH 746 0
DWIDTH 24 0
BBX 24 23 0 -3
BITMAP
FFFFFF
001818
001818
001818
001818
0FF818
180018
300018
300018
300018
180018
0FF818
181818
101818
301818
301FF8
301818
301818
301818
301818
300018
180018
0FF800
ENDCHAR
STARTCHAR uni0939094D092F
ENCODING -1
SWIDTH 785 0
DWIDTH 25 0
BBX 26 24 0 -4
BITMAP
FFFFFFC0
00180C00
00180400
00180400
00180400
0FF80400
18000400
30000400
30000400
30000400
18000400
0FFE0400
18030400
30010400
30018400
30030400
303F0400
30300400
30300C00
30100C00
30181400
180FF400
0FC00400
00000400
ENDCHAR
STARTCHAR uni0939094D0932
ENCODING -1
SWIDTH 1110 0
DWIDTH 36 0
BBX 36 28 0 -8
BITMAP
FFFFFFFFF0
0018000180
0018000180
0018000180
0018000180
0FF8000180
18003E3D80
1000636780
1000C18180
1000C08180
1800C08180
0FF0C08180
1C38C08180
1018C00180
3008C00180
3008C00180
3000600180
30003E0180
1000000180
1800000180
0FF8000000
0000000000
0000000000
0080000000
00C0000000
0060000000
0020000000
0030000000
ENDCHAR
STARTCHAR uni0939094D0935
ENCODING -1
SWIDTH 920 0
DWIDTH 29 0
BBX 30 28 0 -8
BITMAP
FFFFFFFC
00180060
00180060
00180060
00180060
0FF83E60
18006060
1000C060
1000C060
1000C060
1800C060
0FF0C060
1C30C060
1018C060
3008C060
300860E0
30083F60
30000060
10000060
18000060
0FF80000
00000000
00000000
00800000
00C00000
00600000
00300000
00300000
ENDCHAR
STARTCHAR uni0915093C094D0915093C
ENCODING -1
SWIDTH 1275 0
DWIDTH 41 0
BBX 41 21 0 -1
BITMAP
FFFFFFFFFF80
0018000C0000
0010000C0000
0010000C0000
0010000C0000
0F17E3CDF800
181C3E0F1C00
30181C0C0600
3010080C0600
2010080C0600
2010080C0600
2010080C0600
2010080C0600
3010080C0600
3030080C0600
18300C1C0C00
0FD007FCF800
0010000C0000
0010000C0000
0010000C0000
0C0003000000
ENDCHAR
STARTCHAR uni0915093C094D0924
ENCODING -1
SWIDTH 1016 0
DWIDTH 33 0
BBX 33 21 0 -1
BITMAP
FFFFFFFF80
0018000C00
0010000C00
0010000C00
0010000C00
0F17E00C00
181C700C00
30181FFC00
30101C0C00
2010180C00
2010100C00
2010100C00
2010100C00
3010100C00
3030100C00
1830100C00
0FD0100C00
0010180C00
00101C0C00
00100F0C00
0C00000000
ENDCHAR
STARTCHAR uni0915093C094D092B
ENCODING -1
SWIDTH 1246 0
DWIDTH 40 0
BBX 40 21 0 -1
BITMAP
FFFFFFFFFF
0018181800
0010101800
0010101800
0010101800
0F10101BF0
1817F01E18
301C10180C
301810180C
201010180C
201010180C
201018180C
20100C380C
301007F80C
303000180C
1830001818
0FD00019F0
0010001800
0010001800
0010001800
0C00000000
ENDCHAR
STARTCHAR uni0915093C094D092B093C
ENCODING -1
SWIDTH 1247 0
DWIDTH 40 0
BBX 40 21 0 -1
BITMAP
FFFFFFFFFF
0018181800
0010100800
0010100800
0010100800
0F10100BF0
1817F00E18
301C100C0C
301810080C
201010080C
201010180C
201018180C
20100C380C
301007E80C
303000080C
1830000818
0FD00009F0
0010000800
0010000800
0010000800
0C00060000
ENDCHAR
STARTCHAR uni0915093C094D092C
ENCODING -1
SWIDTH 1043 0
DWIDTH 33 0
BBX 34 21 0 -1
BITMAP
FFFFFFFFC0
0018000600
0010000400
0010000400
0010000400
0F17E3E400
181C7E0400
30181E0400
30100B0400
2010098400
201008C400
2010086400
2010083400
3010081C00
30300C0C00
18300E0C00
0FD007F400
0010000400
0010000400
0010000400
0C00000000
ENDCHAR
STARTCHAR uni0915093C094D092E
ENCODING -1
SWIDTH 998 0
DWIDTH 32 0
BBX 32 21 0 -1
BITMAP
FFFFFFFF
00181018
00101018
00101018
00101018
0F101018
1817F018
301C1018
30181018
20101FF8
20101018
20101018
20101018
30101018
30301018
18300018
0FD00018
00100018
00100018
00100018
0C000000
ENDCHAR
STARTCHAR uni0916093C094D0924
ENCODING -1
SWIDTH 984 0
DWIDTH 31 0
BBX 32 21 0 -1
BITMAP
FFFFFFFF
03000018
01000018
01000018
01000018
010E0018
01180018
01301FF8
03303818
03303018
7E302018
60302018
30302018
10182018
180FE018
0C002018
06002018
06003018
03001818
01801E18
00030000
ENDCHAR
STARTCHAR uni0916093C094D092E
ENCODING -1
SWIDTH 965 0
DWIDTH 31 0
BBX 31 21 0 -1
BITMAP
FFFFFFFE
03002030
01002030
01002030
01002030
010E2030
01182030
01302030
03302030
03303FF0
7E302030
60302030
30302030
18186030
180FC030
0C000030
06000030
06000030
03000030
01800030
00030000
ENDCHAR
STARTCHAR uni0916093C094D092F
ENCODING -1
SWIDTH 1045 0
DWIDTH 33 0
BBX 34 21 0 -1
BITMAP
FFFFFFFFC0
0300060600
0100030600
0100030600
0100030600
010E030600
0118060600
01303E0600
0330200600
0330200600
7E30200600
6030200600
3030200600
1018F00E00
180FB81E00
0C000FF600
0600000600
0600000600
0300000600
0180000600
0002000000
ENDCHAR
STARTCHAR uni0916093C094D0935
ENCODING -1
SWIDTH 972 0
DWIDTH 31 0
BBX 32 21 0 -1
BITMAP
FFFFFFFF
03000030
01000010
01000010
01000010
010E0F10
01183810
01303010
03302010
03302010
7E302010
60302010
30302010
10186010
180FB030
0C001870
06001FD0
06000010
03000010
01800010
00020000
ENDCHAR
STARTCHAR uni0916093C094D0936
ENCODING -1
SWIDTH 1123 0
DWIDTH 36 0
BBX 36 21 0 -1
BITMAP
FFFF0F81F0
03001CC180
0100106180
0100106180
0100106180
010E106180
0118006180
0130006180
0330006180
033000C180
7E307F8180
6030600180
3030200180
1018700180
180F980180
0C00080180
06000C0180
0600060180
0300060180
0180030180
0002000000
ENDCHAR
STARTCHAR uni0916093C094D0938
ENCODING -1
SWIDTH 1066 0
DWIDTH 34 0
BBX 35 21 0 -1
BITMAP
FFFFFFFFE0
0300060600
0100020200
0100020200
0100020200
010E020200
0118020200
0130020200
0330060200
0330060200
7E307FFE00
6030600200
3030200200
1018700200
180F980200
0C00080200
06000C0200
0600040200
0300060200
0180030200
0002000000
ENDCHAR
STARTCHAR uni091C093C094D091C093C
ENCODING -1
SWIDTH 934 0
DWIDTH 30 0
BBX 29 21 0 -1
BITMAP
FFFFFFF8
000000C0
000000C0
000000C0
000000C0
000000C0
000000C0
3FF3FFC0
030060C0
018030C0
018010C0
018010C0
018010C0
018010C0
018010C0
030030C0
7F0FE0C0
000000C0
000000C0
000000C0
10018000
ENDCHAR
STARTCHAR uni091C093C094D092F
ENCODING -1
SWIDTH 893 0
DWIDTH 29 0
BBX 29 21 0 -1
BITMAP
FFFFFFF8
0000C0C0
000060C0
000060C0
000060C0
000060C0
3FFCE0C0
030FC0C0
010400C0
018400C0
018400C0
018400C0
018400C0
018600C0
018303C0
0301FEC0
7E0000C0
000000C0
000000C0
000000C0
10000000
ENDCHAR
STARTCHAR uni092B093C094D091C093C
ENCODING -1
SWIDTH 1100 0
DWIDTH 35 0
BBX 36 21 0 -1
BITMAP
FFFFFFFFF0
3018000100
1018000100
1018000100
1018000100
1018000100
101BE7FF00
101E008100
1018004100
1018006100
1018006100
1818006100
1838006100
0FF8006100
0018004100
001800C100
00183F8100
0018000100
0018000100
0018000100
0800060000
ENDCHAR
STARTCHAR uni092B093C094D0924
ENCODING -1
SWIDTH 1036 0
DWIDTH 33 0
BBX 34 21 0 -1
BITMAP
FFFFFFFFC0
3018000C00
1018000400
1018000400
1018000400
101BE00400
101E380400
10181FFC00
10180E0400
1018080400
1018180400
1818180400
1838180400
0FF8180400
0018180400
0018180400
0018180400
0018080400
00180C0400
0018078400
0800000000
ENDCHAR
STARTCHAR uni092B093C094D092B093C
ENCODING -1
SWIDTH 1256 0
DWIDTH 40 0
BBX 41 21 0 -1
BITMAP
FFFFFFFFFF80
3018180C0000
101818080000
101818080000
101818080000
1018180BF000
101BF80E1800
101E180C0C00
101818080400
101818080400
101818080400
181818180400
18380C380400
0FF807E80400
001800080C00
001800081800
00180008F800
001800080000
001800080000
001800080000
080006000000
ENDCHAR
STARTCHAR uni092B093C094D0938
ENCODING -1
SWIDTH 1141 0
DWIDTH 37 0
BBX 37 21 0 -1
BITMAP
FFFFFFFFF8
301800C0C0
101800C0C0
101800C0C0
101800C0C0
101BE0C0C0
101E70C0C0
101810C0C0
10181880C0
10181980C0
10181FFFC0
18181800C0
18380C00C0
0FF80400C0
00180600C0
00180200C0
00180300C0
00180180C0
00180180C0
001800C0C0
0800000000
ENDCHAR
STARTCHAR uni092C094D091C093C
ENCODING -1
SWIDTH 883 0
DWIDTH 28 0
BBX 29 21 0 -1
BITMAP
FFFFFFF8
000000C0
00000080
00000080
00000080
0F800080
1C000080
3807FF80
3C006080
36002080
32003080
31003080
30803080
30403080
30203080
18106080
0FFFC080
00000080
00000080
00000080
00060000
ENDCHAR
STARTCHAR uni0932094D091C093C
ENCODING -1
SWIDTH 1062 0
DWIDTH 34 0
BBX 34 22 0 -2
BITMAP
FFFFFFFFC0
0000000C00
0000000400
0000000400
0000000400
0000000400
0F8F3FFC00
18D8060400
3070010400
3020018400
3020018400
3020018400
3020018400
3000018400
3000010400
3000030400
1800FE0400
0F80000400
0000000400
0000000400
0000000000
0000300000
ENDCHAR
STARTCHAR uni0936094D0915093C
ENCODING -1
SWIDTH 1093 0
DWIDTH 35 0
BBX 34 21 1 -1
BITMAP
1F0FFFFFC0
3980060000
20C0020000
60C0020000
60C0020000
60C1E2FC00
00C3038600
00C6030300
00C4020300
0184020300
FF04020300
4004020300
6004020300
3004020300
1006060300
18070E0600
0C03FA7C00
0400020000
0600020000
0300020000
0001800000
ENDCHAR
STARTCHAR uni0924094D0924094D
ENCODING -1
SWIDTH 309 0
DWIDTH 10 0
BBX 13 20 0 0
BITMAP
FFF8
0000
0000
0000
0000
0000
0000
7FF8
0C00
0800
0800
0800
0800
0800
0800
0800
0800
0800
0C00
0780
ENDCHAR
ENDFONT
